<?xml version="1.0" encoding="utf-8"?>
<!-- Generator: Adobe Illustrator 24.0.1, SVG Export Plug-In . SVG Version: 6.00 Build 0)  -->
<svg version="1.1" id="Layer_1" xmlns="http://www.w3.org/2000/svg" xmlns:xlink="http://www.w3.org/1999/xlink" x="0px" y="0px"
	 viewBox="0 0 30.5 29.7" style="enable-background:new 0 0 30.5 29.7;" xml:space="preserve">
<style type="text/css">
	.st0{opacity:0.26;}
	.st1{fill:#F66BC6;}
</style>
<g>
	<path class="st0" d="M5.8,25.6l-2.3,1.5L3.2,15.8l9.9,5.6c-0.7,0.4-1.4,0.8-2.2,1.2c10.8,9.2,18.7-5.8,19.6-9.3
		C28.9,29.5,15.1,33.6,5.8,25.6z"/>
	<path class="st0" d="M25.7,5.3L28,3.8l0.3,11.3l-9.9-5.6c0.7-0.4,1.4-0.8,2.2-1.2C9.8-0.9,1.9,14.1,1,17.6
		C2.6,1.4,16.4-2.7,25.7,5.3z"/>
	<path class="st1" d="M4.8,24.6l-2.3,1.5L2.2,14.8l9.9,5.6c-0.7,0.4-1.4,0.8-2.2,1.2c10.8,9.2,18.7-5.8,19.6-9.3
		C27.9,28.5,14.1,32.6,4.8,24.6z"/>
	<path class="st1" d="M24.7,4.3L27,2.8l0.3,11.3l-9.9-5.6c0.7-0.4,1.4-0.8,2.2-1.2C8.8-1.9,0.9,13.1,0,16.6
		C1.6,0.4,15.4-3.7,24.7,4.3z"/>
</g>
</svg>
