<?xml version="1.0" standalone="no"?>
<!DOCTYPE svg PUBLIC "-//W3C//DTD SVG 1.1//EN" "http://www.w3.org/Graphics/SVG/1.1/DTD/svg11.dtd" >
<svg>
<metadata>
Created by FontForge 20090622 at Wed Jun 10 16:58:55 2020
 By deploy user
Copyright &#194;&#169; 2013 by Manuel Corradine &#38; Sergio Ramirez. All rights reserved. | wf-rip for educational purposes. for commercial purposes please buy it.
</metadata>
<defs>
<font id="NeuronAngled-Bold" horiz-adv-x="466" >
  <font-face 
    font-family="Neuron Angled"
    font-weight="700"
    font-stretch="normal"
    units-per-em="1000"
    panose-1="2 11 0 0 0 0 0 0 0 0"
    ascent="774"
    descent="-226"
    x-height="490"
    cap-height="622"
    bbox="-58 -242 892 876"
    underline-thickness="39"
    underline-position="-40"
    unicode-range="U+0020-U+F6C3"
  />
<missing-glyph horiz-adv-x="598" 
d="M58 0v630h482v-630h-482zM283 315l-154 -235l24 -16l147 225l147 -225l24 16l-154 235l154 235l-24 16l-147 -225l-147 225l-24 -16z" />
    <glyph glyph-name=".notdef" horiz-adv-x="598" 
d="M58 0v630h482v-630h-482zM283 315l-154 -235l24 -16l147 225l147 -225l24 16l-154 235l154 235l-24 16l-147 -225l-147 225l-24 -16z" />
    <glyph glyph-name=".null" horiz-adv-x="0" 
 />
    <glyph glyph-name="nonmarkingreturn" horiz-adv-x="333" 
 />
    <glyph glyph-name="space" unicode=" " horiz-adv-x="210" 
 />
    <glyph glyph-name="exclam" unicode="!" horiz-adv-x="216" 
d="M171 115v-115h-126v115h126zM170 165h-117v457h117v-457z" />
    <glyph glyph-name="quotedbl" unicode="&#x22;" horiz-adv-x="328" 
d="M128 400h-86q-19 142 -19 256h124q0 -114 -19 -256zM286 400h-86q-19 142 -19 256h124q0 -114 -19 -256z" />
    <glyph glyph-name="numbersign" unicode="#" 
d="M96 380h-74v86h74v125h98v-125h76v125h99v-125h75v-86h-75v-124h75v-86h-75v-131h-99v131h-76v-131h-98v131h-74v86h74v124zM270 380h-76v-124h76v124z" />
    <glyph glyph-name="dollar" unicode="$" 
d="M282 -2v-98h-111v94q-74 6 -130 22v104q85 -18 157 -18q65 0 87.5 15t22.5 57q0 30 -9.5 45t-37.5 28l-113 51q-57 26 -78.5 57.5t-21.5 97.5q0 157 142 171v88h111v-89q57 -8 107 -21v-102q-89 18 -155 18q-52 0 -68.5 -12t-16.5 -53q-1 -25 9 -36.5t41 -24.5l110 -49
q56 -25 77.5 -59.5t21.5 -102.5q0 -158 -145 -183z" />
    <glyph glyph-name="percent" unicode="%" horiz-adv-x="648" 
d="M450 622h112l-361 -622h-113zM40 480q0 86 25.5 115t99.5 29q73 0 98.5 -29t25.5 -115q0 -90 -23.5 -118t-100.5 -28q-76 0 -100.5 28t-24.5 118zM132 420q7 -13 33 -13q25 0 32 12.5t7 59.5t-7 59t-32 12t-32 -11.5t-7 -59.5q0 -45 6 -59zM359 144q0 87 25 115.5
t99 28.5t99.5 -29t25.5 -115q0 -88 -24.5 -117t-100.5 -29q-77 0 -100.5 28t-23.5 118zM522 143q0 48 -6.5 60t-32.5 12t-32.5 -12t-6.5 -60q0 -47 6.5 -59.5t32.5 -12.5t32.5 12.5t6.5 59.5z" />
    <glyph glyph-name="ampersand" unicode="&#x26;" horiz-adv-x="518" 
d="M333 435h100v-78h69v-90h-62v-250q-102 -24 -196 -24q-118 0 -163.5 34.5t-45.5 130.5q0 78 30.5 115t99.5 41q-57 7 -81.5 38.5t-24.5 105.5q0 94 40.5 131.5t130.5 37.5q86 0 170 -22v-104q-77 19 -144 19q-42 0 -56.5 -16t-14.5 -63q0 -51 18 -67.5t79 -16.5h51v78z
M250 94q29 0 83 8v165h-56q-72 0 -94.5 -18t-22.5 -70q0 -50 18 -67.5t72 -17.5z" />
    <glyph glyph-name="quotesingle" unicode="'" horiz-adv-x="170" 
d="M128 400h-86q-19 142 -19 256h124q0 -114 -19 -256z" />
    <glyph glyph-name="parenleft" unicode="(" horiz-adv-x="222" 
d="M159 309q0 -171 57 -366h-100q-82 160 -82 366q0 205 82 366h100q-57 -197 -57 -366z" />
    <glyph glyph-name="parenright" unicode=")" horiz-adv-x="222" 
d="M63 309q0 169 -57 366h100q82 -161 82 -366q0 -206 -82 -366h-100q57 195 57 366z" />
    <glyph glyph-name="asterisk" unicode="*" horiz-adv-x="408" 
d="M276 426q8 -4 15 -15l56 -78l-76 -56l-57 78q-7 7 -10 18q-3 -11 -10 -18l-57 -78l-76 56l56 78q7 11 15 15q-11 0 -20 3l-89 29l29 89l89 -28q13 -5 18 -9q-2 8 -2 21v96h94v-96q0 -5 -2 -21q6 6 18 9l89 28l29 -89l-89 -29q-9 -3 -20 -3z" />
    <glyph glyph-name="plus" unicode="+" 
d="M179 199h-119v96h119v132h108v-132h119v-96h-119v-132h-108v132z" />
    <glyph glyph-name="comma" unicode="," horiz-adv-x="180" 
d="M30 19v109h124v-72q0 -42 -18 -94l-32 -92h-88l9 74q5 38 5 75z" />
    <glyph glyph-name="hyphen" unicode="-" horiz-adv-x="328" 
d="M296 193h-264v108h264v-108z" />
    <glyph glyph-name="period" unicode="." horiz-adv-x="191" 
d="M160 128v-128h-127v128h127z" />
    <glyph glyph-name="slash" unicode="/" horiz-adv-x="278" 
d="M278 673l-164 -729h-113l164 729h113z" />
    <glyph glyph-name="zero" unicode="0" 
d="M233 -7q-113 0 -160.5 47.5t-47.5 178.5v164q0 77 11.5 125.5t39 74.5t63.5 35t94 9q59 0 94 -8.5t63 -34t39.5 -74t11.5 -127.5v-163q0 -132 -49 -179.5t-159 -47.5zM233 99q50 0 67.5 26.5t17.5 108.5v145q0 92 -15.5 117t-69.5 25q-52 0 -68.5 -25.5t-16.5 -116.5
v-145q0 -86 15.5 -110.5t69.5 -24.5z" />
    <glyph glyph-name="one" unicode="1" 
d="M409 0h-350v109h113v382q-57 -18 -115 -29v114q67 16 154 46h84v-513h114v-109z" />
    <glyph glyph-name="two" unicode="2" 
d="M182 134v-25h238v-109h-379v95q0 51 18 84.5t67 82.5l129 128q19 19 26 34t7 40q0 35 -16 45.5t-64 10.5q-52 0 -152 -16v103q103 20 181 20q91 0 133.5 -29.5t42.5 -120.5q1 -57 -17.5 -90t-83.5 -94l-101 -96q-29 -27 -29 -63z" />
    <glyph glyph-name="three" unicode="3" 
d="M230 -7q-76 0 -195 22v101q109 -16 172 -16q53 0 72.5 20t19.5 67q0 50 -26 67t-102 17h-35v97h38q60 0 86 20t26 65q0 40 -14 53.5t-58 13.5q-52 0 -161 -14v100q99 21 187 21q91 0 131.5 -34.5t40.5 -123.5q0 -63 -28.5 -102t-82.5 -46q66 -3 94.5 -37.5t28.5 -109.5
q0 -95 -47.5 -138t-146.5 -43z" />
    <glyph glyph-name="four" unicode="4" 
d="M389 142v-142h-124v142h-248v95l199 385h173v-377h54v-103h-54zM274 509h-6l-132 -264h138v264z" />
    <glyph glyph-name="five" unicode="5" 
d="M210 -7q-81 0 -157 24v100q81 -18 138 -18q63 0 84 17.5t21 68.5v34q0 44 -14.5 57.5t-58.5 13.5h-165v332h335v-109h-224v-120h86q41 0 65.5 -4.5t48.5 -20.5t35.5 -50.5t14.5 -89.5v-55q0 -105 -52 -142.5t-157 -37.5z" />
    <glyph glyph-name="six" unicode="6" 
d="M232 -7q-53 0 -86.5 9t-60.5 34.5t-39 74t-12 124.5v135q0 70 14 119.5t33.5 75.5t51 41t56.5 18t60 3q67 0 150 -18v-102q-79 14 -136 14q-66 0 -89 -27.5t-23 -126.5v-38q32 59 130 59q83 0 116.5 -38t33.5 -148q0 -119 -44.5 -164t-154.5 -45zM235 99q48 0 65 19
t17 75q0 59 -15.5 77t-65.5 18q-48 0 -66.5 -18t-18.5 -65q0 -67 16.5 -86.5t67.5 -19.5z" />
    <glyph glyph-name="seven" unicode="7" 
d="M419 536l-192 -536h-126l188 513h-254v109h384v-86z" />
    <glyph glyph-name="eight" unicode="8" 
d="M232 -7q-118 0 -160.5 40t-42.5 146q0 122 86 151q-72 30 -72 142q0 87 45.5 121t143.5 34q99 0 144.5 -34t45.5 -121q0 -112 -73 -142q88 -28 88 -151q0 -105 -43 -145.5t-162 -40.5zM314 191q0 56 -16 72.5t-66 16.5q-49 0 -65 -16.5t-16 -72.5q0 -60 15.5 -77
t65.5 -17t66 17.5t16 76.5zM232 377q45 0 57 13.5t12 64.5q0 46 -14 59t-55 13t-54.5 -13t-13.5 -59q0 -51 12.5 -64.5t55.5 -13.5z" />
    <glyph glyph-name="nine" unicode="9" 
d="M206 -7q-60 0 -148 20v102q83 -16 132 -16q78 0 100 28t22 128v32q-30 -56 -126 -56q-86 0 -118 36.5t-32 151.5q0 117 44 162.5t151 45.5q40 -1 66 -5t53.5 -18t43 -39.5t25.5 -70.5t10 -110v-132q0 -82 -16 -135.5t-49 -79.5t-69 -35t-89 -9zM228 331q48 0 66 17.5
t18 66.5q0 70 -15 89.5t-66 19.5q-49 0 -65 -19.5t-16 -79.5t13.5 -77t64.5 -17z" />
    <glyph glyph-name="colon" unicode=":" horiz-adv-x="199" 
d="M164 497v-128h-127v128h127zM164 128v-128h-127v128h127z" />
    <glyph glyph-name="semicolon" unicode=";" horiz-adv-x="179" 
d="M24 19v109h124v-72q0 -42 -18 -94l-32 -92h-88l9 74q5 38 5 75zM148 497v-128h-127v128h127z" />
    <glyph glyph-name="less" unicode="&#x3c;" 
d="M387 74l-325 109v154l325 110v-116l-225 -67v-7l225 -68v-115z" />
    <glyph glyph-name="equal" unicode="=" 
d="M406 112h-346v96h346v-96zM406 286h-346v96h346v-96z" />
    <glyph glyph-name="greater" unicode="&#x3e;" 
d="M78 446l325 -109v-154l-325 -110v116l225 67v7l-225 68v115z" />
    <glyph glyph-name="question" unicode="?" horiz-adv-x="367" 
d="M216 225v-60h-111v66q0 38 8 59t32 46l56 61q27 29 27 70q0 32 -14.5 42.5t-55.5 10.5q-54 0 -144 -18v104q88 21 175 21q84 0 124 -29t40 -104q0 -46 -11.5 -74.5t-40.5 -60.5l-64 -71q-22 -26 -21 -63zM224 115v-115h-126v115h126z" />
    <glyph glyph-name="at" unicode="@" horiz-adv-x="877" 
d="M450 -190q-126 0 -205 17.5t-130 62.5t-71 118t-20 189v76q0 110 19 184t66 126t126.5 75.5t200.5 23.5q160 0 252 -39.5t128.5 -116.5t36.5 -209v-77q0 -75 -13.5 -126t-40.5 -77.5t-58 -36.5t-73 -10q-56 0 -87.5 21t-47.5 71q-32 -92 -147 -92q-65 0 -96.5 20.5
t-44.5 73t-13 160.5q0 107 17.5 163t52.5 76t101 20q96 0 123 -75v65h111v-333q0 -81 48 -81q32 0 44.5 33t12.5 124v76q0 82 -11 130.5t-44.5 83.5t-92.5 48.5t-158 13.5q-94 0 -151.5 -15t-91.5 -53t-46 -92t-12 -143v-97q0 -55 6 -96t17 -71t32 -50.5t44 -33.5t60 -19.5
t74.5 -9t92.5 -2.5q99 0 201 12v-96q-130 -12 -212 -12zM428 93q52 0 70 25t18 103v56q0 75 -16 99t-66 24q-33 -1 -47.5 -11.5t-21 -42.5t-8.5 -106q0 -95 13 -121t58 -26z" />
    <glyph glyph-name="A" unicode="A" horiz-adv-x="528" 
d="M366 622l158 -622h-131l-39 157h-182l-37 -157h-130l158 622h203zM271 519h-14l-62 -262h137z" />
    <glyph glyph-name="B" unicode="B" horiz-adv-x="518" 
d="M52 4v612q115 11 195 11q121 0 165 -29.5t44 -122.5q0 -68 -17.5 -102.5t-60.5 -46.5q54 -11 77 -47t23 -111q0 -100 -47 -137.5t-177 -37.5q-98 0 -202 11zM175 522v-156h69q55 0 70.5 16t15.5 70q0 46 -14.5 59.5t-68.5 13.5q-37 0 -72 -3zM265 276h-90v-183
q48 -3 85 -3q61 0 76.5 16t15.5 77q0 56 -17 74.5t-70 18.5z" />
    <glyph glyph-name="C" unicode="C" horiz-adv-x="453" 
d="M425 120v-104q-94 -23 -170 -23q-43 0 -71.5 4.5t-58 19.5t-46.5 43t-28 76.5t-11 118.5v90q0 57 7 102t18 74.5t29.5 50t34.5 31t41.5 16.5t42.5 7t44 1q76 0 168 -22v-104q-83 17 -141 17q-51 0 -73.5 -12t-33.5 -49.5t-14 -119.5v-56q0 -45 2.5 -76t11 -51t15.5 -30.5
t25 -15.5t29.5 -5.5t39.5 -0.5q49 0 139 18z" />
    <glyph glyph-name="D" unicode="D" horiz-adv-x="529" 
d="M489 359v-76q0 -58 -6.5 -103t-17 -75.5t-29.5 -52t-36.5 -33t-45.5 -17.5t-49.5 -7.5t-55.5 -1.5q-92 0 -197 11v612q96 11 182 11q46 0 75 -2.5t61.5 -11t51.5 -26.5t36 -47t24 -74t7 -107zM366 283v72q0 107 -25 138.5t-102 31.5q-41 0 -64 -3v-418q41 -4 74 -4
q33 1 49.5 4t31.5 12t21 30t9.5 52t5.5 85z" />
    <glyph glyph-name="E" unicode="E" horiz-adv-x="455" 
d="M432 109v-109h-380v622h370v-109h-247v-139h185v-105h-185v-160h257z" />
    <glyph glyph-name="F" unicode="F" horiz-adv-x="430" 
d="M175 232v-232h-123v622h366v-109h-243v-176h181v-105h-181z" />
    <glyph glyph-name="G" unicode="G" horiz-adv-x="498" 
d="M350 113v135h-90v102h198v-323q-114 -34 -203 -34q-57 0 -91 8t-65 34t-45 79.5t-16 140.5v90q0 75 12 128.5t30.5 83t49.5 45.5t59 20.5t70 4.5q82 0 177 -22v-104q-94 17 -154 17q-72 0 -96.5 -33.5t-24.5 -147.5v-56q0 -80 10.5 -118t31 -49.5t63.5 -11.5q37 0 84 11z
" />
    <glyph glyph-name="H" unicode="H" horiz-adv-x="538" 
d="M486 622v-622h-123v270h-188v-270h-123v622h123v-246h188v246h123z" />
    <glyph glyph-name="I" unicode="I" horiz-adv-x="227" 
d="M175 622v-622h-123v622h123z" />
    <glyph glyph-name="J" unicode="J" horiz-adv-x="354" 
d="M179 174v448h124v-456q0 -90 -38.5 -131.5t-118.5 -41.5q-61 0 -133 18v101q61 -10 107 -10q35 0 47 14.5t12 57.5z" />
    <glyph glyph-name="K" unicode="K" horiz-adv-x="489" 
d="M175 273v-273h-123v622h123v-269h22l138 269h140l-172 -307l186 -315h-144q-76 150 -149 273h-21z" />
    <glyph glyph-name="L" unicode="L" horiz-adv-x="426" 
d="M412 109v-109h-360v622h123v-513h237z" />
    <glyph glyph-name="M" unicode="M" horiz-adv-x="648" 
d="M596 622v-622h-123v171q0 43 6 280h-5l-101 -290h-99l-101 290h-6q6 -240 6 -286v-165h-121v622h167l105 -311h4l102 311h166z" />
    <glyph glyph-name="N" unicode="N" horiz-adv-x="547" 
d="M493 622v-622h-116l-198 403h-9v-403h-118v622h124l190 -393h9v393h118z" />
    <glyph glyph-name="O" unicode="O" horiz-adv-x="536" 
d="M496 343v-72q0 -64 -6 -110.5t-21 -77t-31.5 -49t-46 -27.5t-55.5 -11.5t-68 -2.5q-69 0 -109 10t-68.5 40.5t-39.5 84t-11 143.5v72q0 79 10 132t26 83t47.5 45.5t62 19.5t82.5 4q94 0 139 -20.5t65.5 -79.5t23.5 -184zM373 283v54q-1 47 -2.5 73t-6.5 49t-10 32.5
t-18.5 17t-27 9.5t-40.5 3q-30 -1 -45 -5t-28.5 -12.5t-18.5 -30.5t-8.5 -52t-4.5 -84v-54q1 -47 2.5 -73t6.5 -49t10 -32.5t18.5 -17t27 -9.5t40.5 -3q30 1 45 5t28.5 12.5t18.5 30.5t8.5 52t4.5 84z" />
    <glyph glyph-name="P" unicode="P" horiz-adv-x="495" 
d="M175 212v-212h-123v616q132 11 200 11q123 0 167.5 -39.5t44.5 -160.5q0 -120 -54 -167.5t-180 -47.5h-55zM175 522v-210h54q66 0 87 22.5t21 89.5q0 60 -18.5 80.5t-71.5 20.5q-36 0 -72 -3z" />
    <glyph glyph-name="Q" unicode="Q" horiz-adv-x="536" 
d="M496 343v-72q0 -113 -21.5 -173t-67.5 -84l80 -126h-123l-62 106q-7 -1 -34 -1q-69 0 -109 10t-68.5 40.5t-39.5 84t-11 143.5v72q0 79 10 132t26 83t47.5 45.5t62 19.5t82.5 4q94 0 139 -20.5t65.5 -79.5t23.5 -184zM373 283v54q-1 47 -2.5 73t-6.5 49t-10 32.5
t-18.5 17t-27 9.5t-40.5 3q-30 -1 -45 -5t-28.5 -12.5t-18.5 -30.5t-8.5 -52t-4.5 -84v-54q1 -47 2.5 -73t6.5 -49t10 -32.5t18.5 -17t27 -9.5t40.5 -3q30 1 45 5t28.5 12.5t18.5 30.5t8.5 52t4.5 84z" />
    <glyph glyph-name="R" unicode="R" horiz-adv-x="508" 
d="M377 261l114 -261h-136l-85 239h-95v-239h-123v616q130 11 204 11q120 0 164 -36.5t44 -148.5q0 -140 -87 -181zM175 522v-190h65q59 0 78 21t19 82q0 53 -19 71.5t-71 18.5q-45 0 -72 -3z" />
    <glyph glyph-name="S" unicode="S" horiz-adv-x="457" 
d="M257 247l-113 51q-57 26 -78.5 57.5t-21.5 97.5q0 94 46.5 134t138.5 40q88 0 175 -25v-102q-88 18 -155 18q-52 0 -68.5 -12t-16.5 -53q-1 -25 9 -36.5t41 -24.5l110 -49q56 -25 77.5 -59.5t21.5 -102.5q0 -101 -54 -144.5t-161 -43.5q-87 0 -171 23v104q85 -18 157 -18
q65 0 87.5 15t22.5 57q0 30 -9.5 45t-37.5 28z" />
    <glyph glyph-name="T" unicode="T" horiz-adv-x="450" 
d="M286 513v-513h-123v513h-150v109h424v-109h-151z" />
    <glyph glyph-name="U" unicode="U" horiz-adv-x="528" 
d="M353 183v439h123v-437q0 -107 -48 -149.5t-164 -42.5t-164 42.5t-48 149.5v437h123v-439q0 -48 19 -66.5t70 -18.5t70 18.5t19 66.5z" />
    <glyph glyph-name="V" unicode="V" horiz-adv-x="511" 
d="M500 622l-152 -622h-189l-148 622h128l109 -507h14l110 507h128z" />
    <glyph glyph-name="W" unicode="W" horiz-adv-x="714" 
d="M698 622l-77 -622h-184l-78 380h-10l-79 -380h-177l-77 622h129l51 -490h10l85 434h133l88 -434h10l52 490h124z" />
    <glyph glyph-name="X" unicode="X" horiz-adv-x="500" 
d="M314 320l183 -320h-135l-111 211h-4l-110 -211h-135l183 320l-169 302h137l94 -188h6l93 188h137z" />
    <glyph glyph-name="Y" unicode="Y" horiz-adv-x="479" 
d="M301 217v-217h-123v217l-175 405h137l97 -269h5l98 269h136z" />
    <glyph glyph-name="Z" unicode="Z" horiz-adv-x="434" 
d="M413 109v-109h-393v103l253 410h-235v109h371v-103l-253 -410h257z" />
    <glyph glyph-name="bracketleft" unicode="[" horiz-adv-x="264" 
d="M156 47h96v-99h-213v722h209v-99h-92v-524z" />
    <glyph glyph-name="backslash" unicode="\" horiz-adv-x="278" 
d="M114 673l164 -729h-113l-164 729h113z" />
    <glyph glyph-name="bracketright" unicode="]" horiz-adv-x="264" 
d="M225 -52h-213v99h96v524h-92v99h209v-722z" />
    <glyph glyph-name="asciicircum" unicode="^" 
d="M159 347h-114l116 275h146l118 -275h-117l-71 175h-7z" />
    <glyph glyph-name="underscore" unicode="_" horiz-adv-x="499" 
d="M474 -132h-449v108h449v-108z" />
    <glyph glyph-name="grave" unicode="`" horiz-adv-x="235" 
d="M163 706l52 -171h-107l-88 171h143z" />
    <glyph glyph-name="a" unicode="a" horiz-adv-x="486" 
d="M161 -10q-67 0 -98 34.5t-31 112.5q0 81 42.5 115t148.5 34h83v44q0 44 -15.5 56.5t-64.5 12.5q-36 0 -162 -18v102q103 20 179 20q104 0 144 -29t40 -112v-168q0 -58 9 -105l16 -89h-111l-22 85q-39 -95 -158 -95zM205 88q45 0 73 26t28 75v26q-80 -2 -111 -8
t-38.5 -16.5t-7.5 -40.5q0 -38 11.5 -50t44.5 -12z" />
    <glyph glyph-name="b" unicode="b" horiz-adv-x="512" 
d="M263 -10q-99 0 -214 27v637h123v-222q39 71 141 71q67 -2 97.5 -20.5t44 -69t15.5 -160.5q0 -153 -47 -208t-160 -55zM253 91q57 0 74.5 29.5t17.5 124.5q0 101 -14.5 128t-62.5 27q-58 0 -78.5 -32t-20.5 -127v-140q41 -10 84 -10z" />
    <glyph glyph-name="c" unicode="c" horiz-adv-x="431" 
d="M249 -10q-44 0 -74 5t-57 20.5t-42.5 43.5t-24.5 73.5t-9 110.5q0 71 10 120t26 76t44 42t53.5 18.5t66.5 3.5q82 0 157 -19v-102q-95 16 -138 16q-30 0 -44.5 -3t-28.5 -16.5t-19 -43.5t-5 -81q0 -104 16.5 -131.5t78.5 -27.5q54 0 141 17v-102q-98 -20 -151 -20z" />
    <glyph glyph-name="d" unicode="d" horiz-adv-x="522" 
d="M344 654h123v-460q0 -62 8 -105l16 -89h-110l-20 77q-35 -87 -155 -87q-98 0 -131 49t-33 199q0 110 20 168t56.5 77.5t104.5 19.5q93 0 121 -57v208zM248 93q55 0 76.5 26.5t21.5 102.5v50q0 76 -18.5 102t-73.5 26t-71 -28t-16 -132q0 -96 14.5 -121.5t66.5 -25.5z" />
    <glyph glyph-name="e" unicode="e" horiz-adv-x="477" 
d="M42 243q0 71 10 119.5t25.5 76t44.5 42t56.5 18.5t72.5 4q114 0 151 -50.5t37 -182.5v-56h-275q1 -76 19 -97t81 -21t167 17v-103q-91 -20 -174 -20q-60 0 -98 10t-66 37t-39.5 77t-11.5 129zM249 400q-49 0 -66.5 -20t-18.5 -90h159q0 68 -13 89t-61 21z" />
    <glyph glyph-name="f" unicode="f" horiz-adv-x="322" 
d="M86 394h-64v96h64v54q0 71 29 99.5t94 28.5q43 0 110 -12v-94q-48 6 -79 6q-23 0 -30 -9t-7 -39v-34h104v-96h-98v-394h-123v394z" />
    <glyph glyph-name="g" unicode="g" horiz-adv-x="518" 
d="M463 296v-249q0 -76 -16.5 -125.5t-50.5 -74.5t-73 -34t-96 -9q-99 0 -168 22v100q80 -16 153 -16q81 0 104.5 27.5t23.5 111.5q-38 -59 -141 -59q-66 0 -98 21.5t-45.5 75.5t-13.5 163q0 104 20 159t58 74.5t109 19.5q104 0 132 -73l16 60h111l-16 -89q-9 -47 -9 -105z
M167 240q0 -96 14.5 -121.5t66.5 -25.5q55 0 76.5 26.5t21.5 102.5v50q0 76 -18.5 102t-73.5 26t-71 -28t-16 -132z" />
    <glyph glyph-name="h" unicode="h" horiz-adv-x="505" 
d="M172 0h-123v654h123v-216q39 65 144 65q78 0 108 -31.5t30 -107.5v-364h-124v334q0 36 -12 49.5t-47 13.5q-55 0 -77 -36.5t-22 -124.5v-236z" />
    <glyph glyph-name="i" unicode="i" horiz-adv-x="224" 
d="M172 490v-490h-123v490h123zM175 654v-102h-130v102h130z" />
    <glyph glyph-name="j" unicode="j" horiz-adv-x="225" 
d="M49 -43v533h123v-559q0 -67 -29 -97t-88 -30q-50 0 -113 10v100q41 -4 72 -4q21 0 28 9t7 38zM175 654v-102h-130v102h130z" />
    <glyph glyph-name="k" unicode="k" horiz-adv-x="463" 
d="M172 219v-219h-123v654h123v-358h11l126 197h145l-162 -235l174 -258h-144l-139 219h-11z" />
    <glyph glyph-name="l" unicode="l" horiz-adv-x="224" 
d="M172 654v-654h-123v654h123z" />
    <glyph glyph-name="m" unicode="m" horiz-adv-x="777" 
d="M182 0h-123v296q0 56 -9 104l-16 90h111l19 -76q35 89 153 89q57 0 87.5 -17.5t41.5 -55.5q36 73 142 73q77 0 107 -31.5t30 -107.5v-364h-123v334q0 36 -12 49.5t-47 13.5q-52 0 -70.5 -34t-18.5 -127v-236h-124v334q0 36 -12 49.5t-47 13.5q-52 0 -70.5 -34t-18.5 -127
v-236z" />
    <glyph glyph-name="n" unicode="n" horiz-adv-x="515" 
d="M182 0h-123v296q0 56 -9 104l-16 90h111l21 -82q41 95 161 95q77 0 107 -31.5t30 -107.5v-364h-124v334q0 36 -12 49.5t-47 13.5q-55 0 -77 -36.5t-22 -124.5v-236z" />
    <glyph glyph-name="o" unicode="o" horiz-adv-x="504" 
d="M244 -10q-83 2 -122.5 21t-58 71t-21.5 161q2 84 12.5 133t37 78t64 38.5t104.5 10.5q80 0 121.5 -19.5t61 -72.5t19.5 -158q0 -157 -45.5 -210t-172.5 -53zM248 93q58 0 73.5 27t15.5 125q0 101 -14.5 128t-66.5 27q-58 0 -74 -26.5t-16 -122.5q0 -102 14.5 -130
t67.5 -28z" />
    <glyph glyph-name="p" unicode="p" horiz-adv-x="526" 
d="M50 400l-16 90h111l18 -72q40 85 156 85q98 0 131.5 -49.5t33.5 -198.5q0 -107 -18.5 -164.5t-56 -79t-106.5 -21.5q-93 0 -121 51v-226h-123v481q0 56 -9 104zM271 93q25 1 37.5 4t24 11t15.5 27t7 45t4 73q0 94 -15.5 120.5t-66.5 26.5q-54 0 -75.5 -27.5t-21.5 -106.5
v-45q0 -78 17.5 -103t73.5 -25z" />
    <glyph glyph-name="q" unicode="q" horiz-adv-x="518" 
d="M229 503q104 0 132 -73l16 60h111l-16 -90q-9 -48 -9 -104v-481h-123v234q-38 -59 -141 -59q-66 0 -98 21.5t-45.5 75.5t-13.5 163q0 104 20 159t58 74.5t109 19.5zM241 93q58 0 79 24t21 102v52q0 76 -19 102.5t-71 26.5q-32 -1 -46.5 -5t-25.5 -21t-13.5 -43.5
t-4.5 -81.5q0 -70 7 -102t22.5 -43t50.5 -11z" />
    <glyph glyph-name="r" unicode="r" horiz-adv-x="362" 
d="M182 0h-123v296q0 56 -9 104l-16 90h111l18 -71q37 81 121 81q37 0 64 -10v-106q-36 7 -67 7q-51 0 -75 -41.5t-24 -128.5v-221z" />
    <glyph glyph-name="s" unicode="s" horiz-adv-x="439" 
d="M210 -10q-79 0 -169 21v102q91 -17 158 -17q47 0 62.5 10.5t15.5 40.5q0 28 -31 41l-115 49q-41 17 -58.5 44t-17.5 76q0 146 169 146q68 0 165 -18v-103q-95 19 -150 19q-34 0 -46.5 -10t-12.5 -33q0 -16 5 -23.5t20 -13.5l117 -47q44 -18 61.5 -46t17.5 -77
q0 -85 -47.5 -123t-143.5 -38z" />
    <glyph glyph-name="t" unicode="t" horiz-adv-x="332" 
d="M86 394h-68v96h68v106h123v-106h101v-96h-101v-252q0 -28 7 -36t32 -8t64 10v-102q-64 -16 -113 -16q-61 0 -87 28.5t-26 98.5v277z" />
    <glyph glyph-name="u" unicode="u" horiz-adv-x="507" 
d="M329 490h123v-296q0 -58 9 -105l16 -89h-111l-21 79q-39 -89 -161 -89q-75 0 -105 30t-30 103v367h123v-336q0 -35 11.5 -46.5t47.5 -11.5q55 0 76.5 36t21.5 125v233z" />
    <glyph glyph-name="v" unicode="v" horiz-adv-x="468" 
d="M458 490l-135 -490h-181l-132 490h131l87 -380h11l88 380h131z" />
    <glyph glyph-name="w" unicode="w" horiz-adv-x="692" 
d="M342 294l-57 -294h-188l-89 490h133l56 -380h12l68 363h138l68 -363h12l56 380h133l-89 -490h-189l-56 294h-8z" />
    <glyph glyph-name="x" unicode="x" horiz-adv-x="455" 
d="M300 259l150 -259h-141l-81 165h-4l-79 -165h-137l145 251l-139 239h142l71 -139h4l68 139h143z" />
    <glyph glyph-name="y" unicode="y" horiz-adv-x="469" 
d="M137 0l-129 490h134l84 -388h11l91 388h134l-145 -523q-26 -97 -60 -130t-113 -33q-59 0 -117 16v99q64 -10 104 -10q38 0 52 10.5t22 42.5l9 38h-77z" />
    <glyph glyph-name="z" unicode="z" horiz-adv-x="401" 
d="M156 102h222v-102h-358v101l221 287h-201v102h338v-96z" />
    <glyph glyph-name="braceleft" unicode="{" horiz-adv-x="323" 
d="M95 476v79q0 63 23 92t78 29q36 0 115 -12v-97q-53 5 -70 5q-19 0 -24.5 -7t-5.5 -28q0 -11 1 -67.5t1 -66.5q0 -77 -52 -92v-4q52 -16 52 -92q0 -11 -1 -67.5t-1 -66.5q0 -21 5.5 -28t24.5 -7q18 0 70 5v-97q-79 -12 -115 -12q-55 0 -78 29t-23 92v79q0 18 0.5 43
t0.5 32q0 44 -36 44h-30v95h30q36 0 36 45q1 9 0 35t-1 40z" />
    <glyph glyph-name="bar" unicode="|" horiz-adv-x="181" 
d="M140 673v-858h-98v858h98z" />
    <glyph glyph-name="braceright" unicode="}" horiz-adv-x="323" 
d="M229 63q0 -63 -23 -92t-79 -29q-35 0 -115 12v97q53 -5 71 -5t24 7t6 28q0 10 -1 66.5t-1 67.5q0 77 51 92v5q-51 15 -51 91q0 10 1 66.5t1 67.5q0 21 -6 28t-24 7t-71 -5v97q80 12 115 12q56 0 79 -29t23 -92q0 -17 -1 -78.5t-1 -74.5q0 -45 36 -45h30v-95h-30
q-36 0 -36 -45q0 -14 1 -75.5t1 -78.5z" />
    <glyph glyph-name="asciitilde" unicode="~" 
d="M303 186q-14 0 -74.5 11t-70.5 11q-38 0 -98 -22v96q60 26 104 26q14 0 74 -11t70 -11q38 0 98 22v-96q-60 -26 -103 -26z" />
    <glyph glyph-name="exclamdown" unicode="&#xa1;" horiz-adv-x="216" 
d="M45 507v115h126v-115h-126zM46 457h117v-457h-117v457z" />
    <glyph glyph-name="cent" unicode="&#xa2;" 
d="M305 87v-87h-105v88q-76 10 -111 61t-35 160q0 115 35 165.5t111 61.5v86h105v-86q36 -3 100 -17v-100q-76 19 -141 19q-50 0 -69 -24.5t-19 -95.5q0 -82 17.5 -106.5t74.5 -24.5q46 0 138 18v-100q-53 -14 -101 -18z" />
    <glyph glyph-name="sterling" unicode="&#xa3;" 
d="M211 349h118v-80h-118v-14q0 -102 -29 -146h245v-109h-379v93q43 49 43 132v44h-65v80h65v105q0 99 38.5 136t120.5 37q77 0 165 -20v-102q-65 13 -122 13q-50 0 -66 -14.5t-16 -61.5v-93z" />
    <glyph glyph-name="currency" unicode="&#xa4;" 
d="M309 469h96l-43 -98q35 -35 35 -126t-35 -126l43 -98h-97l-27 65q-38 -2 -48 -2q-11 0 -49 2l-27 -65h-95l41 98q-34 34 -34 126t34 126l-41 98h96l26 -66q21 3 49 3q27 0 49 -3zM168 246q0 -53 11.5 -67.5t53.5 -14.5t53.5 15t11.5 67q0 50 -12.5 65t-52.5 15t-52.5 -14
t-12.5 -66z" />
    <glyph glyph-name="yen" unicode="&#xa5;" 
d="M171 227h-125v80h105l-154 315h141l92 -245h6l93 245h140l-154 -315h106v-80h-126v-53h125v-79h-125v-95h-124v95h-124v79h124v53z" />
    <glyph glyph-name="brokenbar" unicode="&#xa6;" horiz-adv-x="181" 
d="M140 195v-381h-98v381h98zM140 673v-380h-98v380h98z" />
    <glyph glyph-name="section" unicode="&#xa7;" horiz-adv-x="451" 
d="M230 519q-39 0 -53 -12t-14 -44q0 -22 7 -33.5t27 -19.5l114 -45q61 -25 84 -56t23 -90q0 -73 -43 -109q24 -18 34 -46t10 -79q0 -95 -54 -138t-161 -43q-76 0 -169 21v104q109 -20 160 -20q58 0 81.5 15.5t23.5 54.5q0 28 -9 41t-39 25l-112 45q-58 23 -79.5 51
t-21.5 87q0 81 46 115q-42 35 -42 119q0 90 47 127.5t132 37.5q91 0 178 -24v-103q-99 19 -170 19zM154 244q0 -25 10 -37.5t36 -22.5l84 -33q19 19 19 53q0 27 -10 40.5t-41 25.5l-78 31q-20 -20 -20 -57z" />
    <glyph glyph-name="dieresis" unicode="&#xa8;" horiz-adv-x="342" 
d="M146 654v-102h-121v102h121zM312 654v-102h-121v102h121z" />
    <glyph glyph-name="copyright" unicode="&#xa9;" horiz-adv-x="890" 
d="M445 -48q70 0 121 8.5t86.5 28.5t58 47t34.5 71t16.5 92.5t4.5 118.5q0 57 -2.5 97t-10.5 80t-23 66.5t-38.5 50.5t-57.5 37.5t-81 21t-108 7.5q-69 0 -120 -8.5t-86.5 -28.5t-58 -46.5t-35.5 -69.5t-17.5 -91t-4.5 -116q0 -87 7.5 -143.5t27 -101.5t57 -69.5t92.5 -37
t138 -14.5zM629 -113q-76 -21 -184 -21t-184 20.5t-122 55.5t-72 94t-34.5 123t-8.5 156q0 77 6.5 134t23 110.5t46.5 89t76 63t113 40t156 12.5q78 0 139 -10.5t105 -29t75.5 -49t51 -65.5t31 -83.5t15.5 -97.5t4 -114q0 -95 -9.5 -160t-34.5 -121t-72.5 -91.5
t-120.5 -55.5zM452 60q-42 0 -70.5 5t-55 20t-41.5 42.5t-24 73.5t-9 112q0 60 6.5 104t20.5 72t29.5 45.5t41.5 25.5t48 10.5t56 2.5q68 0 154 -19v-99q-90 13 -137 13q-30 0 -44.5 -3t-28.5 -16.5t-19 -43.5t-5 -81q1 -48 3.5 -72t7 -43.5t16.5 -26.5t25.5 -10.5
t41.5 -5.5q52 0 140 15v-102q-86 -19 -156 -19z" />
    <glyph glyph-name="ordfeminine" unicode="&#xaa;" horiz-adv-x="367" 
d="M126 247q-53 0 -76.5 26t-23.5 84q0 61 31 87t109 26h62v15q0 35 -10.5 46t-42.5 11q-36 0 -125 -16v83q70 18 136 18q77 0 107 -23t30 -87v-93q0 -57 6 -93l12 -73h-89l-14 58q-26 -69 -112 -69zM159 325q69 0 69 79v6l-67 -2q-25 -1 -33 -9.5t-8 -32.5t8.5 -32.5
t30.5 -8.5z" />
    <glyph glyph-name="guillemotleft" unicode="&#xab;" horiz-adv-x="612" 
d="M325 179v130l261 163v-113l-141 -110v-8l141 -107v-116zM28 178v131l265 163v-113l-146 -109v-8l146 -108v-116z" />
    <glyph glyph-name="logicalnot" unicode="&#xac;" 
d="M406 332v-220h-109v117h-237v103h346z" />
    <glyph glyph-name="registered" unicode="&#xae;" horiz-adv-x="890" 
d="M629 -113q-76 -21 -184 -21t-184 20.5t-122 55.5t-72 94t-34.5 123t-8.5 156q0 77 6.5 134t23 110.5t46.5 89t76 63t113 40t156 12.5q78 0 139 -10.5t105 -29t75.5 -49t51 -65.5t31 -83.5t15.5 -97.5t4 -114q0 -95 -9.5 -160t-34.5 -121t-72.5 -91.5t-120.5 -55.5z
M445 -48q70 0 121 8.5t86.5 28.5t58 47t34.5 71t16.5 92.5t4.5 118.5q0 57 -2.5 97t-10.5 80t-23 66.5t-38.5 50.5t-57.5 37.5t-81 21t-108 7.5q-69 0 -120 -8.5t-86.5 -28.5t-58 -46.5t-35.5 -69.5t-17.5 -91t-4.5 -116q0 -87 7.5 -143.5t27 -101.5t57 -69.5t92.5 -37
t138 -14.5zM383 254v-184h-124v492q120 13 199 13q108 0 147.5 -33t39.5 -133q0 -57 -17.5 -89.5t-55.5 -47.5l99 -202h-135l-69 184h-84zM383 470v-131h58q53 0 67.5 13.5t14.5 60.5q0 38 -13.5 49.5t-60.5 11.5q-34 0 -66 -4z" />
    <glyph glyph-name="overscore" unicode="&#xaf;" horiz-adv-x="272" 
d="M249 552h-225v95h225v-95z" />
    <glyph glyph-name="degree" unicode="&#xb0;" horiz-adv-x="404" 
d="M201 413q33 0 42 11t9 53q0 39 -9 50t-40 11q-34 0 -43 -11t-9 -53q0 -39 9.5 -50t40.5 -11zM201 324q-91 0 -120 30t-29 122q0 91 30.5 121t120.5 30q88 0 118 -30t30 -119q0 -93 -29 -123.5t-121 -30.5z" />
    <glyph glyph-name="plusminus" unicode="&#xb1;" 
d="M182 274h-105v88h105v110h101v-110h105v-88h-105v-110h-101v110zM375 26h-284v95h284v-95z" />
    <glyph glyph-name="twosuperior" unicode="&#xb2;" horiz-adv-x="347" 
d="M235 452l-77 -85h144v-84h-266v75l122 129q30 31 30 57q0 22 -9 29t-35 7t-93 -12v78q57 16 119 16q27 0 45.5 -3t37 -12t27.5 -28.5t9 -49.5q0 -38 -10 -58.5t-44 -58.5z" />
    <glyph glyph-name="threesuperior" unicode="&#xb3;" horiz-adv-x="351" 
d="M169 276q-59 0 -125 17v80q65 -14 101 -14q31 0 43 8.5t12 32.5q0 25 -14.5 33t-63.5 8h-20v65h20q45 0 59 7.5t14 32.5q0 21 -9.5 27.5t-38.5 6.5q-28 0 -96 -13v78q66 17 123 17q60 0 89 -20t29 -73q0 -88 -70 -98q81 0 81 -84q0 -62 -34.5 -86.5t-99.5 -24.5z" />
    <glyph glyph-name="acute" unicode="&#xb4;" horiz-adv-x="235" 
d="M216 706l-89 -171h-106l52 171h143z" />
    <glyph glyph-name="mu" unicode="&#xb5;" horiz-adv-x="495" 
d="M320 257v233h123v-296q0 -58 9 -105l16 -89h-111l-21 79q-39 -89 -155 -89h-18v-175h-124v675h124v-336q0 -35 11.5 -46.5t47.5 -11.5q55 0 76.5 36t21.5 125z" />
    <glyph glyph-name="paragraph" unicode="&#xb6;" horiz-adv-x="609" 
d="M264 -196q-81 0 -156 19v101q92 -14 145 -14q76 0 96.5 25.5t20.5 111.5v466h-52v-342q-64 -15 -117 -15q-84 0 -115 47.5t-31 180.5q0 137 34 187.5t124 50.5h356v-109h-76v-466q0 -73 -14.5 -121.5t-45.5 -75t-70.5 -36.5t-98.5 -10z" />
    <glyph glyph-name="middot" unicode="&#xb7;" horiz-adv-x="210" 
d="M169 311v-128h-127v128h127z" />
    <glyph glyph-name="cedilla" unicode="&#xb8;" horiz-adv-x="248" 
d="M114 -227q-34 0 -90 12v87q53 -8 74 -8q22 0 22 12q0 4 -32 28t-32 46q0 27 20 70h83q-13 -32 -13 -46q0 -10 18 -21q34 -20 47.5 -36t13.5 -45q0 -50 -26.5 -74.5t-84.5 -24.5z" />
    <glyph glyph-name="onesuperior" unicode="&#xb9;" horiz-adv-x="345" 
d="M303 283h-244v84h73v194q-30 -11 -76 -20v82q58 14 108 37h64v-293h75v-84z" />
    <glyph glyph-name="ordmasculine" unicode="&#xba;" horiz-adv-x="383" 
d="M185 246q-42 0 -67 6t-46 24.5t-30 57t-9 100.5q0 119 34.5 156t130.5 37q86 0 119 -36t33 -149q0 -118 -35.5 -157t-129.5 -39zM187 328q39 0 50.5 19t11.5 88q0 71 -11 91t-44 20q-38 0 -49.5 -17.5t-11.5 -87.5q0 -74 10 -93.5t44 -19.5z" />
    <glyph glyph-name="guillemotright" unicode="&#xbb;" horiz-adv-x="612" 
d="M290 311v-130l-261 -163v113l142 110v8l-142 107v116zM588 312v-131l-266 -163v113l146 109v8l-146 108v116z" />
    <glyph glyph-name="onequarter" unicode="&#xbc;" horiz-adv-x="787" 
d="M709 75v-75h-97v75h-168v74l132 231h133v-230h46v-75h-46zM331 0h-98l228 624h98zM285 253h-243v85h73v193q-40 -12 -77 -19v82q60 15 109 37h64v-293h74v-85zM617 150v152l-85 -152h85z" />
    <glyph glyph-name="onehalf" unicode="&#xbd;" horiz-adv-x="783" 
d="M331 0h-98l228 624h98zM285 253h-243v85h73v193q-40 -12 -77 -19v82q60 15 109 37h64v-293h74v-85zM757 0h-266v77l122 128q29 31 29 57q0 21 -9.5 28t-34.5 7q-13 0 -92 -11v78q63 16 119 16q61 0 90 -20t29 -73q0 -39 -10 -60.5t-44 -57.5l-78 -84h145v-85z" />
    <glyph glyph-name="threequarters" unicode="&#xbe;" horiz-adv-x="769" 
d="M692 75v-75h-98v75h-167v74l132 231h133v-230h46v-75h-46zM149 247q-59 0 -125 17v80q65 -14 101 -14q31 0 43 8.5t12 32.5q0 25 -14.5 32.5t-63.5 7.5h-20v65h20q45 0 59 7.5t14 32.5q0 21 -9.5 27.5t-38.5 6.5q-40 0 -96 -13v79q66 17 122 17q61 0 90 -20t29 -74
q0 -87 -70 -97q81 0 81 -84q0 -62 -34.5 -86.5t-99.5 -24.5zM313 0h-98l228 624h98zM600 150v152l-86 -152h86z" />
    <glyph glyph-name="questiondown" unicode="&#xbf;" horiz-adv-x="367" 
d="M151 394v60h111v-66q0 -37 -8.5 -58t-31.5 -47l-56 -61q-27 -30 -27 -70q0 -32 14.5 -42.5t55.5 -10.5q54 0 144 18v-104q-89 -21 -175 -21q-84 0 -124 29t-40 104q0 46 11.5 74.5t40.5 60.5l64 71q22 26 21 63zM143 504v115h126v-115h-126z" />
    <glyph glyph-name="Agrave" unicode="&#xc0;" horiz-adv-x="528" 
d="M366 622l158 -622h-131l-39 157h-182l-37 -157h-130l158 622h203zM271 519h-14l-62 -262h137zM273 833l52 -171h-107l-88 171h143z" />
    <glyph glyph-name="Aacute" unicode="&#xc1;" horiz-adv-x="528" 
d="M366 622l158 -622h-131l-39 157h-182l-37 -157h-130l158 622h203zM271 519h-14l-62 -262h137zM401 833l-89 -171h-106l52 171h143z" />
    <glyph glyph-name="Acircumflex" unicode="&#xc2;" horiz-adv-x="528" 
d="M366 622l158 -622h-131l-39 157h-182l-37 -157h-130l158 622h203zM271 519h-14l-62 -262h137zM104 662l99 171h123l99 -171h-105l-53 77h-6l-53 -77h-104z" />
    <glyph glyph-name="Atilde" unicode="&#xc3;" horiz-adv-x="528" 
d="M366 622l158 -622h-131l-39 157h-182l-37 -157h-130l158 622h203zM271 519h-14l-62 -262h137zM335 773q24 0 72 14v-86q-44 -26 -89 -26q-16 0 -64.5 11.5t-59.5 11.5q-24 0 -72 -14v86q44 25 89 25q16 0 64.5 -11t59.5 -11z" />
    <glyph glyph-name="Adieresis" unicode="&#xc4;" horiz-adv-x="528" 
d="M366 622l158 -622h-131l-39 157h-182l-37 -157h-130l158 622h203zM271 519h-14l-62 -262h137zM242 787v-102h-121v102h121zM408 787v-102h-121v102h121z" />
    <glyph glyph-name="Aring" unicode="&#xc5;" horiz-adv-x="528" 
d="M366 622l158 -622h-131l-39 157h-182l-37 -157h-130l158 622h203zM271 519h-14l-62 -262h137zM264 876q72 0 102 -24.5t30 -86.5t-30 -86t-102 -24t-101.5 24t-29.5 86t30 86.5t101 24.5zM264 799q-27 0 -36.5 -7.5t-9.5 -27.5t9 -26.5t37 -6.5q29 0 38 6.5t9 27.5
t-9 27.5t-38 6.5z" />
    <glyph glyph-name="AE" unicode="&#xc6;" horiz-adv-x="732" 
d="M709 109v-109h-381v163h-155l-38 -163h-130l158 622h536v-109h-248v-139h186v-110h-186v-155h258zM328 519h-71l-62 -262h133v262z" />
    <glyph glyph-name="Ccedilla" unicode="&#xc7;" horiz-adv-x="453" 
d="M244 -227q-34 0 -90 12v87q53 -8 74 -8q22 0 22 12q0 4 -32 28t-32 46q0 20 9 46q-80 8 -117.5 65t-37.5 194v90q0 57 7 102t18 74.5t29.5 50t34.5 31t41.5 16.5t42.5 7t44 1q76 0 168 -22v-104q-83 17 -141 17q-51 0 -73.5 -12t-33.5 -49.5t-14 -119.5v-56
q0 -45 2.5 -76t11 -51t15.5 -30.5t25 -15.5t29.5 -5.5t39.5 -0.5q49 0 139 18v-104q-68 -17 -146 -22q-3 -14 -3 -20q0 -10 18 -21q35 -19 48 -35.5t13 -45.5q0 -52 -27 -75.5t-84 -23.5z" />
    <glyph glyph-name="Egrave" unicode="&#xc8;" horiz-adv-x="455" 
d="M432 109v-109h-380v622h370v-109h-247v-139h185v-105h-185v-160h257zM254 833l52 -171h-107l-88 171h143z" />
    <glyph glyph-name="Eacute" unicode="&#xc9;" horiz-adv-x="455" 
d="M432 109v-109h-380v622h370v-109h-247v-139h185v-105h-185v-160h257zM361 833l-89 -171h-106l52 171h143z" />
    <glyph glyph-name="Ecircumflex" unicode="&#xca;" horiz-adv-x="455" 
d="M432 109v-109h-380v622h370v-109h-247v-139h185v-105h-185v-160h257zM76 662l99 171h123l99 -171h-105l-53 77h-6l-53 -77h-104z" />
    <glyph glyph-name="Edieresis" unicode="&#xcb;" horiz-adv-x="455" 
d="M432 109v-109h-380v622h370v-109h-247v-139h185v-105h-185v-160h257zM215 781v-102h-121v102h121zM381 781v-102h-121v102h121z" />
    <glyph glyph-name="Igrave" unicode="&#xcc;" horiz-adv-x="227" 
d="M175 622v-622h-123v622h123zM120 833l52 -171h-107l-88 171h143z" />
    <glyph glyph-name="Iacute" unicode="&#xcd;" horiz-adv-x="227" 
d="M175 622v-622h-123v622h123zM251 833l-89 -171h-106l52 171h143z" />
    <glyph glyph-name="Icircumflex" unicode="&#xce;" horiz-adv-x="227" 
d="M-47 662l99 171h123l99 -171h-105l-53 77h-6l-53 -77h-104zM175 622v-622h-123v622h123z" />
    <glyph glyph-name="Idieresis" unicode="&#xcf;" horiz-adv-x="227" 
d="M91 781v-102h-121v102h121zM257 781v-102h-121v102h121zM175 622v-622h-123v622h123z" />
    <glyph glyph-name="Eth" unicode="&#xd0;" horiz-adv-x="546" 
d="M69 265h-48v101h48v250q96 11 182 11q46 0 75 -2.5t61.5 -11t51.5 -26.5t36 -47t24 -74t7 -107v-76q0 -58 -6.5 -103t-17 -75.5t-29.5 -52t-36.5 -33t-45.5 -17.5t-49.5 -7.5t-55.5 -1.5q-92 0 -197 11v261zM383 283v72q0 107 -25 138.5t-102 31.5q-42 0 -64 -3v-156h97
v-101h-97v-161q41 -4 74 -4q33 1 49.5 4t31.5 12t21 30t9.5 52t5.5 85z" />
    <glyph glyph-name="Ntilde" unicode="&#xd1;" horiz-adv-x="547" 
d="M493 622v-622h-116l-198 403h-9v-403h-118v622h124l190 -393h9v393h118zM345 777q24 0 72 14v-86q-44 -26 -89 -26q-16 0 -64.5 11.5t-59.5 11.5q-24 0 -72 -14v86q44 25 89 25q16 0 64.5 -11t59.5 -11z" />
    <glyph glyph-name="Ograve" unicode="&#xd2;" horiz-adv-x="536" 
d="M496 343v-72q0 -64 -6 -110.5t-21 -77t-31.5 -49t-46 -27.5t-55.5 -11.5t-68 -2.5q-69 0 -109 10t-68.5 40.5t-39.5 84t-11 143.5v72q0 79 10 132t26 83t47.5 45.5t62 19.5t82.5 4q94 0 139 -20.5t65.5 -79.5t23.5 -184zM373 283v54q-1 47 -2.5 73t-6.5 49t-10 32.5
t-18.5 17t-27 9.5t-40.5 3q-30 -1 -45 -5t-28.5 -12.5t-18.5 -30.5t-8.5 -52t-4.5 -84v-54q1 -47 2.5 -73t6.5 -49t10 -32.5t18.5 -17t27 -9.5t40.5 -3q30 1 45 5t28.5 12.5t18.5 30.5t8.5 52t4.5 84zM286 833l52 -171h-107l-88 171h143z" />
    <glyph glyph-name="Oacute" unicode="&#xd3;" horiz-adv-x="536" 
d="M496 343v-72q0 -64 -6 -110.5t-21 -77t-31.5 -49t-46 -27.5t-55.5 -11.5t-68 -2.5q-69 0 -109 10t-68.5 40.5t-39.5 84t-11 143.5v72q0 79 10 132t26 83t47.5 45.5t62 19.5t82.5 4q94 0 139 -20.5t65.5 -79.5t23.5 -184zM373 283v54q-1 47 -2.5 73t-6.5 49t-10 32.5
t-18.5 17t-27 9.5t-40.5 3q-30 -1 -45 -5t-28.5 -12.5t-18.5 -30.5t-8.5 -52t-4.5 -84v-54q1 -47 2.5 -73t6.5 -49t10 -32.5t18.5 -17t27 -9.5t40.5 -3q30 1 45 5t28.5 12.5t18.5 30.5t8.5 52t4.5 84zM393 833l-89 -171h-106l52 171h143z" />
    <glyph glyph-name="Ocircumflex" unicode="&#xd4;" horiz-adv-x="536" 
d="M496 343v-72q0 -64 -6 -110.5t-21 -77t-31.5 -49t-46 -27.5t-55.5 -11.5t-68 -2.5q-69 0 -109 10t-68.5 40.5t-39.5 84t-11 143.5v72q0 79 10 132t26 83t47.5 45.5t62 19.5t82.5 4q94 0 139 -20.5t65.5 -79.5t23.5 -184zM373 283v54q-1 47 -2.5 73t-6.5 49t-10 32.5
t-18.5 17t-27 9.5t-40.5 3q-30 -1 -45 -5t-28.5 -12.5t-18.5 -30.5t-8.5 -52t-4.5 -84v-54q1 -47 2.5 -73t6.5 -49t10 -32.5t18.5 -17t27 -9.5t40.5 -3q30 1 45 5t28.5 12.5t18.5 30.5t8.5 52t4.5 84zM108 662l99 171h123l99 -171h-105l-53 77h-6l-53 -77h-104z" />
    <glyph glyph-name="Otilde" unicode="&#xd5;" horiz-adv-x="536" 
d="M496 343v-72q0 -64 -6 -110.5t-21 -77t-31.5 -49t-46 -27.5t-55.5 -11.5t-68 -2.5q-69 0 -109 10t-68.5 40.5t-39.5 84t-11 143.5v72q0 79 10 132t26 83t47.5 45.5t62 19.5t82.5 4q94 0 139 -20.5t65.5 -79.5t23.5 -184zM373 283v54q-1 47 -2.5 73t-6.5 49t-10 32.5
t-18.5 17t-27 9.5t-40.5 3q-30 -1 -45 -5t-28.5 -12.5t-18.5 -30.5t-8.5 -52t-4.5 -84v-54q1 -47 2.5 -73t6.5 -49t10 -32.5t18.5 -17t27 -9.5t40.5 -3q30 1 45 5t28.5 12.5t18.5 30.5t8.5 52t4.5 84zM339 773q24 0 72 14v-86q-44 -26 -89 -26q-16 0 -64.5 11.5t-59.5 11.5
q-24 0 -72 -14v86q44 25 89 25q16 0 64.5 -11t59.5 -11z" />
    <glyph glyph-name="Odieresis" unicode="&#xd6;" horiz-adv-x="536" 
d="M496 343v-72q0 -64 -6 -110.5t-21 -77t-31.5 -49t-46 -27.5t-55.5 -11.5t-68 -2.5q-69 0 -109 10t-68.5 40.5t-39.5 84t-11 143.5v72q0 79 10 132t26 83t47.5 45.5t62 19.5t82.5 4q94 0 139 -20.5t65.5 -79.5t23.5 -184zM373 283v54q-1 47 -2.5 73t-6.5 49t-10 32.5
t-18.5 17t-27 9.5t-40.5 3q-30 -1 -45 -5t-28.5 -12.5t-18.5 -30.5t-8.5 -52t-4.5 -84v-54q1 -47 2.5 -73t6.5 -49t10 -32.5t18.5 -17t27 -9.5t40.5 -3q30 1 45 5t28.5 12.5t18.5 30.5t8.5 52t4.5 84zM246 784v-102h-121v102h121zM412 784v-102h-121v102h121z" />
    <glyph glyph-name="multiply" unicode="&#xd7;" 
d="M163 88h-110l127 167l-123 174h110l64 -98l65 98h110l-124 -174l127 -167h-110l-68 94z" />
    <glyph glyph-name="Oslash" unicode="&#xd8;" horiz-adv-x="536" 
d="M496 343v-72q0 -64 -6 -110.5t-21 -77t-31.5 -49t-46 -27.5t-55.5 -11.5t-68 -2.5q-69 0 -109 10t-68.5 40.5t-39.5 84t-11 143.5v72q0 79 10 132t26 83t47.5 45.5t62 19.5t82.5 4q94 0 139 -20.5t65.5 -79.5t23.5 -184zM373 283v83l-198 -222q9 -27 29 -36t64 -9
q30 1 45 5t28.5 12.5t18.5 30.5t8.5 52t4.5 84zM163 337v-77l196 219q-10 24 -30 33t-61 9q-30 -1 -45 -5t-28.5 -12.5t-18.5 -30.5t-8.5 -52t-4.5 -84z" />
    <glyph glyph-name="Ugrave" unicode="&#xd9;" horiz-adv-x="528" 
d="M353 183v439h123v-437q0 -107 -48 -149.5t-164 -42.5t-164 42.5t-48 149.5v437h123v-439q0 -48 19 -66.5t70 -18.5t70 18.5t19 66.5zM276 833l52 -171h-107l-88 171h143z" />
    <glyph glyph-name="Uacute" unicode="&#xda;" horiz-adv-x="528" 
d="M353 183v439h123v-437q0 -107 -48 -149.5t-164 -42.5t-164 42.5t-48 149.5v437h123v-439q0 -48 19 -66.5t70 -18.5t70 18.5t19 66.5zM396 833l-89 -171h-106l52 171h143z" />
    <glyph glyph-name="Ucircumflex" unicode="&#xdb;" horiz-adv-x="528" 
d="M353 183v439h123v-437q0 -107 -48 -149.5t-164 -42.5t-164 42.5t-48 149.5v437h123v-439q0 -48 19 -66.5t70 -18.5t70 18.5t19 66.5zM104 662l99 171h123l99 -171h-105l-53 77h-6l-53 -77h-104z" />
    <glyph glyph-name="Udieresis" unicode="&#xdc;" horiz-adv-x="528" 
d="M353 183v439h123v-437q0 -107 -48 -149.5t-164 -42.5t-164 42.5t-48 149.5v437h123v-439q0 -48 19 -66.5t70 -18.5t70 18.5t19 66.5zM242 784v-102h-121v102h121zM408 784v-102h-121v102h121z" />
    <glyph glyph-name="Yacute" unicode="&#xdd;" horiz-adv-x="479" 
d="M301 217v-217h-123v217l-175 405h137l97 -269h5l98 269h136zM377 833l-89 -171h-106l52 171h143z" />
    <glyph glyph-name="Thorn" unicode="&#xde;" horiz-adv-x="476" 
d="M175 118v-118h-123v622h123v-110q40 3 82 3q111 0 154 -38t43 -149q0 -117 -54 -163.5t-181 -46.5h-44zM175 409v-191h50q65 0 86.5 21t21.5 87q0 53 -17.5 69.5t-72.5 16.5q-17 0 -68 -3z" />
    <glyph glyph-name="germandbls" unicode="&#xdf;" horiz-adv-x="506" 
d="M172 0h-123v517q0 87 36.5 121t141.5 34q98 0 139 -28.5t41 -94.5q0 -34 -22 -111.5t-22 -79.5q0 -29 23 -46l52 -38q32 -24 44.5 -53t12.5 -77q0 -80 -36.5 -117t-112.5 -37q-59 0 -119 19v100q47 -12 90 -12q31 0 42 12t11 43q0 21 -4.5 31.5t-18.5 20.5l-47 32
q-50 33 -50 97q0 18 20 96t20 95q0 29 -12 38.5t-47 9.5q-36 0 -47.5 -13t-11.5 -57v-502z" />
    <glyph glyph-name="agrave" unicode="&#xe0;" horiz-adv-x="486" 
d="M161 -10q-67 0 -98 34.5t-31 112.5q0 81 42.5 115t148.5 34h83v44q0 44 -15.5 56.5t-64.5 12.5q-36 0 -162 -18v102q103 20 179 20q104 0 144 -29t40 -112v-168q0 -58 9 -105l16 -89h-111l-22 85q-39 -95 -158 -95zM205 88q45 0 73 26t28 75v26q-80 -2 -111 -8
t-38.5 -16.5t-7.5 -40.5q0 -38 11.5 -50t44.5 -12zM260 706l52 -171h-107l-88 171h143z" />
    <glyph glyph-name="aacute" unicode="&#xe1;" horiz-adv-x="486" 
d="M161 -10q-67 0 -98 34.5t-31 112.5q0 81 42.5 115t148.5 34h83v44q0 44 -15.5 56.5t-64.5 12.5q-36 0 -162 -18v102q103 20 179 20q104 0 144 -29t40 -112v-168q0 -58 9 -105l16 -89h-111l-22 85q-39 -95 -158 -95zM205 88q45 0 73 26t28 75v26q-80 -2 -111 -8
t-38.5 -16.5t-7.5 -40.5q0 -38 11.5 -50t44.5 -12zM369 706l-89 -171h-106l52 171h143z" />
    <glyph glyph-name="acircumflex" unicode="&#xe2;" horiz-adv-x="486" 
d="M161 -10q-67 0 -98 34.5t-31 112.5q0 81 42.5 115t148.5 34h83v44q0 44 -15.5 56.5t-64.5 12.5q-36 0 -162 -18v102q103 20 179 20q104 0 144 -29t40 -112v-168q0 -58 9 -105l16 -89h-111l-22 85q-39 -95 -158 -95zM205 88q45 0 73 26t28 75v26q-80 -2 -111 -8
t-38.5 -16.5t-7.5 -40.5q0 -38 11.5 -50t44.5 -12zM78 535l99 171h123l99 -171h-105l-53 77h-6l-53 -77h-104z" />
    <glyph glyph-name="atilde" unicode="&#xe3;" horiz-adv-x="486" 
d="M161 -10q-67 0 -98 34.5t-31 112.5q0 81 42.5 115t148.5 34h83v44q0 44 -15.5 56.5t-64.5 12.5q-36 0 -162 -18v102q103 20 179 20q104 0 144 -29t40 -112v-168q0 -58 9 -105l16 -89h-111l-22 85q-39 -95 -158 -95zM205 88q45 0 73 26t28 75v26q-80 -2 -111 -8
t-38.5 -16.5t-7.5 -40.5q0 -38 11.5 -50t44.5 -12zM309 653q24 0 72 14v-86q-44 -26 -89 -26q-16 0 -64.5 11.5t-59.5 11.5q-24 0 -72 -14v86q44 25 89 25q16 0 64.5 -11t59.5 -11z" />
    <glyph glyph-name="adieresis" unicode="&#xe4;" horiz-adv-x="486" 
d="M161 -10q-67 0 -98 34.5t-31 112.5q0 81 42.5 115t148.5 34h83v44q0 44 -15.5 56.5t-64.5 12.5q-36 0 -162 -18v102q103 20 179 20q104 0 144 -29t40 -112v-168q0 -58 9 -105l16 -89h-111l-22 85q-39 -95 -158 -95zM205 88q45 0 73 26t28 75v26q-80 -2 -111 -8
t-38.5 -16.5t-7.5 -40.5q0 -38 11.5 -50t44.5 -12zM216 654v-102h-121v102h121zM382 654v-102h-121v102h121z" />
    <glyph glyph-name="aring" unicode="&#xe5;" horiz-adv-x="486" 
d="M161 -10q-67 0 -98 34.5t-31 112.5q0 81 42.5 115t148.5 34h83v44q0 44 -15.5 56.5t-64.5 12.5q-36 0 -162 -18v102q103 20 179 20q104 0 144 -29t40 -112v-168q0 -58 9 -105l16 -89h-111l-22 85q-39 -95 -158 -95zM205 88q45 0 73 26t28 75v26q-80 -2 -111 -8
t-38.5 -16.5t-7.5 -40.5q0 -38 11.5 -50t44.5 -12zM237 752q72 0 102 -24.5t30 -86.5t-30 -86t-102 -24t-101.5 24t-29.5 86t30 86.5t101 24.5zM237 675q-27 0 -36.5 -7.5t-9.5 -27.5t9 -26.5t37 -6.5q29 0 38 6.5t9 27.5t-9 27.5t-38 6.5z" />
    <glyph glyph-name="ae" unicode="&#xe6;" horiz-adv-x="740" 
d="M521 -10q-97 0 -139 22.5t-58 87.5q-33 -110 -163 -110q-67 0 -98 34.5t-31 112.5q0 81 42.5 115t148.5 34h83v44q0 44 -15.5 56.5t-64.5 12.5q-44 0 -162 -18v102q103 20 179 20q105 0 141 -33q45 33 140 33q106 0 142 -50t36 -183v-56h-274q0 -77 17 -97.5t79 -20.5
q71 0 171 17v-103q-91 -20 -174 -20zM205 88q45 0 73 26t28 75v26q-80 -2 -111 -8t-38.5 -16.5t-7.5 -40.5q0 -38 11.5 -50t44.5 -12zM512 400q-49 0 -66 -20.5t-18 -89.5h158q0 68 -13 89t-61 21z" />
    <glyph glyph-name="ccedilla" unicode="&#xe7;" horiz-adv-x="431" 
d="M230 -227q-34 0 -90 12v87q53 -8 74 -8q22 0 22 12q0 4 -32 28t-32 46q0 20 9 44q-75 11 -107 66t-32 183q0 71 10 120t26 76t44 42t53.5 18.5t66.5 3.5q82 0 157 -19v-102q-95 16 -138 16q-30 0 -44.5 -3t-28.5 -16.5t-19 -43.5t-5 -81q0 -104 16.5 -131.5t78.5 -27.5
q54 0 141 17v-102q-88 -18 -136 -19q-2 -10 -2 -17q0 -10 18 -21q35 -19 48 -35.5t13 -45.5q0 -52 -27 -75.5t-84 -23.5z" />
    <glyph glyph-name="egrave" unicode="&#xe8;" horiz-adv-x="477" 
d="M42 243q0 71 10 119.5t25.5 76t44.5 42t56.5 18.5t72.5 4q114 0 151 -50.5t37 -182.5v-56h-275q1 -76 19 -97t81 -21t167 17v-103q-91 -20 -174 -20q-60 0 -98 10t-66 37t-39.5 77t-11.5 129zM249 400q-49 0 -66.5 -20t-18.5 -90h159q0 68 -13 89t-61 21zM262 706
l52 -171h-107l-88 171h143z" />
    <glyph glyph-name="eacute" unicode="&#xe9;" horiz-adv-x="477" 
d="M42 243q0 71 10 119.5t25.5 76t44.5 42t56.5 18.5t72.5 4q114 0 151 -50.5t37 -182.5v-56h-275q1 -76 19 -97t81 -21t167 17v-103q-91 -20 -174 -20q-60 0 -98 10t-66 37t-39.5 77t-11.5 129zM249 400q-49 0 -66.5 -20t-18.5 -90h159q0 68 -13 89t-61 21zM378 706
l-89 -171h-106l52 171h143z" />
    <glyph glyph-name="ecircumflex" unicode="&#xea;" horiz-adv-x="477" 
d="M42 243q0 71 10 119.5t25.5 76t44.5 42t56.5 18.5t72.5 4q114 0 151 -50.5t37 -182.5v-56h-275q1 -76 19 -97t81 -21t167 17v-103q-91 -20 -174 -20q-60 0 -98 10t-66 37t-39.5 77t-11.5 129zM249 400q-49 0 -66.5 -20t-18.5 -90h159q0 68 -13 89t-61 21zM85 535l99 171
h123l99 -171h-105l-53 77h-6l-53 -77h-104z" />
    <glyph glyph-name="edieresis" unicode="&#xeb;" horiz-adv-x="477" 
d="M42 243q0 71 10 119.5t25.5 76t44.5 42t56.5 18.5t72.5 4q114 0 151 -50.5t37 -182.5v-56h-275q1 -76 19 -97t81 -21t167 17v-103q-91 -20 -174 -20q-60 0 -98 10t-66 37t-39.5 77t-11.5 129zM249 400q-49 0 -66.5 -20t-18.5 -90h159q0 68 -13 89t-61 21zM223 654v-102
h-121v102h121zM389 654v-102h-121v102h121z" />
    <glyph glyph-name="igrave" unicode="&#xec;" horiz-adv-x="224" 
d="M172 490v-490h-123v490h123zM117 706l52 -171h-106l-89 171h143z" />
    <glyph glyph-name="iacute" unicode="&#xed;" horiz-adv-x="224" 
d="M172 490v-490h-123v490h123zM249 706l-88 -171h-107l52 171h143z" />
    <glyph glyph-name="icircumflex" unicode="&#xee;" horiz-adv-x="224" 
d="M172 490v-490h-123v490h123zM-48 535l99 171h121l101 -171h-104l-54 77h-5l-54 -77h-104z" />
    <glyph glyph-name="idieresis" unicode="&#xef;" horiz-adv-x="224" 
d="M89 654v-102h-121v102h121zM255 654v-102h-121v102h121zM172 490v-490h-123v490h123z" />
    <glyph glyph-name="eth" unicode="&#xf0;" horiz-adv-x="508" 
d="M361 612l64 14l16 -65l-48 -11q42 -85 57.5 -148t15.5 -155q0 -152 -45.5 -204.5t-174.5 -52.5q-59 0 -94 8.5t-62 34.5t-37.5 74.5t-10.5 127.5q0 103 17.5 157.5t50.5 73.5t95 19q69 0 104 -35q-19 54 -28 75l-62 -14l-16 66l50 11q-2 5 -6.5 13.5l-13 24.5l-14.5 28
h118zM249 93q59 0 75.5 26.5t16.5 119.5q0 94 -16.5 122t-67.5 28q-60 0 -75.5 -24t-15.5 -120q0 -98 15 -125t68 -27z" />
    <glyph glyph-name="ntilde" unicode="&#xf1;" horiz-adv-x="515" 
d="M182 0h-123v296q0 56 -9 104l-16 90h111l21 -82q41 95 161 95q77 0 107 -31.5t30 -107.5v-364h-124v334q0 36 -12 49.5t-47 13.5q-55 0 -77 -36.5t-22 -124.5v-236zM332 653q24 0 72 14v-86q-44 -26 -89 -26q-16 0 -64.5 11.5t-59.5 11.5q-24 0 -72 -14v86q44 25 89 25
q16 0 64.5 -11t59.5 -11z" />
    <glyph glyph-name="ograve" unicode="&#xf2;" horiz-adv-x="504" 
d="M244 -10q-83 2 -122.5 21t-58 71t-21.5 161q2 84 12.5 133t37 78t64 38.5t104.5 10.5q80 0 121.5 -19.5t61 -72.5t19.5 -158q0 -157 -45.5 -210t-172.5 -53zM248 93q58 0 73.5 27t15.5 125q0 101 -14.5 128t-66.5 27q-58 0 -74 -26.5t-16 -122.5q0 -102 14.5 -130
t67.5 -28zM273 706l52 -171h-107l-88 171h143z" />
    <glyph glyph-name="oacute" unicode="&#xf3;" horiz-adv-x="504" 
d="M244 -10q-83 2 -122.5 21t-58 71t-21.5 161q2 84 12.5 133t37 78t64 38.5t104.5 10.5q80 0 121.5 -19.5t61 -72.5t19.5 -158q0 -157 -45.5 -210t-172.5 -53zM248 93q58 0 73.5 27t15.5 125q0 101 -14.5 128t-66.5 27q-58 0 -74 -26.5t-16 -122.5q0 -102 14.5 -130
t67.5 -28zM376 706l-89 -171h-106l52 171h143z" />
    <glyph glyph-name="ocircumflex" unicode="&#xf4;" horiz-adv-x="504" 
d="M244 -10q-83 2 -122.5 21t-58 71t-21.5 161q2 84 12.5 133t37 78t64 38.5t104.5 10.5q80 0 121.5 -19.5t61 -72.5t19.5 -158q0 -157 -45.5 -210t-172.5 -53zM248 93q58 0 73.5 27t15.5 125q0 101 -14.5 128t-66.5 27q-58 0 -74 -26.5t-16 -122.5q0 -102 14.5 -130
t67.5 -28zM92 535l99 171h123l99 -171h-105l-53 77h-6l-53 -77h-104z" />
    <glyph glyph-name="otilde" unicode="&#xf5;" horiz-adv-x="504" 
d="M244 -10q-83 2 -122.5 21t-58 71t-21.5 161q2 84 12.5 133t37 78t64 38.5t104.5 10.5q80 0 121.5 -19.5t61 -72.5t19.5 -158q0 -157 -45.5 -210t-172.5 -53zM248 93q58 0 73.5 27t15.5 125q0 101 -14.5 128t-66.5 27q-58 0 -74 -26.5t-16 -122.5q0 -102 14.5 -130
t67.5 -28zM323 653q24 0 72 14v-86q-44 -26 -89 -26q-16 0 -64.5 11.5t-59.5 11.5q-24 0 -72 -14v86q44 25 89 25q16 0 64.5 -11t59.5 -11z" />
    <glyph glyph-name="odieresis" unicode="&#xf6;" horiz-adv-x="504" 
d="M244 -10q-83 2 -122.5 21t-58 71t-21.5 161q2 84 12.5 133t37 78t64 38.5t104.5 10.5q80 0 121.5 -19.5t61 -72.5t19.5 -158q0 -157 -45.5 -210t-172.5 -53zM248 93q58 0 73.5 27t15.5 125q0 101 -14.5 128t-66.5 27q-58 0 -74 -26.5t-16 -122.5q0 -102 14.5 -130
t67.5 -28zM230 654v-102h-121v102h121zM396 654v-102h-121v102h121z" />
    <glyph glyph-name="divide" unicode="&#xf7;" 
d="M286 145v-102h-101v102h101zM286 446v-102h-101v102h101zM406 199h-346v96h346v-96z" />
    <glyph glyph-name="oslash" unicode="&#xf8;" horiz-adv-x="504" 
d="M244 -10q-83 2 -122.5 21t-58 71t-21.5 161q2 84 12.5 133t37 78t64 38.5t104.5 10.5q80 0 121.5 -19.5t61 -72.5t19.5 -158q0 -157 -45.5 -210t-172.5 -53zM166 251v-45l160 158q-8 21 -23.5 28.5t-46.5 7.5q-58 0 -74 -26.5t-16 -122.5zM248 93q58 0 73.5 27t15.5 125
q0 32 -1 40l-159 -156q9 -21 24.5 -28.5t46.5 -7.5z" />
    <glyph glyph-name="ugrave" unicode="&#xf9;" horiz-adv-x="507" 
d="M329 490h123v-296q0 -58 9 -105l16 -89h-111l-21 79q-39 -89 -161 -89q-75 0 -105 30t-30 103v367h123v-336q0 -35 11.5 -46.5t47.5 -11.5q55 0 76.5 36t21.5 125v233zM268 706l52 -171h-107l-88 171h143z" />
    <glyph glyph-name="uacute" unicode="&#xfa;" horiz-adv-x="507" 
d="M329 490h123v-296q0 -58 9 -105l16 -89h-111l-21 79q-39 -89 -161 -89q-75 0 -105 30t-30 103v367h123v-336q0 -35 11.5 -46.5t47.5 -11.5q55 0 76.5 36t21.5 125v233zM387 706l-89 -171h-106l52 171h143z" />
    <glyph glyph-name="ucircumflex" unicode="&#xfb;" horiz-adv-x="507" 
d="M329 490h123v-296q0 -58 9 -105l16 -89h-111l-21 79q-39 -89 -161 -89q-75 0 -105 30t-30 103v367h123v-336q0 -35 11.5 -46.5t47.5 -11.5q55 0 76.5 36t21.5 125v233zM91 535l99 171h123l99 -171h-105l-53 77h-6l-53 -77h-104z" />
    <glyph glyph-name="udieresis" unicode="&#xfc;" horiz-adv-x="507" 
d="M329 490h123v-296q0 -58 9 -105l16 -89h-111l-21 79q-39 -89 -161 -89q-75 0 -105 30t-30 103v367h123v-336q0 -35 11.5 -46.5t47.5 -11.5q55 0 76.5 36t21.5 125v233zM229 654v-102h-121v102h121zM395 654v-102h-121v102h121z" />
    <glyph glyph-name="yacute" unicode="&#xfd;" horiz-adv-x="469" 
d="M137 0l-129 490h134l84 -388h11l91 388h134l-145 -523q-26 -97 -60 -130t-113 -33q-59 0 -117 16v99q64 -10 104 -10q38 0 52 10.5t22 42.5l9 38h-77zM365 706l-89 -171h-106l52 171h143z" />
    <glyph glyph-name="thorn" unicode="&#xfe;" horiz-adv-x="526" 
d="M182 -185h-123v839h123v-206q43 55 137 55q98 0 131.5 -49.5t33.5 -198.5q0 -107 -18.5 -164.5t-56 -79t-106.5 -21.5q-93 0 -121 51v-226zM271 93q25 1 37.5 4t24 11t15.5 27t7 45t4 73q0 94 -15.5 120.5t-66.5 26.5q-54 0 -75.5 -27.5t-21.5 -106.5v-45
q0 -78 17.5 -103t73.5 -25z" />
    <glyph glyph-name="ydieresis" unicode="&#xff;" horiz-adv-x="469" 
d="M137 0l-129 490h134l84 -388h11l91 388h134l-145 -523q-26 -97 -60 -130t-113 -33q-59 0 -117 16v99q64 -10 104 -10q38 0 52 10.5t22 42.5l9 38h-77zM215 654v-102h-121v102h121zM381 654v-102h-121v102h121z" />
    <glyph glyph-name="Amacron" unicode="&#x100;" horiz-adv-x="528" 
d="M366 622l158 -622h-131l-39 157h-182l-37 -157h-130l158 622h203zM271 519h-14l-62 -262h137zM377 679h-225v95h225v-95z" />
    <glyph glyph-name="amacron" unicode="&#x101;" horiz-adv-x="486" 
d="M161 -10q-67 0 -98 34.5t-31 112.5q0 81 42.5 115t148.5 34h83v44q0 44 -15.5 56.5t-64.5 12.5q-36 0 -162 -18v102q103 20 179 20q104 0 144 -29t40 -112v-168q0 -58 9 -105l16 -89h-111l-22 85q-39 -95 -158 -95zM205 88q45 0 73 26t28 75v26q-80 -2 -111 -8
t-38.5 -16.5t-7.5 -40.5q0 -38 11.5 -50t44.5 -12zM351 552h-225v95h225v-95z" />
    <glyph glyph-name="Abreve" unicode="&#x102;" horiz-adv-x="528" 
d="M366 622l158 -622h-131l-39 157h-182l-37 -157h-130l158 622h203zM271 519h-14l-62 -262h137zM131 775v55h84v-46q0 -22 10 -30.5t39 -8.5t39 8.5t10 30.5v46h84v-55q0 -65 -30.5 -92.5t-102.5 -27.5t-102.5 27.5t-30.5 92.5z" />
    <glyph glyph-name="abreve" unicode="&#x103;" horiz-adv-x="486" 
d="M161 -10q-67 0 -98 34.5t-31 112.5q0 81 42.5 115t148.5 34h83v44q0 44 -15.5 56.5t-64.5 12.5q-36 0 -162 -18v102q103 20 179 20q104 0 144 -29t40 -112v-168q0 -58 9 -105l16 -89h-111l-22 85q-39 -95 -158 -95zM205 88q45 0 73 26t28 75v26q-80 -2 -111 -8
t-38.5 -16.5t-7.5 -40.5q0 -38 11.5 -50t44.5 -12zM105 651v55h84v-46q0 -22 10 -30.5t39 -8.5t39 8.5t10 30.5v46h84v-55q0 -65 -30.5 -92.5t-102.5 -27.5t-102.5 27.5t-30.5 92.5z" />
    <glyph glyph-name="Aogonek" unicode="&#x104;" horiz-adv-x="528" 
d="M424 -196q-45 0 -66 18.5t-21 63.5q0 39 11.5 62t44.5 52l-39 157h-182l-37 -157h-130l158 622h203l158 -622q-42 -38 -53.5 -52.5t-11.5 -31.5q0 -16 13 -16q1 0 7 0.5t19 2t26 2.5v-89q-53 -12 -100 -12zM271 519h-14l-62 -262h137z" />
    <glyph glyph-name="aogonek" unicode="&#x105;" horiz-adv-x="486" 
d="M352 -196q-45 0 -66 18.5t-21 63.5q0 43 15 68t58 58l-19 73q-39 -95 -158 -95q-67 0 -98 34.5t-31 112.5q0 81 42.5 115t148.5 34h83v44q0 44 -15.5 56.5t-64.5 12.5q-36 0 -162 -18v102q103 20 179 20q104 0 144 -29t40 -112v-168q0 -58 9 -105l16 -89
q-42 -38 -53.5 -52.5t-11.5 -31.5q0 -16 13 -16q1 0 7 0.5t19 2t26 2.5v-89q-53 -12 -100 -12zM205 88q45 0 73 26t28 75v26q-80 -2 -111 -8t-38.5 -16.5t-7.5 -40.5q0 -38 11.5 -50t44.5 -12z" />
    <glyph glyph-name="Cacute" unicode="&#x106;" horiz-adv-x="453" 
d="M425 120v-104q-94 -23 -170 -23q-43 0 -71.5 4.5t-58 19.5t-46.5 43t-28 76.5t-11 118.5v90q0 57 7 102t18 74.5t29.5 50t34.5 31t41.5 16.5t42.5 7t44 1q76 0 168 -22v-104q-83 17 -141 17q-51 0 -73.5 -12t-33.5 -49.5t-14 -119.5v-56q0 -45 2.5 -76t11 -51t15.5 -30.5
t25 -15.5t29.5 -5.5t39.5 -0.5q49 0 139 18zM387 833l-89 -171h-106l52 171h143z" />
    <glyph glyph-name="cacute" unicode="&#x107;" horiz-adv-x="431" 
d="M249 -10q-44 0 -74 5t-57 20.5t-42.5 43.5t-24.5 73.5t-9 110.5q0 71 10 120t26 76t44 42t53.5 18.5t66.5 3.5q82 0 157 -19v-102q-95 16 -138 16q-30 0 -44.5 -3t-28.5 -16.5t-19 -43.5t-5 -81q0 -104 16.5 -131.5t78.5 -27.5q54 0 141 17v-102q-98 -20 -151 -20z
M365 706l-89 -171h-106l52 171h143z" />
    <glyph glyph-name="Ccircumflex" unicode="&#x108;" horiz-adv-x="453" 
d="M425 120v-104q-94 -23 -170 -23q-43 0 -71.5 4.5t-58 19.5t-46.5 43t-28 76.5t-11 118.5v90q0 57 7 102t18 74.5t29.5 50t34.5 31t41.5 16.5t42.5 7t44 1q76 0 168 -22v-104q-83 17 -141 17q-51 0 -73.5 -12t-33.5 -49.5t-14 -119.5v-56q0 -45 2.5 -76t11 -51t15.5 -30.5
t25 -15.5t29.5 -5.5t39.5 -0.5q49 0 139 18zM90 662l99 171h123l99 -171h-105l-53 77h-6l-53 -77h-104z" />
    <glyph glyph-name="ccircumflex" unicode="&#x109;" horiz-adv-x="431" 
d="M249 -10q-44 0 -74 5t-57 20.5t-42.5 43.5t-24.5 73.5t-9 110.5q0 71 10 120t26 76t44 42t53.5 18.5t66.5 3.5q82 0 157 -19v-102q-95 16 -138 16q-30 0 -44.5 -3t-28.5 -16.5t-19 -43.5t-5 -81q0 -104 16.5 -131.5t78.5 -27.5q54 0 141 17v-102q-98 -20 -151 -20z
M77 535l99 171h123l99 -171h-105l-53 77h-6l-53 -77h-104z" />
    <glyph glyph-name="Cdotaccent" unicode="&#x10a;" horiz-adv-x="453" 
d="M425 120v-104q-94 -23 -170 -23q-43 0 -71.5 4.5t-58 19.5t-46.5 43t-28 76.5t-11 118.5v90q0 57 7 102t18 74.5t29.5 50t34.5 31t41.5 16.5t42.5 7t44 1q76 0 168 -22v-104q-83 17 -141 17q-51 0 -73.5 -12t-33.5 -49.5t-14 -119.5v-56q0 -45 2.5 -76t11 -51t15.5 -30.5
t25 -15.5t29.5 -5.5t39.5 -0.5q49 0 139 18zM316 781v-102h-129v102h129z" />
    <glyph glyph-name="cdotaccent" unicode="&#x10b;" horiz-adv-x="431" 
d="M249 -10q-44 0 -74 5t-57 20.5t-42.5 43.5t-24.5 73.5t-9 110.5q0 71 10 120t26 76t44 42t53.5 18.5t66.5 3.5q82 0 157 -19v-102q-95 16 -138 16q-30 0 -44.5 -3t-28.5 -16.5t-19 -43.5t-5 -81q0 -104 16.5 -131.5t78.5 -27.5q54 0 141 17v-102q-98 -20 -151 -20z
M302 654v-102h-129v102h129z" />
    <glyph glyph-name="Ccaron" unicode="&#x10c;" horiz-adv-x="453" 
d="M425 120v-104q-94 -23 -170 -23q-43 0 -71.5 4.5t-58 19.5t-46.5 43t-28 76.5t-11 118.5v90q0 57 7 102t18 74.5t29.5 50t34.5 31t41.5 16.5t42.5 7t44 1q76 0 168 -22v-104q-83 17 -141 17q-51 0 -73.5 -12t-33.5 -49.5t-14 -119.5v-56q0 -45 2.5 -76t11 -51t15.5 -30.5
t25 -15.5t29.5 -5.5t39.5 -0.5q49 0 139 18zM412 833l-99 -171h-123l-99 171h104l53 -78h6l54 78h104z" />
    <glyph glyph-name="ccaron" unicode="&#x10d;" horiz-adv-x="431" 
d="M249 -10q-44 0 -74 5t-57 20.5t-42.5 43.5t-24.5 73.5t-9 110.5q0 71 10 120t26 76t44 42t53.5 18.5t66.5 3.5q82 0 157 -19v-102q-95 16 -138 16q-30 0 -44.5 -3t-28.5 -16.5t-19 -43.5t-5 -81q0 -104 16.5 -131.5t78.5 -27.5q54 0 141 17v-102q-98 -20 -151 -20z
M398 706l-99 -171h-123l-99 171h104l53 -78h6l54 78h104z" />
    <glyph glyph-name="Dcaron" unicode="&#x10e;" horiz-adv-x="529" 
d="M489 359v-76q0 -58 -6.5 -103t-17 -75.5t-29.5 -52t-36.5 -33t-45.5 -17.5t-49.5 -7.5t-55.5 -1.5q-92 0 -197 11v612q96 11 182 11q46 0 75 -2.5t61.5 -11t51.5 -26.5t36 -47t24 -74t7 -107zM366 283v72q0 107 -25 138.5t-102 31.5q-41 0 -64 -3v-418q41 -4 74 -4
q33 1 49.5 4t31.5 12t21 30t9.5 52t5.5 85zM415 833l-99 -171h-123l-99 171h104l53 -78h6l54 78h104z" />
    <glyph glyph-name="dcaron" unicode="&#x10f;" horiz-adv-x="667" 
d="M344 654h123v-460q0 -62 8 -105l16 -89h-110l-20 77q-35 -87 -155 -87q-98 0 -131 49t-33 199q0 110 20 168t56.5 77.5t104.5 19.5q93 0 121 -57v208zM248 93q55 0 76.5 26.5t21.5 102.5v50q0 76 -18.5 102t-73.5 26t-71 -28t-16 -132q0 -96 14.5 -121.5t66.5 -25.5z
M523 545v109h124v-72q0 -44 -18 -94l-32 -91h-88l9 73q5 38 5 75z" />
    <glyph glyph-name="Dcroat" unicode="&#x110;" horiz-adv-x="546" 
d="M69 265h-48v101h48v250q96 11 182 11q46 0 75 -2.5t61.5 -11t51.5 -26.5t36 -47t24 -74t7 -107v-76q0 -58 -6.5 -103t-17 -75.5t-29.5 -52t-36.5 -33t-45.5 -17.5t-49.5 -7.5t-55.5 -1.5q-92 0 -197 11v261zM383 283v72q0 107 -25 138.5t-102 31.5q-42 0 -64 -3v-156h97
v-101h-97v-161q41 -4 74 -4q33 1 49.5 4t31.5 12t21 30t9.5 52t5.5 85z" />
    <glyph glyph-name="dslash" unicode="&#x111;" horiz-adv-x="530" 
d="M344 654h123v-61h54v-72h-54v-327q0 -62 8 -105l16 -89h-110l-20 77q-35 -87 -155 -87q-98 0 -131 49t-33 199q0 110 20 168t56.5 77.5t104.5 19.5q93 0 121 -57v78h-59v69h59v61zM248 93q55 0 76.5 26.5t21.5 102.5v50q0 76 -18.5 102t-73.5 26t-71 -28t-16 -132
q0 -96 14.5 -121.5t66.5 -25.5z" />
    <glyph glyph-name="Emacron" unicode="&#x112;" horiz-adv-x="455" 
d="M432 109v-109h-380v622h370v-109h-247v-139h185v-105h-185v-160h257zM350 679h-225v95h225v-95z" />
    <glyph glyph-name="emacron" unicode="&#x113;" horiz-adv-x="477" 
d="M42 243q0 71 10 119.5t25.5 76t44.5 42t56.5 18.5t72.5 4q114 0 151 -50.5t37 -182.5v-56h-275q1 -76 19 -97t81 -21t167 17v-103q-91 -20 -174 -20q-60 0 -98 10t-66 37t-39.5 77t-11.5 129zM249 400q-49 0 -66.5 -20t-18.5 -90h159q0 68 -13 89t-61 21zM358 552h-225
v95h225v-95z" />
    <glyph glyph-name="Ebreve" unicode="&#x114;" horiz-adv-x="455" 
d="M104 779v55h84v-46q0 -22 10 -30.5t39 -8.5t39 8.5t10 30.5v46h84v-55q0 -65 -30.5 -92.5t-102.5 -27.5t-102.5 27.5t-30.5 92.5zM432 109v-109h-380v622h370v-109h-247v-139h185v-105h-185v-160h257z" />
    <glyph glyph-name="ebreve" unicode="&#x115;" horiz-adv-x="477" 
d="M42 243q0 71 10 119.5t25.5 76t44.5 42t56.5 18.5t72.5 4q114 0 151 -50.5t37 -182.5v-56h-275q1 -76 19 -97t81 -21t167 17v-103q-91 -20 -174 -20q-60 0 -98 10t-66 37t-39.5 77t-11.5 129zM249 400q-49 0 -66.5 -20t-18.5 -90h159q0 68 -13 89t-61 21zM112 651v55h84
v-46q0 -22 10 -30.5t39 -8.5t39 8.5t10 30.5v46h84v-55q0 -65 -30.5 -92.5t-102.5 -27.5t-102.5 27.5t-30.5 92.5z" />
    <glyph glyph-name="Edotaccent" unicode="&#x116;" horiz-adv-x="455" 
d="M432 109v-109h-380v622h370v-109h-247v-139h185v-105h-185v-160h257zM301 784v-102h-129v102h129z" />
    <glyph glyph-name="edotaccent" unicode="&#x117;" horiz-adv-x="477" 
d="M42 243q0 71 10 119.5t25.5 76t44.5 42t56.5 18.5t72.5 4q114 0 151 -50.5t37 -182.5v-56h-275q1 -76 19 -97t81 -21t167 17v-103q-91 -20 -174 -20q-60 0 -98 10t-66 37t-39.5 77t-11.5 129zM249 400q-49 0 -66.5 -20t-18.5 -90h159q0 68 -13 89t-61 21zM309 654v-102
h-129v102h129z" />
    <glyph glyph-name="Eogonek" unicode="&#x118;" horiz-adv-x="455" 
d="M332 -196q-45 0 -66 18.5t-21 63.5q0 39 11.5 61.5t45.5 52.5h-250v622h370v-109h-247v-139h185v-105h-185v-160h257v-109q-42 -38 -53.5 -52.5t-11.5 -31.5q0 -16 13 -16q1 0 7 0.5t19 2t26 2.5v-89q-52 -12 -100 -12z" />
    <glyph glyph-name="eogonek" unicode="&#x119;" horiz-adv-x="477" 
d="M42 243q0 71 10 119.5t25.5 76t44.5 42t56.5 18.5t72.5 4q114 0 151 -50.5t37 -182.5v-56h-275q1 -76 19 -97t81 -21t167 17v-103q-43 -43 -54 -59t-11 -35q0 -16 13 -16l52 5v-89q-53 -12 -100 -12q-45 0 -66 18.5t-21 63.5q0 62 43 105q-7 -1 -30 -1q-60 0 -98 10
t-66 37t-39.5 77t-11.5 129zM249 400q-49 0 -66.5 -20t-18.5 -90h159q0 68 -13 89t-61 21z" />
    <glyph glyph-name="Ecaron" unicode="&#x11a;" horiz-adv-x="455" 
d="M432 109v-109h-380v622h370v-109h-247v-139h185v-105h-185v-160h257zM398 833l-99 -171h-123l-99 171h104l53 -78h6l54 78h104z" />
    <glyph glyph-name="ecaron" unicode="&#x11b;" horiz-adv-x="477" 
d="M42 243q0 71 10 119.5t25.5 76t44.5 42t56.5 18.5t72.5 4q114 0 151 -50.5t37 -182.5v-56h-275q1 -76 19 -97t81 -21t167 17v-103q-91 -20 -174 -20q-60 0 -98 10t-66 37t-39.5 77t-11.5 129zM249 400q-49 0 -66.5 -20t-18.5 -90h159q0 68 -13 89t-61 21zM406 706
l-99 -171h-123l-99 171h104l53 -78h6l54 78h104z" />
    <glyph glyph-name="Gcircumflex" unicode="&#x11c;" horiz-adv-x="498" 
d="M350 113v135h-90v102h198v-323q-114 -34 -203 -34q-57 0 -91 8t-65 34t-45 79.5t-16 140.5v90q0 75 12 128.5t30.5 83t49.5 45.5t59 20.5t70 4.5q82 0 177 -22v-104q-94 17 -154 17q-72 0 -96.5 -33.5t-24.5 -147.5v-56q0 -80 10.5 -118t31 -49.5t63.5 -11.5q37 0 84 11z
M95 662l99 171h123l99 -171h-105l-53 77h-6l-53 -77h-104z" />
    <glyph glyph-name="gcircumflex" unicode="&#x11d;" horiz-adv-x="518" 
d="M463 296v-249q0 -76 -16.5 -125.5t-50.5 -74.5t-73 -34t-96 -9q-99 0 -168 22v100q80 -16 153 -16q81 0 104.5 27.5t23.5 111.5q-38 -59 -141 -59q-66 0 -98 21.5t-45.5 75.5t-13.5 163q0 104 20 159t58 74.5t109 19.5q104 0 132 -73l16 60h111l-16 -89q-9 -47 -9 -105z
M167 240q0 -96 14.5 -121.5t66.5 -25.5q55 0 76.5 26.5t21.5 102.5v50q0 76 -18.5 102t-73.5 26t-71 -28t-16 -132zM102 535l99 171h123l99 -171h-105l-53 77h-6l-53 -77h-104z" />
    <glyph glyph-name="Gbreve" unicode="&#x11e;" horiz-adv-x="498" 
d="M350 113v135h-90v102h198v-323q-114 -34 -203 -34q-57 0 -91 8t-65 34t-45 79.5t-16 140.5v90q0 75 12 128.5t30.5 83t49.5 45.5t59 20.5t70 4.5q82 0 177 -22v-104q-94 17 -154 17q-72 0 -96.5 -33.5t-24.5 -147.5v-56q0 -80 10.5 -118t31 -49.5t63.5 -11.5q37 0 84 11z
M122 778v55h84v-46q0 -22 10 -30.5t39 -8.5t39 8.5t10 30.5v46h84v-55q0 -65 -30.5 -92.5t-102.5 -27.5t-102.5 27.5t-30.5 92.5z" />
    <glyph glyph-name="gbreve" unicode="&#x11f;" horiz-adv-x="518" 
d="M463 296v-249q0 -76 -16.5 -125.5t-50.5 -74.5t-73 -34t-96 -9q-99 0 -168 22v100q80 -16 153 -16q81 0 104.5 27.5t23.5 111.5q-38 -59 -141 -59q-66 0 -98 21.5t-45.5 75.5t-13.5 163q0 104 20 159t58 74.5t109 19.5q104 0 132 -73l16 60h111l-16 -89q-9 -47 -9 -105z
M167 240q0 -96 14.5 -121.5t66.5 -25.5q55 0 76.5 26.5t21.5 102.5v50q0 76 -18.5 102t-73.5 26t-71 -28t-16 -132zM129 651v55h84v-46q0 -22 10 -30.5t39 -8.5t39 8.5t10 30.5v46h84v-55q0 -65 -30.5 -92.5t-102.5 -27.5t-102.5 27.5t-30.5 92.5z" />
    <glyph glyph-name="Gdotaccent" unicode="&#x120;" horiz-adv-x="498" 
d="M350 113v135h-90v102h198v-323q-114 -34 -203 -34q-57 0 -91 8t-65 34t-45 79.5t-16 140.5v90q0 75 12 128.5t30.5 83t49.5 45.5t59 20.5t70 4.5q82 0 177 -22v-104q-94 17 -154 17q-72 0 -96.5 -33.5t-24.5 -147.5v-56q0 -80 10.5 -118t31 -49.5t63.5 -11.5q37 0 84 11z
M320 784v-102h-129v102h129z" />
    <glyph glyph-name="gdotaccent" unicode="&#x121;" horiz-adv-x="518" 
d="M463 296v-249q0 -76 -16.5 -125.5t-50.5 -74.5t-73 -34t-96 -9q-99 0 -168 22v100q80 -16 153 -16q81 0 104.5 27.5t23.5 111.5q-38 -59 -141 -59q-66 0 -98 21.5t-45.5 75.5t-13.5 163q0 104 20 159t58 74.5t109 19.5q104 0 132 -73l16 60h111l-16 -89q-9 -47 -9 -105z
M167 240q0 -96 14.5 -121.5t66.5 -25.5q55 0 76.5 26.5t21.5 102.5v50q0 76 -18.5 102t-73.5 26t-71 -28t-16 -132zM327 654v-102h-129v102h129z" />
    <glyph glyph-name="Gcommaaccent" unicode="&#x122;" horiz-adv-x="498" 
d="M350 113v135h-90v102h198v-323q-114 -34 -203 -34q-57 0 -91 8t-65 34t-45 79.5t-16 140.5v90q0 75 12 128.5t30.5 83t49.5 45.5t59 20.5t70 4.5q82 0 177 -22v-104q-94 17 -154 17q-72 0 -96.5 -33.5t-24.5 -147.5v-56q0 -80 10.5 -118t31 -49.5t63.5 -11.5q37 0 84 11z
M206 -117v71h125v-34q-2 -44 -20 -92l-25 -66h-91l7 46q4 24 4 75z" />
    <glyph glyph-name="gcommaaccent" unicode="&#x123;" horiz-adv-x="518" 
d="M463 296v-249q0 -76 -16.5 -125.5t-50.5 -74.5t-73 -34t-96 -9q-99 0 -168 22v100q80 -16 153 -16q81 0 104.5 27.5t23.5 111.5q-38 -59 -141 -59q-66 0 -98 21.5t-45.5 75.5t-13.5 163q0 104 20 159t58 74.5t109 19.5q104 0 132 -73l16 60h111l-16 -89q-9 -47 -9 -105z
M167 240q0 -96 14.5 -121.5t66.5 -25.5q55 0 76.5 26.5t21.5 102.5v50q0 76 -18.5 102t-73.5 26t-71 -28t-16 -132zM324 601v-71h-125v34q2 44 20 92l25 66h91l-7 -46q-4 -24 -4 -75z" />
    <glyph glyph-name="Hcircumflex" unicode="&#x124;" horiz-adv-x="538" 
d="M486 622v-622h-123v270h-188v-270h-123v622h123v-246h188v246h123zM109 662l99 171h123l99 -171h-105l-53 77h-6l-53 -77h-104z" />
    <glyph glyph-name="hcircumflex" unicode="&#x125;" horiz-adv-x="505" 
d="M172 0h-123v654h123v-216q39 65 144 65q78 0 108 -31.5t30 -107.5v-364h-124v334q0 36 -12 49.5t-47 13.5q-55 0 -77 -36.5t-22 -124.5v-236zM90 673l99 171h123l99 -171h-105l-53 77h-6l-53 -77h-104z" />
    <glyph glyph-name="Hbar" unicode="&#x126;" horiz-adv-x="571" 
d="M69 444h-48v89h48v89h123v-89h188v89h123v-89h47v-89h-47v-444h-123v270h-188v-270h-123v444zM192 444v-68h188v68h-188z" />
    <glyph glyph-name="hbar" unicode="&#x127;" horiz-adv-x="524" 
d="M191 0h-123v521h-52v72h52v61h123v-61h62v-69h-62v-86q39 65 144 65q78 0 108 -31.5t30 -107.5v-364h-124v334q0 36 -12 49.5t-47 13.5q-55 0 -77 -36.5t-22 -124.5v-236z" />
    <glyph glyph-name="Itilde" unicode="&#x128;" horiz-adv-x="227" 
d="M184 773q24 0 72 14v-86q-44 -26 -89 -26q-16 0 -64.5 11.5t-59.5 11.5q-24 0 -72 -14v86q44 25 89 25q16 0 64.5 -11t59.5 -11zM175 622v-622h-123v622h123z" />
    <glyph glyph-name="itilde" unicode="&#x129;" horiz-adv-x="224" 
d="M185 653q24 0 72 14v-86q-44 -26 -89 -26q-16 0 -64.5 11.5t-59.5 11.5q-24 0 -72 -14v86q44 25 89 25q16 0 64.5 -11t59.5 -11zM172 490v-490h-123v490h123z" />
    <glyph glyph-name="Imacron" unicode="&#x12a;" horiz-adv-x="227" 
d="M175 622v-622h-123v622h123zM226 679h-225v95h225v-95z" />
    <glyph glyph-name="imacron" unicode="&#x12b;" horiz-adv-x="224" 
d="M172 490v-490h-123v490h123zM224 552h-225v95h225v-95z" />
    <glyph glyph-name="Ibreve" unicode="&#x12c;" horiz-adv-x="227" 
d="M-20 775v55h84v-46q0 -22 10 -30.5t39 -8.5t39 8.5t10 30.5v46h84v-55q0 -65 -30.5 -92.5t-102.5 -27.5t-102.5 27.5t-30.5 92.5zM175 622v-622h-123v622h123z" />
    <glyph glyph-name="ibreve" unicode="&#x12d;" horiz-adv-x="224" 
d="M-21 651v55h84v-46q0 -22 10 -30.5t39 -8.5t39 8.5t10 30.5v46h84v-55q0 -65 -30.5 -92.5t-102.5 -27.5t-102.5 27.5t-30.5 92.5zM172 490v-490h-123v490h123z" />
    <glyph glyph-name="Iogonek" unicode="&#x12e;" horiz-adv-x="227" 
d="M75 -196q-45 0 -66 18.5t-21 63.5q0 42 14 66.5t50 52.5v617h123v-622q-42 -38 -53.5 -52.5t-11.5 -31.5q0 -16 13 -16q1 0 7 0.5t19 2t26 2.5v-89q-53 -12 -100 -12z" />
    <glyph glyph-name="iogonek" unicode="&#x12f;" horiz-adv-x="224" 
d="M72 -196q-45 0 -66 18.5t-21 63.5q0 42 14 66.5t50 52.5v485h123v-490q-42 -38 -53.5 -52.5t-11.5 -31.5q0 -16 13 -16q1 0 7 0.5t19 2t26 2.5v-89q-52 -12 -100 -12zM175 654v-102h-130v102h130z" />
    <glyph glyph-name="Idot" unicode="&#x130;" horiz-adv-x="227" 
d="M178 784v-102h-129v102h129zM175 622v-622h-123v622h123z" />
    <glyph glyph-name="dotlessi" unicode="&#x131;" horiz-adv-x="224" 
d="M172 490v-490h-123v490h123z" />
    <glyph glyph-name="IJ" unicode="&#x132;" horiz-adv-x="578" 
d="M403 174v448h124v-456q0 -90 -38.5 -131.5t-118.5 -41.5q-61 0 -133 18v101q61 -10 107 -10q35 0 47 14.5t12 57.5zM175 622v-622h-123v622h123z" />
    <glyph glyph-name="ij" unicode="&#x133;" horiz-adv-x="451" 
d="M274 -43v533h123v-559q0 -67 -29 -97t-88 -30q-50 0 -113 10v100q41 -4 72 -4q21 0 28 9t7 38zM400 654v-102h-130v102h130zM172 490v-490h-123v490h123zM175 654v-102h-130v102h130z" />
    <glyph glyph-name="Jcircumflex" unicode="&#x134;" horiz-adv-x="354" 
d="M179 174v448h124v-456q0 -90 -38.5 -131.5t-118.5 -41.5q-61 0 -133 18v101q61 -10 107 -10q35 0 47 14.5t12 57.5zM74 662l99 171h123l99 -171h-105l-53 77h-6l-53 -77h-104z" />
    <glyph glyph-name="jcircumflex" unicode="&#x135;" horiz-adv-x="225" 
d="M-52 535l99 171h123l99 -171h-104l-54 77h-5l-54 -77h-104zM49 -43v533h123v-559q0 -67 -29 -97t-88 -30q-50 0 -113 10v100q41 -4 72 -4q21 0 28 9t7 38z" />
    <glyph glyph-name="Kcommaaccent" unicode="&#x136;" horiz-adv-x="489" 
d="M175 273v-273h-123v622h123v-269h22l138 269h140l-172 -307l186 -315h-144q-76 150 -149 273h-21zM192 -117v71h125v-34q-2 -44 -20 -92l-25 -66h-91l7 46q4 24 4 75z" />
    <glyph glyph-name="kcommaaccent" unicode="&#x137;" horiz-adv-x="463" 
d="M172 219v-219h-123v654h123v-358h11l126 197h145l-162 -235l174 -258h-144l-139 219h-11zM179 -117v71h125v-34q-2 -44 -20 -92l-25 -66h-91l7 46q4 24 4 75z" />
    <glyph glyph-name="Lacute" unicode="&#x139;" horiz-adv-x="426" 
d="M412 109v-109h-360v622h123v-513h237zM257 833l-89 -171h-106l52 171h143z" />
    <glyph glyph-name="lacute" unicode="&#x13a;" horiz-adv-x="224" 
d="M172 654v-654h-123v654h123zM248 856l-89 -171h-106l52 171h143z" />
    <glyph glyph-name="Lcommaaccent" unicode="&#x13b;" horiz-adv-x="426" 
d="M166 -117v71h125v-34q-2 -44 -20 -92l-25 -66h-91l7 46q4 24 4 75zM412 109v-109h-360v622h123v-513h237z" />
    <glyph glyph-name="lcommaaccent" unicode="&#x13c;" horiz-adv-x="224" 
d="M48 -117v71h125v-34q-2 -44 -20 -92l-25 -66h-91l7 46q4 24 4 75zM172 654v-654h-123v654h123z" />
    <glyph glyph-name="Lcaron" unicode="&#x13d;" horiz-adv-x="426" 
d="M247 545v109h124v-72q0 -44 -18 -94l-32 -91h-88l9 73q5 38 5 75zM412 109v-109h-360v622h123v-513h237z" />
    <glyph glyph-name="lcaron" unicode="&#x13e;" horiz-adv-x="372" 
d="M228 545v109h124v-72q0 -44 -18 -94l-32 -91h-88l9 73q5 38 5 75zM172 654v-654h-123v654h123z" />
    <glyph glyph-name="Ldot" unicode="&#x13f;" horiz-adv-x="426" 
d="M354 392v-116h-117v116h117zM412 109v-109h-360v622h123v-513h237z" />
    <glyph glyph-name="ldot" unicode="&#x140;" horiz-adv-x="374" 
d="M344 329v-128h-127v128h127zM172 654v-654h-123v654h123z" />
    <glyph glyph-name="Lslash" unicode="&#x141;" horiz-adv-x="445" 
d="M71 211l-50 -30v111l50 30v300h123v-225l122 75v-111l-122 -75v-177h237v-109h-360v211z" />
    <glyph glyph-name="lslash" unicode="&#x142;" horiz-adv-x="262" 
d="M191 306v-306h-123v231l-52 -31v110l52 31v313h123v-238l55 34v-110z" />
    <glyph glyph-name="Nacute" unicode="&#x143;" horiz-adv-x="547" 
d="M493 622v-622h-116l-198 403h-9v-403h-118v622h124l190 -393h9v393h118zM403 833l-89 -171h-106l52 171h143z" />
    <glyph glyph-name="nacute" unicode="&#x144;" horiz-adv-x="515" 
d="M182 0h-123v296q0 56 -9 104l-16 90h111l21 -82q41 95 161 95q77 0 107 -31.5t30 -107.5v-364h-124v334q0 36 -12 49.5t-47 13.5q-55 0 -77 -36.5t-22 -124.5v-236zM388 706l-89 -171h-117l63 171h143z" />
    <glyph glyph-name="Ncommaaccent" unicode="&#x145;" horiz-adv-x="547" 
d="M493 622v-622h-116l-198 403h-9v-403h-118v622h124l190 -393h9v393h118zM223 -117v71h125v-34q-2 -44 -20 -92l-25 -66h-91l7 46q4 24 4 75z" />
    <glyph glyph-name="ncommaaccent" unicode="&#x146;" horiz-adv-x="515" 
d="M182 0h-123v296q0 56 -9 104l-16 90h111l21 -82q41 95 161 95q77 0 107 -31.5t30 -107.5v-364h-124v334q0 36 -12 49.5t-47 13.5q-55 0 -77 -36.5t-22 -124.5v-236zM203 -117v71h125v-34q-2 -44 -20 -92l-25 -66h-91l7 46q4 24 4 75z" />
    <glyph glyph-name="Ncaron" unicode="&#x147;" horiz-adv-x="547" 
d="M493 622v-622h-116l-198 403h-9v-403h-118v622h124l190 -393h9v393h118zM437 833l-99 -171h-123l-99 171h104l53 -78h6l54 78h104z" />
    <glyph glyph-name="ncaron" unicode="&#x148;" horiz-adv-x="515" 
d="M182 0h-123v296q0 56 -9 104l-16 90h111l21 -82q41 95 161 95q77 0 107 -31.5t30 -107.5v-364h-124v334q0 36 -12 49.5t-47 13.5q-55 0 -77 -36.5t-22 -124.5v-236zM426 706l-99 -171h-145l-77 171h104l53 -78h6l54 78h104z" />
    <glyph glyph-name="Eng" unicode="&#x14a;" horiz-adv-x="547" 
d="M335 -90q22 0 28.5 8.5t6.5 38.5v57l-196 389h-9q5 -242 5 -264v-139h-118v622h124l195 -393h9q-5 235 -5 252v141h118v-691q0 -67 -29 -97t-88 -30q-46 0 -113 12v98q62 -4 72 -4z" />
    <glyph glyph-name="eng" unicode="&#x14b;" horiz-adv-x="515" 
d="M464 364v-433q0 -67 -29 -97t-88 -30q-50 0 -113 10v100q41 -4 72 -4q21 0 27.5 8.5t6.5 38.5v377q0 36 -12 49.5t-47 13.5q-55 0 -77 -36.5t-22 -124.5v-236h-123v296q0 56 -9 104l-16 90h111l21 -82q41 95 161 95q77 0 107 -31.5t30 -107.5z" />
    <glyph glyph-name="Omacron" unicode="&#x14c;" horiz-adv-x="536" 
d="M496 343v-72q0 -64 -6 -110.5t-21 -77t-31.5 -49t-46 -27.5t-55.5 -11.5t-68 -2.5q-69 0 -109 10t-68.5 40.5t-39.5 84t-11 143.5v72q0 79 10 132t26 83t47.5 45.5t62 19.5t82.5 4q94 0 139 -20.5t65.5 -79.5t23.5 -184zM373 283v54q-1 47 -2.5 73t-6.5 49t-10 32.5
t-18.5 17t-27 9.5t-40.5 3q-30 -1 -45 -5t-28.5 -12.5t-18.5 -30.5t-8.5 -52t-4.5 -84v-54q1 -47 2.5 -73t6.5 -49t10 -32.5t18.5 -17t27 -9.5t40.5 -3q30 1 45 5t28.5 12.5t18.5 30.5t8.5 52t4.5 84zM381 679h-225v95h225v-95z" />
    <glyph glyph-name="omacron" unicode="&#x14d;" horiz-adv-x="504" 
d="M244 -10q-83 2 -122.5 21t-58 71t-21.5 161q2 84 12.5 133t37 78t64 38.5t104.5 10.5q80 0 121.5 -19.5t61 -72.5t19.5 -158q0 -157 -45.5 -210t-172.5 -53zM248 93q58 0 73.5 27t15.5 125q0 101 -14.5 128t-66.5 27q-58 0 -74 -26.5t-16 -122.5q0 -102 14.5 -130
t67.5 -28zM365 552h-225v95h225v-95z" />
    <glyph glyph-name="Obreve" unicode="&#x14e;" horiz-adv-x="536" 
d="M496 343v-72q0 -64 -6 -110.5t-21 -77t-31.5 -49t-46 -27.5t-55.5 -11.5t-68 -2.5q-69 0 -109 10t-68.5 40.5t-39.5 84t-11 143.5v72q0 79 10 132t26 83t47.5 45.5t62 19.5t82.5 4q94 0 139 -20.5t65.5 -79.5t23.5 -184zM373 283v54q-1 47 -2.5 73t-6.5 49t-10 32.5
t-18.5 17t-27 9.5t-40.5 3q-30 -1 -45 -5t-28.5 -12.5t-18.5 -30.5t-8.5 -52t-4.5 -84v-54q1 -47 2.5 -73t6.5 -49t10 -32.5t18.5 -17t27 -9.5t40.5 -3q30 1 45 5t28.5 12.5t18.5 30.5t8.5 52t4.5 84zM135 775v55h84v-46q0 -22 10 -30.5t39 -8.5t39 8.5t10 30.5v46h84v-55
q0 -65 -30.5 -92.5t-102.5 -27.5t-102.5 27.5t-30.5 92.5z" />
    <glyph glyph-name="obreve" unicode="&#x14f;" horiz-adv-x="504" 
d="M244 -10q-83 2 -122.5 21t-58 71t-21.5 161q2 84 12.5 133t37 78t64 38.5t104.5 10.5q80 0 121.5 -19.5t61 -72.5t19.5 -158q0 -157 -45.5 -210t-172.5 -53zM248 93q58 0 73.5 27t15.5 125q0 101 -14.5 128t-66.5 27q-58 0 -74 -26.5t-16 -122.5q0 -102 14.5 -130
t67.5 -28zM119 651v55h84v-46q0 -22 10 -30.5t39 -8.5t39 8.5t10 30.5v46h84v-55q0 -65 -30.5 -92.5t-102.5 -27.5t-102.5 27.5t-30.5 92.5z" />
    <glyph glyph-name="Ohungarumlaut" unicode="&#x150;" horiz-adv-x="536" 
d="M496 343v-72q0 -64 -6 -110.5t-21 -77t-31.5 -49t-46 -27.5t-55.5 -11.5t-68 -2.5q-69 0 -109 10t-68.5 40.5t-39.5 84t-11 143.5v72q0 79 10 132t26 83t47.5 45.5t62 19.5t82.5 4q94 0 139 -20.5t65.5 -79.5t23.5 -184zM373 283v54q-1 47 -2.5 73t-6.5 49t-10 32.5
t-18.5 17t-27 9.5t-40.5 3q-30 -1 -45 -5t-28.5 -12.5t-18.5 -30.5t-8.5 -52t-4.5 -84v-54q1 -47 2.5 -73t6.5 -49t10 -32.5t18.5 -17t27 -9.5t40.5 -3q30 1 45 5t28.5 12.5t18.5 30.5t8.5 52t4.5 84zM301 833l-71 -171h-104l37 171h138zM482 833l-100 -171h-107l66 171h141
z" />
    <glyph glyph-name="ohungarumlaut" unicode="&#x151;" horiz-adv-x="504" 
d="M244 -10q-83 2 -122.5 21t-58 71t-21.5 161q2 84 12.5 133t37 78t64 38.5t104.5 10.5q80 0 121.5 -19.5t61 -72.5t19.5 -158q0 -157 -45.5 -210t-172.5 -53zM248 93q58 0 73.5 27t15.5 125q0 101 -14.5 128t-66.5 27q-58 0 -74 -26.5t-16 -122.5q0 -102 14.5 -130
t67.5 -28zM288 706l-71 -171h-104l37 171h138zM469 706l-100 -171h-107l66 171h141z" />
    <glyph glyph-name="OE" unicode="&#x152;" horiz-adv-x="776" 
d="M753 109v-109h-350v32q-37 -39 -135 -39q-66 0 -103.5 8.5t-68 37t-42.5 84t-14 148.5v72q0 51 3 90t11.5 68.5t17.5 50.5t25.5 34.5t31.5 22t39.5 12.5t45.5 5t54 1q98 0 135 -35v30h340v-109h-247v-139h185v-110h-185v-155h257zM373 276v62q-1 46 -2.5 72t-6.5 48.5
t-10 32t-18.5 17.5t-27.5 9.5t-40 3.5q-27 -1 -40.5 -3t-27 -9.5t-18.5 -17t-10 -32.5t-6.5 -49t-2.5 -73v-54q1 -54 4.5 -84t8.5 -52t18.5 -30.5t28.5 -12.5t45 -5q37 1 54 5.5t29.5 24t16 51.5t5.5 96z" />
    <glyph glyph-name="oe" unicode="&#x153;" horiz-adv-x="773" 
d="M735 270v-56h-275q1 -76 19 -97t81 -21q64 0 168 17v-103q-91 -20 -174 -20q-114 0 -155 42q-45 -42 -155 -42q-83 2 -122.5 21t-58 71t-21.5 161q3 109 24 164t65 75.5t129 20.5q106 0 143 -37q40 37 144 37q114 0 151 -50.5t37 -182.5zM248 93q56 0 72.5 28t16.5 124
q0 101 -14.5 128t-66.5 27q-57 0 -73.5 -26t-16.5 -123q0 -102 14.5 -130t67.5 -28zM460 290h159q0 68 -13 89t-61 21q-50 0 -67 -20.5t-18 -89.5z" />
    <glyph glyph-name="Racute" unicode="&#x154;" horiz-adv-x="508" 
d="M377 261l114 -261h-136l-85 239h-95v-239h-123v616q130 11 204 11q120 0 164 -36.5t44 -148.5q0 -140 -87 -181zM175 522v-190h65q59 0 78 21t19 82q0 53 -19 71.5t-71 18.5q-45 0 -72 -3zM377 833l-89 -171h-106l52 171h143z" />
    <glyph glyph-name="racute" unicode="&#x155;" horiz-adv-x="362" 
d="M182 0h-123v296q0 56 -9 104l-16 90h111l18 -71q37 81 121 81q37 0 64 -10v-106q-36 7 -67 7q-51 0 -75 -41.5t-24 -128.5v-221zM305 706l-89 -171h-106l52 171h143z" />
    <glyph glyph-name="Rcommaaccent" unicode="&#x156;" horiz-adv-x="508" 
d="M377 261l114 -261h-136l-85 239h-95v-239h-123v616q130 11 204 11q120 0 164 -36.5t44 -148.5q0 -140 -87 -181zM175 522v-190h65q59 0 78 21t19 82q0 53 -19 71.5t-71 18.5q-45 0 -72 -3zM200 -117v71h125v-34q-2 -44 -20 -92l-25 -66h-91l7 46q4 24 4 75z" />
    <glyph glyph-name="rcommaaccent" unicode="&#x157;" horiz-adv-x="362" 
d="M182 0h-123v296q0 56 -9 104l-16 90h111l18 -71q37 81 121 81q37 0 64 -10v-106q-36 7 -67 7q-51 0 -75 -41.5t-24 -128.5v-221zM59 -121v71h123l2 -34q-2 -44 -20 -92l-25 -66h-91l7 46q4 24 4 75z" />
    <glyph glyph-name="Rcaron" unicode="&#x158;" horiz-adv-x="508" 
d="M377 261l114 -261h-136l-85 239h-95v-239h-123v616q130 11 204 11q120 0 164 -36.5t44 -148.5q0 -140 -87 -181zM175 522v-190h65q59 0 78 21t19 82q0 53 -19 71.5t-71 18.5q-45 0 -72 -3zM415 833l-99 -171h-123l-99 171h104l53 -78h6l54 78h104z" />
    <glyph glyph-name="rcaron" unicode="&#x159;" horiz-adv-x="362" 
d="M182 0h-123v296q0 56 -9 104l-16 90h111l18 -71q37 81 121 81q37 0 64 -10v-106q-36 7 -67 7q-51 0 -75 -41.5t-24 -128.5v-221zM342 706l-99 -171h-123l-99 171h104l53 -78h6l54 78h104z" />
    <glyph glyph-name="Sacute" unicode="&#x15a;" horiz-adv-x="457" 
d="M257 247l-113 51q-57 26 -78.5 57.5t-21.5 97.5q0 94 46.5 134t138.5 40q88 0 175 -25v-102q-88 18 -155 18q-52 0 -68.5 -12t-16.5 -53q-1 -25 9 -36.5t41 -24.5l110 -49q56 -25 77.5 -59.5t21.5 -102.5q0 -101 -54 -144.5t-161 -43.5q-87 0 -171 23v104q85 -18 157 -18
q65 0 87.5 15t22.5 57q0 30 -9.5 45t-37.5 28zM358 833l-89 -171h-106l52 171h143z" />
    <glyph glyph-name="sacute" unicode="&#x15b;" horiz-adv-x="439" 
d="M210 -10q-79 0 -169 21v102q91 -17 158 -17q47 0 62.5 10.5t15.5 40.5q0 28 -31 41l-115 49q-41 17 -58.5 44t-17.5 76q0 146 169 146q68 0 165 -18v-103q-95 19 -150 19q-34 0 -46.5 -10t-12.5 -33q0 -16 5 -23.5t20 -13.5l117 -47q44 -18 61.5 -46t17.5 -77
q0 -85 -47.5 -123t-143.5 -38zM355 706l-89 -171h-106l52 171h143z" />
    <glyph glyph-name="Scircumflex" unicode="&#x15c;" horiz-adv-x="457" 
d="M257 247l-113 51q-57 26 -78.5 57.5t-21.5 97.5q0 94 46.5 134t138.5 40q88 0 175 -25v-102q-88 18 -155 18q-52 0 -68.5 -12t-16.5 -53q-1 -25 9 -36.5t41 -24.5l110 -49q56 -25 77.5 -59.5t21.5 -102.5q0 -101 -54 -144.5t-161 -43.5q-87 0 -171 23v104q85 -18 157 -18
q65 0 87.5 15t22.5 57q0 30 -9.5 45t-37.5 28zM72 662l99 171h123l99 -171h-105l-53 77h-6l-53 -77h-104z" />
    <glyph glyph-name="scircumflex" unicode="&#x15d;" horiz-adv-x="439" 
d="M210 -10q-79 0 -169 21v102q91 -17 158 -17q47 0 62.5 10.5t15.5 40.5q0 28 -31 41l-115 49q-41 17 -58.5 44t-17.5 76q0 146 169 146q68 0 165 -18v-103q-95 19 -150 19q-34 0 -46.5 -10t-12.5 -33q0 -16 5 -23.5t20 -13.5l117 -47q44 -18 61.5 -46t17.5 -77
q0 -85 -47.5 -123t-143.5 -38zM68 535l99 171h123l99 -171h-105l-53 77h-6l-53 -77h-104z" />
    <glyph glyph-name="Scedilla" unicode="&#x15e;" horiz-adv-x="457" 
d="M228 -227q-34 0 -90 12v87q53 -8 74 -8q22 0 22 12q0 4 -32 28t-32 46q0 18 9 44q-83 5 -142 22v104q85 -18 157 -18q65 0 87.5 15t22.5 57q0 30 -9.5 45t-37.5 28l-113 51q-57 26 -78.5 57.5t-21.5 97.5q0 94 46.5 134t138.5 40q88 0 175 -25v-102q-88 18 -155 18
q-52 0 -68.5 -12t-16.5 -53q-1 -26 9 -36.5t41 -24.5l110 -49q56 -25 77.5 -59.5t21.5 -102.5q0 -164 -159 -184q-4 -12 -4 -23q0 -10 18 -21q35 -19 48 -35.5t13 -45.5q0 -52 -27 -75.5t-84 -23.5z" />
    <glyph glyph-name="scedilla" unicode="&#x15f;" horiz-adv-x="439" 
d="M219 -227q-35 0 -90 12v87q53 -8 74 -8q22 0 22 12q0 4 -32 28t-32 46q0 20 8 42q-66 5 -128 19v102q91 -17 158 -17q47 0 62.5 10.5t15.5 40.5q0 28 -31 41l-115 49q-41 17 -58.5 44t-17.5 76q0 146 169 146q68 0 165 -18v-103q-95 19 -150 19q-34 0 -46.5 -10
t-12.5 -33q0 -16 5 -23.5t20 -13.5l117 -47q44 -18 61.5 -46t17.5 -77q0 -143 -147 -158q-3 -12 -3 -19q0 -10 18 -21q35 -19 48 -35.5t13 -45.5q0 -52 -27 -75.5t-84 -23.5z" />
    <glyph glyph-name="Scaron" unicode="&#x160;" horiz-adv-x="457" 
d="M257 247l-113 51q-57 26 -78.5 57.5t-21.5 97.5q0 94 46.5 134t138.5 40q88 0 175 -25v-102q-88 18 -155 18q-52 0 -68.5 -12t-16.5 -53q-1 -25 9 -36.5t41 -24.5l110 -49q56 -25 77.5 -59.5t21.5 -102.5q0 -101 -54 -144.5t-161 -43.5q-87 0 -171 23v104q85 -18 157 -18
q65 0 87.5 15t22.5 57q0 30 -9.5 45t-37.5 28zM396 833l-99 -171h-123l-99 171h104l53 -78h6l54 78h104z" />
    <glyph glyph-name="scaron" unicode="&#x161;" horiz-adv-x="439" 
d="M210 -10q-79 0 -169 21v102q91 -17 158 -17q47 0 62.5 10.5t15.5 40.5q0 28 -31 41l-115 49q-41 17 -58.5 44t-17.5 76q0 146 169 146q68 0 165 -18v-103q-95 19 -150 19q-34 0 -46.5 -10t-12.5 -33q0 -16 5 -23.5t20 -13.5l117 -47q44 -18 61.5 -46t17.5 -77
q0 -85 -47.5 -123t-143.5 -38zM389 706l-99 -171h-123l-99 171h104l53 -78h6l54 78h104z" />
    <glyph glyph-name="Tcommaaccent" unicode="&#x162;" horiz-adv-x="450" 
d="M286 513v-513h-123v513h-150v109h424v-109h-151zM163 -117v71h123l2 -34q-2 -44 -20 -92l-25 -66h-91l7 46q4 24 4 75z" />
    <glyph glyph-name="tcommaaccent" unicode="&#x163;" horiz-adv-x="332" 
d="M86 394h-68v96h68v106h123v-106h101v-96h-101v-252q0 -28 7 -36t32 -8t64 10v-102q-64 -16 -113 -16q-61 0 -87 28.5t-26 98.5v277zM127 -117v71h125v-34q-2 -44 -20 -92l-25 -66h-91l7 46q4 24 4 75z" />
    <glyph glyph-name="Tcaron" unicode="&#x164;" horiz-adv-x="450" 
d="M286 513v-513h-123v513h-150v109h424v-109h-151zM386 833l-99 -171h-123l-99 171h104l53 -78h6l54 78h104z" />
    <glyph glyph-name="tcaron" unicode="&#x165;" horiz-adv-x="504" 
d="M86 394h-68v96h68v106h123v-106h101v-96h-101v-252q0 -28 7 -36t32 -8t64 10v-102q-64 -16 -113 -16q-61 0 -87 28.5t-26 98.5v277zM359 545v109h124v-72q0 -44 -18 -94l-32 -91h-88l9 73q5 38 5 75z" />
    <glyph glyph-name="Tbar" unicode="&#x166;" horiz-adv-x="450" 
d="M163 256h-134v101h134v156h-150v109h424v-109h-151v-156h134v-101h-134v-256h-123v256z" />
    <glyph glyph-name="tbar" unicode="&#x167;" horiz-adv-x="332" 
d="M86 394h-68v96h68v106h123v-106h101v-96h-101v-94h101v-96h-101v-62q0 -28 7 -36t32 -8t64 10v-102q-64 -16 -113 -16q-61 0 -87 28.5t-26 98.5v87h-68v96h68v94z" />
    <glyph glyph-name="Utilde" unicode="&#x168;" horiz-adv-x="528" 
d="M353 183v439h123v-437q0 -107 -48 -149.5t-164 -42.5t-164 42.5t-48 149.5v437h123v-439q0 -48 19 -66.5t70 -18.5t70 18.5t19 66.5zM335 773q24 0 72 14v-86q-44 -26 -89 -26q-16 0 -64.5 11.5t-59.5 11.5q-24 0 -72 -14v86q44 25 89 25q16 0 64.5 -11t59.5 -11z" />
    <glyph glyph-name="utilde" unicode="&#x169;" horiz-adv-x="507" 
d="M329 490h123v-296q0 -58 9 -105l16 -89h-111l-21 79q-39 -89 -161 -89q-75 0 -105 30t-30 103v367h123v-336q0 -35 11.5 -46.5t47.5 -11.5q55 0 76.5 36t21.5 125v233zM322 653q24 0 72 14v-86q-44 -26 -89 -26q-16 0 -64.5 11.5t-59.5 11.5q-24 0 -72 -14v86
q44 25 89 25q16 0 64.5 -11t59.5 -11z" />
    <glyph glyph-name="Umacron" unicode="&#x16a;" horiz-adv-x="528" 
d="M353 183v439h123v-437q0 -107 -48 -149.5t-164 -42.5t-164 42.5t-48 149.5v437h123v-439q0 -48 19 -66.5t70 -18.5t70 18.5t19 66.5zM377 679h-225v95h225v-95z" />
    <glyph glyph-name="umacron" unicode="&#x16b;" horiz-adv-x="507" 
d="M329 490h123v-296q0 -58 9 -105l16 -89h-111l-21 79q-39 -89 -161 -89q-75 0 -105 30t-30 103v367h123v-336q0 -35 11.5 -46.5t47.5 -11.5q55 0 76.5 36t21.5 125v233zM364 552h-225v95h225v-95z" />
    <glyph glyph-name="Ubreve" unicode="&#x16c;" horiz-adv-x="528" 
d="M131 775v55h84v-46q0 -22 10 -30.5t39 -8.5t39 8.5t10 30.5v46h84v-55q0 -65 -30.5 -92.5t-102.5 -27.5t-102.5 27.5t-30.5 92.5zM353 183v439h123v-437q0 -107 -48 -149.5t-164 -42.5t-164 42.5t-48 149.5v437h123v-439q0 -48 19 -66.5t70 -18.5t70 18.5t19 66.5z" />
    <glyph glyph-name="ubreve" unicode="&#x16d;" horiz-adv-x="507" 
d="M329 490h123v-296q0 -58 9 -105l16 -89h-111l-21 79q-39 -89 -161 -89q-75 0 -105 30t-30 103v367h123v-336q0 -35 11.5 -46.5t47.5 -11.5q55 0 76.5 36t21.5 125v233zM118 651v55h84v-46q0 -22 10 -30.5t39 -8.5t39 8.5t10 30.5v46h84v-55q0 -65 -30.5 -92.5
t-102.5 -27.5t-102.5 27.5t-30.5 92.5z" />
    <glyph glyph-name="Uring" unicode="&#x16e;" horiz-adv-x="528" 
d="M264 876q72 0 102 -24.5t30 -86.5t-30 -86t-102 -24t-101.5 24t-29.5 86t30 86.5t101 24.5zM264 799q-27 0 -36.5 -7.5t-9.5 -27.5t9 -26.5t37 -6.5q29 0 38 6.5t9 27.5t-9 27.5t-38 6.5zM353 183v439h123v-437q0 -107 -48 -149.5t-164 -42.5t-164 42.5t-48 149.5v437
h123v-439q0 -48 19 -66.5t70 -18.5t70 18.5t19 66.5z" />
    <glyph glyph-name="uring" unicode="&#x16f;" horiz-adv-x="507" 
d="M329 490h123v-296q0 -58 9 -105l16 -89h-111l-21 79q-39 -89 -161 -89q-75 0 -105 30t-30 103v367h123v-336q0 -35 11.5 -46.5t47.5 -11.5q55 0 76.5 36t21.5 125v233zM251 752q72 0 102 -24.5t30 -86.5t-30 -86t-102 -24t-101.5 24t-29.5 86t30 86.5t101 24.5zM251 675
q-27 0 -36.5 -7.5t-9.5 -27.5t9 -26.5t37 -6.5q29 0 38 6.5t9 27.5t-9 27.5t-38 6.5z" />
    <glyph glyph-name="Uhungarumlaut" unicode="&#x170;" horiz-adv-x="528" 
d="M353 183v439h123v-437q0 -107 -48 -149.5t-164 -42.5t-164 42.5t-48 149.5v437h123v-439q0 -48 19 -66.5t70 -18.5t70 18.5t19 66.5zM305 833l-71 -171h-104l37 171h138zM486 833l-100 -171h-107l66 171h141z" />
    <glyph glyph-name="uhungarumlaut" unicode="&#x171;" horiz-adv-x="507" 
d="M329 490h123v-296q0 -58 9 -105l16 -89h-111l-21 79q-39 -89 -161 -89q-75 0 -105 30t-30 103v367h123v-336q0 -35 11.5 -46.5t47.5 -11.5q55 0 76.5 36t21.5 125v233zM292 706l-71 -171h-104l37 171h138zM473 706l-100 -171h-107l66 171h141z" />
    <glyph glyph-name="Uogonek" unicode="&#x172;" horiz-adv-x="528" 
d="M293 -84q0 -16 13 -16q1 0 53 5v-89q-54 -12 -101 -12q-44 0 -65 18.5t-21 63.5q0 38 11 61.5t39 47.5q-92 6 -131 49.5t-39 140.5v437h123v-439q0 -48 19 -66.5t70 -18.5t70 18.5t19 66.5v439h123v-437q0 -74 -20.5 -113.5t-77.5 -71.5q-49 -28 -67 -46.5t-18 -37.5z
" />
    <glyph glyph-name="uogonek" unicode="&#x173;" horiz-adv-x="507" 
d="M377 -196q-45 0 -66 18.5t-21 63.5q0 43 15 68t58 58l-18 67q-39 -89 -161 -89q-75 0 -105 30t-30 103v367h123v-336q0 -35 11.5 -46.5t47.5 -11.5q55 0 76.5 36t21.5 125v233h123v-296q0 -58 9 -105l16 -89q-42 -38 -53.5 -52.5t-11.5 -31.5q0 -16 13 -16l52 5v-89
q-53 -12 -100 -12z" />
    <glyph glyph-name="Wcircumflex" unicode="&#x174;" horiz-adv-x="714" 
d="M698 622l-77 -622h-184l-78 380h-10l-79 -380h-177l-77 622h129l51 -490h10l85 434h133l88 -434h10l52 490h124zM197 662l99 171h123l99 -171h-105l-53 77h-6l-53 -77h-104z" />
    <glyph glyph-name="wcircumflex" unicode="&#x175;" horiz-adv-x="692" 
d="M342 294l-57 -294h-188l-89 490h133l56 -380h12l68 363h138l68 -363h12l56 380h133l-89 -490h-189l-56 294h-8zM186 535l99 171h123l99 -171h-105l-53 77h-6l-53 -77h-104z" />
    <glyph glyph-name="Ycircumflex" unicode="&#x176;" horiz-adv-x="479" 
d="M301 217v-217h-123v217l-175 405h137l97 -269h5l98 269h136zM79 662l99 171h123l99 -171h-105l-53 77h-6l-53 -77h-104z" />
    <glyph glyph-name="ycircumflex" unicode="&#x177;" horiz-adv-x="469" 
d="M137 0l-129 490h134l84 -388h11l91 388h134l-145 -523q-26 -97 -60 -130t-113 -33q-59 0 -117 16v99q64 -10 104 -10q38 0 52 10.5t22 42.5l9 38h-77zM77 535l99 171h123l99 -171h-105l-53 77h-6l-53 -77h-104z" />
    <glyph glyph-name="Ydieresis" unicode="&#x178;" horiz-adv-x="479" 
d="M301 217v-217h-123v217l-175 405h137l97 -269h5l98 269h136zM217 784v-102h-121v102h121zM383 784v-102h-121v102h121z" />
    <glyph glyph-name="Zacute" unicode="&#x179;" horiz-adv-x="434" 
d="M413 109v-109h-393v103l253 410h-235v109h371v-103l-253 -410h257zM352 833l-89 -171h-106l52 171h143z" />
    <glyph glyph-name="zacute" unicode="&#x17a;" horiz-adv-x="401" 
d="M156 102h222v-102h-358v101l221 287h-201v102h338v-96zM334 706l-89 -171h-89l35 171h143z" />
    <glyph glyph-name="Zdotaccent" unicode="&#x17b;" horiz-adv-x="434" 
d="M413 109v-109h-393v103l253 410h-235v109h371v-103l-253 -410h257zM285 784v-102h-129v102h129z" />
    <glyph glyph-name="zdotaccent" unicode="&#x17c;" horiz-adv-x="401" 
d="M156 102h222v-102h-358v101l221 287h-201v102h338v-96zM273 654v-102h-117l-12 102h129z" />
    <glyph glyph-name="Zcaron" unicode="&#x17d;" horiz-adv-x="434" 
d="M413 109v-109h-393v103l253 410h-235v109h371v-103l-253 -410h257zM382 833l-99 -171h-123l-99 171h104l53 -78h6l54 78h104z" />
    <glyph glyph-name="zcaron" unicode="&#x17e;" horiz-adv-x="401" 
d="M156 102h222v-102h-358v101l221 287h-201v102h338v-96zM369 706l-99 -171h-114l-108 171h104l53 -78h6l54 78h104z" />
    <glyph glyph-name="florin" unicode="&#x192;" 
d="M172 333h-69v93h82l11 80q10 70 37 95.5t87 25.5q49 0 111 -13v-94q-52 7 -81 7q-21 0 -27 -8.5t-10 -39.5l-7 -53h80v-93h-92l-29 -222q-9 -68 -37.5 -94.5t-89.5 -26.5q-47 0 -104 15v94q41 -9 74 -9q20 0 26 7.5t11 40.5z" />
    <glyph glyph-name="AEacute" unicode="&#x1fc;" horiz-adv-x="732" 
d="M709 109v-109h-381v163h-155l-38 -163h-130l158 622h536v-109h-248v-139h186v-110h-186v-155h258zM328 519h-71l-62 -262h133v262zM544 833l-89 -171h-106l52 171h143z" />
    <glyph glyph-name="aeacute" unicode="&#x1fd;" horiz-adv-x="740" 
d="M521 -10q-97 0 -139 22.5t-58 87.5q-33 -110 -163 -110q-67 0 -98 34.5t-31 112.5q0 81 42.5 115t148.5 34h83v44q0 44 -15.5 56.5t-64.5 12.5q-44 0 -162 -18v102q103 20 179 20q105 0 141 -33q45 33 140 33q106 0 142 -50t36 -183v-56h-274q0 -77 17 -97.5t79 -20.5
q71 0 171 17v-103q-91 -20 -174 -20zM205 88q45 0 73 26t28 75v26q-80 -2 -111 -8t-38.5 -16.5t-7.5 -40.5q0 -38 11.5 -50t44.5 -12zM512 400q-49 0 -66 -20.5t-18 -89.5h158q0 68 -13 89t-61 21zM518 706l-89 -171h-106l52 171h143z" />
    <glyph glyph-name="Oslashacute" unicode="&#x1fe;" horiz-adv-x="536" 
d="M496 343v-72q0 -64 -6 -110.5t-21 -77t-31.5 -49t-46 -27.5t-55.5 -11.5t-68 -2.5q-69 0 -109 10t-68.5 40.5t-39.5 84t-11 143.5v72q0 79 10 132t26 83t47.5 45.5t62 19.5t82.5 4q94 0 139 -20.5t65.5 -79.5t23.5 -184zM373 283v83l-198 -222q9 -27 29 -36t64 -9
q30 1 45 5t28.5 12.5t18.5 30.5t8.5 52t4.5 84zM163 337v-77l196 219q-10 24 -30 33t-61 9q-30 -1 -45 -5t-28.5 -12.5t-18.5 -30.5t-8.5 -52t-4.5 -84zM393 833l-89 -171h-106l52 171h143z" />
    <glyph glyph-name="oslashacute" unicode="&#x1ff;" horiz-adv-x="504" 
d="M244 -10q-83 2 -122.5 21t-58 71t-21.5 161q2 84 12.5 133t37 78t64 38.5t104.5 10.5q80 0 121.5 -19.5t61 -72.5t19.5 -158q0 -157 -45.5 -210t-172.5 -53zM376 706l-89 -171h-106l52 171h143zM166 251v-45l160 158q-8 21 -23.5 28.5t-46.5 7.5q-58 0 -74 -26.5
t-16 -122.5zM248 93q58 0 73.5 27t15.5 125q0 32 -1 40l-159 -156q9 -21 24.5 -28.5t46.5 -7.5z" />
    <glyph glyph-name="Scommaaccent" unicode="&#x218;" horiz-adv-x="457" 
d="M257 247l-113 51q-57 26 -78.5 57.5t-21.5 97.5q0 94 46.5 134t138.5 40q88 0 175 -25v-102q-88 18 -155 18q-52 0 -68.5 -12t-16.5 -53q-1 -25 9 -36.5t41 -24.5l110 -49q56 -25 77.5 -59.5t21.5 -102.5q0 -101 -54 -144.5t-161 -43.5q-87 0 -171 23v104q85 -18 157 -18
q65 0 87.5 15t22.5 57q0 30 -9.5 45t-37.5 28zM177 -117v71h125v-34q-2 -44 -20 -92l-25 -66h-91l7 46q4 24 4 75z" />
    <glyph glyph-name="scommaaccent" unicode="&#x219;" horiz-adv-x="439" 
d="M210 -10q-79 0 -169 21v102q91 -17 158 -17q47 0 62.5 10.5t15.5 40.5q0 28 -31 41l-115 49q-41 17 -58.5 44t-17.5 76q0 146 169 146q68 0 165 -18v-103q-95 19 -150 19q-34 0 -46.5 -10t-12.5 -33q0 -16 5 -23.5t20 -13.5l117 -47q44 -18 61.5 -46t17.5 -77
q0 -85 -47.5 -123t-143.5 -38zM163 -117v71h125v-34q-2 -44 -20 -92l-25 -66h-91l7 46q4 24 4 75z" />
    <glyph glyph-name="dotlessj" unicode="&#x237;" horiz-adv-x="225" 
d="M49 -43v533h123v-559q0 -67 -29 -97t-88 -30q-50 0 -113 10v100q41 -4 72 -4q21 0 28 9t7 38z" />
    <glyph glyph-name="circumflex" unicode="&#x2c6;" horiz-adv-x="360" 
d="M20 535l99 171h123l99 -171h-105l-53 77h-6l-53 -77h-104z" />
    <glyph glyph-name="caron" unicode="&#x2c7;" horiz-adv-x="360" 
d="M341 706l-99 -171h-123l-99 171h104l53 -78h6l54 78h104z" />
    <glyph glyph-name="breve" unicode="&#x2d8;" horiz-adv-x="305" 
d="M24 651v55h84v-46q0 -22 10 -30.5t39 -8.5t39 8.5t10 30.5v46h84v-55q0 -65 -30.5 -92.5t-102.5 -27.5t-102.5 27.5t-30.5 92.5z" />
    <glyph glyph-name="dotaccent" unicode="&#x2d9;" horiz-adv-x="177" 
d="M153 654v-102h-129v102h129z" />
    <glyph glyph-name="ring" unicode="&#x2da;" horiz-adv-x="302" 
d="M155 752q72 0 102 -24.5t30 -86.5t-30 -86t-102 -24t-101.5 24t-29.5 86t30 86.5t101 24.5zM155 675q-27 0 -36.5 -7.5t-9.5 -27.5t9 -26.5t37 -6.5q29 0 38 6.5t9 27.5t-9 27.5t-38 6.5z" />
    <glyph glyph-name="ogonek" unicode="&#x2db;" horiz-adv-x="234" 
d="M110 -196q-45 0 -66 18.5t-21 63.5q0 52 23 81t118 91l46 -58q-42 -38 -53.5 -52.5t-11.5 -31.5q0 -16 13 -16q1 0 7 0.5t19 2t26 2.5v-89q-52 -12 -100 -12z" />
    <glyph glyph-name="tilde" unicode="&#x2dc;" horiz-adv-x="333" 
d="M237 653q24 0 72 14v-86q-44 -26 -89 -26q-16 0 -64.5 11.5t-59.5 11.5q-24 0 -72 -14v86q44 25 89 25q16 0 64.5 -11t59.5 -11z" />
    <glyph glyph-name="hungarumlaut" unicode="&#x2dd;" horiz-adv-x="395" 
d="M196 706l-71 -171h-104l37 171h138zM377 706l-100 -171h-107l66 171h141z" />
    <glyph glyph-name="afii10023" unicode="&#x401;" horiz-adv-x="455" 
d="M432 109v-109h-380v622h370v-109h-247v-139h185v-105h-185v-160h257zM215 781v-102h-121v102h121zM381 781v-102h-121v102h121z" />
    <glyph glyph-name="afii10051" unicode="&#x402;" horiz-adv-x="589" 
d="M273 0h-123v513h-134v109h396v-109h-139v-131q40 73 142 73q69 0 97.5 -31.5t28.5 -107.5v-202q0 -63 -25.5 -91t-80.5 -28q-47 0 -100 10v100q41 -6 54 -6q18 0 23 7.5t5 36.5v143q0 36 -12 49.5t-45 13.5q-47 0 -67 -31t-20 -103v-215z" />
    <glyph glyph-name="afii10052" unicode="&#x403;" horiz-adv-x="406" 
d="M175 513v-513h-123v622h340v-109h-217zM342 833l-89 -171h-106l52 171h143z" />
    <glyph glyph-name="afii10053" unicode="&#x404;" horiz-adv-x="453" 
d="M425 120v-104q-94 -23 -170 -23q-43 0 -71.5 4.5t-58 19.5t-46.5 43t-28 76.5t-11 118.5v90q0 57 7 102t18 74.5t29.5 50t34.5 31t41.5 16.5t42.5 7t44 1q76 0 168 -22v-104q-83 17 -141 17q-73 0 -98.5 -28t-28.5 -122h218v-96h-218q0 -42 2.5 -71t11.5 -48t16.5 -29.5
t25.5 -15t31.5 -5.5t41.5 -1q49 0 139 18z" />
    <glyph glyph-name="afii10054" unicode="&#x405;" horiz-adv-x="457" 
d="M257 247l-113 51q-57 26 -78.5 57.5t-21.5 97.5q0 94 46.5 134t138.5 40q88 0 175 -25v-102q-88 18 -155 18q-52 0 -68.5 -12t-16.5 -53q-1 -25 9 -36.5t41 -24.5l110 -49q56 -25 77.5 -59.5t21.5 -102.5q0 -101 -54 -144.5t-161 -43.5q-87 0 -171 23v104q85 -18 157 -18
q65 0 87.5 15t22.5 57q0 30 -9.5 45t-37.5 28z" />
    <glyph glyph-name="afii10055" unicode="&#x406;" horiz-adv-x="227" 
d="M175 622v-622h-123v622h123z" />
    <glyph glyph-name="afii10056" unicode="&#x407;" horiz-adv-x="227" 
d="M88 781v-102h-121v102h121zM254 781v-102h-121v102h121zM175 622v-622h-123v622h123z" />
    <glyph glyph-name="afii10057" unicode="&#x408;" horiz-adv-x="354" 
d="M179 174v448h124v-456q0 -90 -38.5 -131.5t-118.5 -41.5q-61 0 -133 18v101q61 -10 107 -10q35 0 47 14.5t12 57.5z" />
    <glyph glyph-name="afii10058" unicode="&#x409;" horiz-adv-x="827" 
d="M374 513h-120l-47 -433q-5 -46 -27.5 -66.5t-69.5 -20.5q-31 0 -93 8v100q32 -3 50 -3q16 0 22.5 7.5t9.5 33.5l51 483h347v-246q69 7 135 7q94 0 128 -43t34 -153q0 -114 -45 -154t-176 -40q-72 0 -199 11v509zM580 286q-28 0 -83 -3v-190q47 -3 82 -3q58 0 73.5 18
t15.5 83q0 59 -17 77t-71 18z" />
    <glyph glyph-name="afii10059" unicode="&#x40a;" horiz-adv-x="812" 
d="M359 622h123v-246q66 7 134 7q95 0 129 -43t34 -153q0 -114 -45 -154t-176 -40q-72 0 -199 11v266h-184v-270h-123v622h123v-246h184v246zM565 286q-27 0 -83 -3v-190q45 -3 82 -3q58 0 73 17.5t15 83.5q0 59 -16.5 77t-70.5 18z" />
    <glyph glyph-name="afii10060" unicode="&#x40b;" horiz-adv-x="589" 
d="M273 215v-215h-123v513h-134v109h396v-109h-139v-129q39 71 138 71q69 0 97.5 -31.5t28.5 -107.5v-316h-123v286q0 36 -12.5 49.5t-47.5 13.5q-42 0 -61.5 -31.5t-19.5 -102.5z" />
    <glyph glyph-name="afii10061" unicode="&#x40c;" horiz-adv-x="489" 
d="M175 273v-273h-123v622h123v-269h22l138 269h140l-172 -307l186 -315h-144q-76 150 -149 273h-21zM370 833l-89 -171h-106l52 171h143z" />
    <glyph glyph-name="afii10062" unicode="&#x40e;" horiz-adv-x="491" 
d="M158 173l-153 449h135l101 -352h14l98 352h133l-167 -500q-40 -127 -162 -127q-61 0 -116 12v100q53 -7 95 -7q39 0 58 14.5t34 58.5h-70zM114 775v55h85v-46q0 -22 10 -30.5t39 -8.5q28 0 38 8.5t10 30.5v46h85v-55q0 -65 -30.5 -92.5t-102.5 -27.5t-103 27.5t-31 92.5z
" />
    <glyph glyph-name="afii10145" unicode="&#x40f;" horiz-adv-x="528" 
d="M52 0v622h123v-513h178v513h123v-622h-160l-7 -105h-91l-7 105h-159z" />
    <glyph glyph-name="afii10017" unicode="&#x410;" horiz-adv-x="528" 
d="M366 622l158 -622h-131l-39 157h-182l-37 -157h-130l158 622h203zM271 519h-14l-62 -262h137z" />
    <glyph glyph-name="afii10018" unicode="&#x411;" horiz-adv-x="515" 
d="M52 4v618h384v-109h-261v-143q83 6 141 6q95 0 128.5 -41.5t33.5 -150.5q0 -112 -46 -151.5t-178 -39.5q-73 0 -202 11zM265 280q-30 0 -90 -3v-184q44 -3 85 -3q62 0 77 16.5t15 81.5q0 58 -16 75t-71 17z" />
    <glyph glyph-name="afii10019" unicode="&#x412;" horiz-adv-x="518" 
d="M52 4v612q115 11 195 11q121 0 165 -29.5t44 -122.5q0 -68 -17.5 -102.5t-60.5 -46.5q54 -11 77 -47t23 -111q0 -100 -47 -137.5t-177 -37.5q-98 0 -202 11zM175 522v-156h69q55 0 70.5 16t15.5 70q0 46 -14.5 59.5t-68.5 13.5q-37 0 -72 -3zM265 276h-90v-183
q48 -3 85 -3q61 0 76.5 16t15.5 77q0 56 -17 74.5t-70 18.5z" />
    <glyph glyph-name="afii10020" unicode="&#x413;" horiz-adv-x="406" 
d="M175 513v-513h-123v622h340v-109h-217z" />
    <glyph glyph-name="afii10021" unicode="&#x414;" horiz-adv-x="564" 
d="M551 109v-214h-90l-27 105h-303l-28 -105h-89v214h55l63 513h362v-513h57zM371 513h-135l-48 -404h183v404z" />
    <glyph glyph-name="afii10022" unicode="&#x415;" horiz-adv-x="455" 
d="M432 109v-109h-380v622h370v-109h-247v-139h185v-105h-185v-160h257z" />
    <glyph glyph-name="afii10024" unicode="&#x416;" horiz-adv-x="724" 
d="M423 273v-273h-123v273h-14l-147 -273h-140l180 314l-166 308h139l133 -269h15v269h123v-269h16l133 269h139l-166 -308l180 -314h-140l-147 273h-15z" />
    <glyph glyph-name="afii10025" unicode="&#x417;" horiz-adv-x="454" 
d="M30 13v104q113 -17 166 -17t72.5 19t19.5 65q0 48 -22 66t-88 18h-84v97h79q60 0 81 18.5t21 65.5q0 42 -14 56.5t-57 14.5q-37 0 -156 -17v104q115 20 179 20q93 0 133.5 -34t40.5 -124q0 -61 -28.5 -100.5t-79.5 -47.5q63 -4 91.5 -39t28.5 -108q0 -95 -47.5 -138
t-146.5 -43q-71 0 -189 20z" />
    <glyph glyph-name="afii10026" unicode="&#x418;" horiz-adv-x="554" 
d="M502 622v-622h-123v399h-9l-203 -399h-115v622h123v-399h9l199 399h119z" />
    <glyph glyph-name="afii10027" unicode="&#x419;" horiz-adv-x="554" 
d="M502 622v-622h-123v399h-9l-203 -399h-115v622h123v-399h9l199 399h119zM146 775v55h84v-46q0 -22 10 -30.5t39 -8.5t39 8.5t10 30.5v46h84v-55q0 -65 -30.5 -92.5t-102.5 -27.5t-102.5 27.5t-30.5 92.5z" />
    <glyph glyph-name="afii10028" unicode="&#x41a;" horiz-adv-x="489" 
d="M175 273v-273h-123v622h123v-269h22l138 269h140l-172 -307l186 -315h-144q-76 150 -149 273h-21z" />
    <glyph glyph-name="afii10029" unicode="&#x41b;" horiz-adv-x="555" 
d="M503 622v-622h-123v513h-127l-46 -433q-5 -46 -28 -66.5t-69 -20.5q-40 0 -93 8v100q30 -3 48 -3t24.5 7.5t9.5 33.5l51 483h353z" />
    <glyph glyph-name="afii10030" unicode="&#x41c;" horiz-adv-x="648" 
d="M596 622v-622h-123v171q0 43 6 280h-5l-101 -290h-99l-101 290h-6q6 -240 6 -286v-165h-121v622h167l105 -311h4l102 311h166z" />
    <glyph glyph-name="afii10031" unicode="&#x41d;" horiz-adv-x="538" 
d="M486 622v-622h-123v270h-188v-270h-123v622h123v-246h188v246h123z" />
    <glyph glyph-name="afii10032" unicode="&#x41e;" horiz-adv-x="536" 
d="M496 343v-72q0 -64 -6 -110.5t-21 -77t-31.5 -49t-46 -27.5t-55.5 -11.5t-68 -2.5q-69 0 -109 10t-68.5 40.5t-39.5 84t-11 143.5v72q0 79 10 132t26 83t47.5 45.5t62 19.5t82.5 4q94 0 139 -20.5t65.5 -79.5t23.5 -184zM373 283v54q-1 47 -2.5 73t-6.5 49t-10 32.5
t-18.5 17t-27 9.5t-40.5 3q-30 -1 -45 -5t-28.5 -12.5t-18.5 -30.5t-8.5 -52t-4.5 -84v-54q1 -47 2.5 -73t6.5 -49t10 -32.5t18.5 -17t27 -9.5t40.5 -3q30 1 45 5t28.5 12.5t18.5 30.5t8.5 52t4.5 84z" />
    <glyph glyph-name="afii10033" unicode="&#x41f;" horiz-adv-x="528" 
d="M476 622v-622h-123v513h-178v-513h-123v622h424z" />
    <glyph glyph-name="afii10034" unicode="&#x420;" horiz-adv-x="495" 
d="M175 212v-212h-123v616q132 11 200 11q123 0 167.5 -39.5t44.5 -160.5q0 -120 -54 -167.5t-180 -47.5h-55zM175 522v-210h54q66 0 87 22.5t21 89.5q0 60 -18.5 80.5t-71.5 20.5q-36 0 -72 -3z" />
    <glyph glyph-name="afii10035" unicode="&#x421;" horiz-adv-x="453" 
d="M425 120v-104q-94 -23 -170 -23q-43 0 -71.5 4.5t-58 19.5t-46.5 43t-28 76.5t-11 118.5v90q0 57 7 102t18 74.5t29.5 50t34.5 31t41.5 16.5t42.5 7t44 1q76 0 168 -22v-104q-83 17 -141 17q-51 0 -73.5 -12t-33.5 -49.5t-14 -119.5v-56q0 -45 2.5 -76t11 -51t15.5 -30.5
t25 -15.5t29.5 -5.5t39.5 -0.5q49 0 139 18z" />
    <glyph glyph-name="afii10036" unicode="&#x422;" horiz-adv-x="450" 
d="M286 513v-513h-123v513h-150v109h424v-109h-151z" />
    <glyph glyph-name="afii10037" unicode="&#x423;" horiz-adv-x="489" 
d="M219 152l6 21h-69l-153 449h135l101 -352h13l99 352h133l-175 -520q-36 -107 -154 -107q-59 0 -115 12v100q52 -7 94 -7q38 0 57 11t28 41z" />
    <glyph glyph-name="afii10038" unicode="&#x424;" horiz-adv-x="653" 
d="M388 100v-100h-123v100h-19q-118 0 -169 50t-51 176q0 125 52.5 168t167.5 43h19v85h123v-85h20q57 0 94.5 -8.5t67 -31t43.5 -65t14 -106.5q0 -126 -51 -176t-168 -50h-20zM408 436h-20v-236h20q60 0 79 23.5t19 102.5q0 69 -19 89.5t-79 20.5zM246 200h19v236h-19
q-61 0 -80 -19.5t-19 -90.5q0 -80 18.5 -103t80.5 -23z" />
    <glyph glyph-name="afii10039" unicode="&#x425;" horiz-adv-x="500" 
d="M314 320l183 -320h-135l-111 211h-4l-110 -211h-135l183 320l-169 302h137l94 -188h6l93 188h137z" />
    <glyph glyph-name="afii10040" unicode="&#x426;" horiz-adv-x="560" 
d="M546 109v-214h-93l-28 105h-373v622h123v-513h178v513h123v-513h70z" />
    <glyph glyph-name="afii10041" unicode="&#x427;" horiz-adv-x="496" 
d="M444 622v-622h-123v234q-72 -8 -122 -8q-96 0 -131.5 35.5t-35.5 137.5v223h123v-206q0 -55 13.5 -70t63.5 -15q44 0 89 4v287h123z" />
    <glyph glyph-name="afii10042" unicode="&#x428;" horiz-adv-x="805" 
d="M753 622v-622h-701v622h123v-513h166v513h123v-513h166v513h123z" />
    <glyph glyph-name="afii10043" unicode="&#x429;" horiz-adv-x="837" 
d="M823 109v-214h-93l-28 105h-650v622h123v-513h166v513h123v-513h166v513h123v-513h70z" />
    <glyph glyph-name="afii10044" unicode="&#x42a;" horiz-adv-x="555" 
d="M104 4v509h-88v109h211v-246q69 7 134 7q95 0 129 -43t34 -153q0 -114 -45 -154t-176 -40q-70 0 -199 11zM310 286q-28 0 -83 -3v-190q48 -3 82 -3q58 0 73 17.5t15 83.5q0 59 -16.5 77t-70.5 18z" />
    <glyph glyph-name="afii10045" unicode="&#x42b;" horiz-adv-x="730" 
d="M52 4v618h123v-246q66 7 134 7q95 0 129 -43t34 -153q0 -114 -45 -154t-176 -40q-70 0 -199 11zM258 286q-28 0 -83 -3v-190q48 -3 82 -3q58 0 73 17.5t15 83.5q0 59 -16.5 77t-70.5 18zM679 622v-622h-123v622h123z" />
    <glyph glyph-name="afii10046" unicode="&#x42c;" horiz-adv-x="503" 
d="M52 4v618h123v-246q66 7 134 7q95 0 129 -43t34 -153q0 -114 -45 -154t-176 -40q-70 0 -199 11zM258 286q-28 0 -83 -3v-190q48 -3 82 -3q58 0 73 17.5t15 83.5q0 59 -16.5 77t-70.5 18z" />
    <glyph glyph-name="afii10047" unicode="&#x42d;" horiz-adv-x="459" 
d="M303 272h-222v96h222q-1 36 -4.5 61.5t-11.5 42t-16.5 26t-25.5 14t-31 5.5t-41 1q-50 0 -138 -17v104q107 22 170 22q57 0 92 -9t64 -35.5t43 -79.5t16 -138v-90q0 -76 -12 -129t-30 -82.5t-49 -46t-58.5 -20.5t-68.5 -4q-61 0 -167 23v103q97 -17 141 -17
q79 0 102 31.5t25 138.5z" />
    <glyph glyph-name="afii10048" unicode="&#x42e;" horiz-adv-x="784" 
d="M175 270v-270h-123v622h123v-244h114q3 81 15.5 130t42 75.5t67.5 35t103 8.5q94 0 139 -20.5t65.5 -79.5t23.5 -184v-72q0 -64 -6 -110.5t-21 -77t-31.5 -49t-46 -27.5t-55.5 -11.5t-68 -2.5q-91 0 -137 20.5t-68.5 79.5t-22.5 177h-114zM622 283v54q-1 47 -2.5 73
t-6.5 49t-10 32.5t-18.5 17t-27 9.5t-40.5 3q-30 -1 -45 -5t-28.5 -12.5t-18.5 -30.5t-8.5 -52t-4.5 -84v-54q1 -47 2.5 -73t6.5 -49t10 -32.5t18.5 -17t27 -9.5t40.5 -3q30 1 45 5t28.5 12.5t18.5 30.5t8.5 52t4.5 84z" />
    <glyph glyph-name="afii10049" unicode="&#x42f;" horiz-adv-x="507" 
d="M245 244l-93 -244h-132l118 261q-48 18 -70 58.5t-22 112.5q0 111 46.5 153t156.5 42q63 0 209 -11v-616h-123v244h-90zM173 429q0 -62 18 -79.5t79 -17.5h65v190q-43 3 -72 3q-51 0 -70.5 -21t-19.5 -75z" />
    <glyph glyph-name="afii10065" unicode="&#x430;" horiz-adv-x="486" 
d="M161 -10q-67 0 -98 34.5t-31 112.5q0 81 42.5 115t148.5 34h83v44q0 44 -15.5 56.5t-64.5 12.5q-36 0 -162 -18v102q103 20 179 20q104 0 144 -29t40 -112v-168q0 -58 9 -105l16 -89h-111l-22 85q-39 -95 -158 -95zM205 88q45 0 73 26t28 75v26q-80 -2 -111 -8
t-38.5 -16.5t-7.5 -40.5q0 -38 11.5 -50t44.5 -12z" />
    <glyph glyph-name="afii10066" unicode="&#x431;" horiz-adv-x="508" 
d="M42 213v179q0 146 52.5 200.5t204.5 70.5l125 13v-99l-118 -12q-86 -9 -111 -33t-28 -103q32 74 142 74q41 -1 65 -7.5t43 -21t28 -45t14 -73.5t7 -113q0 -104 -22 -159t-65 -74.5t-123 -19.5q-123 0 -168.5 46t-45.5 177zM166 257v-40q0 -80 17 -102t73 -22q30 1 44 5
t24 22t12.5 46t4.5 87q-2 46 -4 69t-6 41t-15 24t-23 9t-38 4q-51 0 -70 -28.5t-19 -114.5z" />
    <glyph glyph-name="afii10067" unicode="&#x432;" horiz-adv-x="495" 
d="M239 215h-64v-112q30 -3 77 -3q52 0 67.5 11t15.5 46q0 34 -19.5 46t-76.5 12zM52 3v486q127 11 201 11q115 0 155.5 -24t40.5 -98q0 -63 -24.5 -91t-81.5 -34q67 -8 92.5 -33t25.5 -90q0 -83 -45.5 -110t-169.5 -27q-83 0 -194 10zM175 390v-100h64q48 0 66 11.5
t18 43.5q0 30 -14.5 39t-60.5 9q-32 0 -73 -3z" />
    <glyph glyph-name="afii10068" unicode="&#x433;" horiz-adv-x="354" 
d="M175 382v-382h-123v490h286v-108h-163z" />
    <glyph glyph-name="afii10069" unicode="&#x434;" horiz-adv-x="517" 
d="M502 108v-213h-90l-27 105h-257l-28 -105h-89v213h53l52 382h328v-382h58zM321 386h-105l-36 -278h141v278z" />
    <glyph glyph-name="afii10070" unicode="&#x435;" horiz-adv-x="477" 
d="M42 243q0 71 10 119.5t25.5 76t44.5 42t56.5 18.5t72.5 4q114 0 151 -50.5t37 -182.5v-56h-275q1 -76 19 -97t81 -21t167 17v-103q-91 -20 -174 -20q-60 0 -98 10t-66 37t-39.5 77t-11.5 129zM249 400q-49 0 -66.5 -20t-18.5 -90h159q0 68 -13 89t-61 21z" />
    <glyph glyph-name="afii10072" unicode="&#x436;" horiz-adv-x="685" 
d="M404 219v-219h-123v219h-12l-134 -219h-138l165 257l-153 233h139l121 -194h12v194h123v-194h12l120 194h139l-153 -232l166 -258h-139l-134 219h-11z" />
    <glyph glyph-name="afii10073" unicode="&#x437;" horiz-adv-x="440" 
d="M32 10v102q100 -12 149 -12q59 0 75.5 10t16.5 45q0 31 -18 42.5t-71 11.5h-75v87h65q51 0 69 10.5t18 41.5q0 29 -13 37t-58 8q-30 0 -140 -11v103q104 15 171 15q88 0 126.5 -25.5t38.5 -92.5q0 -70 -22.5 -96.5t-82.5 -32.5q68 -8 92.5 -31t24.5 -89q0 -83 -42 -111.5
t-145 -28.5q-82 0 -179 17z" />
    <glyph glyph-name="afii10074" unicode="&#x438;" horiz-adv-x="520" 
d="M469 490v-490h-124v309h-7l-171 -309h-115v490h123v-298h7l170 298h117z" />
    <glyph glyph-name="afii10075" unicode="&#x439;" horiz-adv-x="520" 
d="M469 490v-490h-124v309h-7l-171 -309h-115v490h123v-298h7l170 298h117zM131 651v55h84v-46q0 -22 10 -30.5t39 -8.5t39 8.5t10 30.5v46h84v-55q0 -65 -30.5 -92.5t-102.5 -27.5t-102.5 27.5t-30.5 92.5z" />
    <glyph glyph-name="afii10076" unicode="&#x43a;" horiz-adv-x="463" 
d="M175 219v-219h-123v490h123v-194h11l130 194h139l-160 -232l171 -258h-138l-142 219h-11z" />
    <glyph glyph-name="afii10077" unicode="&#x43b;" horiz-adv-x="507" 
d="M455 490v-490h-123v386h-97l-38 -306q-6 -48 -27.5 -67.5t-68.5 -19.5q-28 0 -90 8v100q40 -4 46 -4q16 0 22 8t11 34l45 351h320z" />
    <glyph glyph-name="afii10078" unicode="&#x43c;" horiz-adv-x="637" 
d="M586 490v-490h-124q0 103 4 312h-6l-95 -247h-94l-95 247h-6q5 -218 5 -312h-123v490h141l124 -293h4l125 293h140z" />
    <glyph glyph-name="afii10079" unicode="&#x43d;" horiz-adv-x="500" 
d="M449 490v-490h-124v202h-150v-202h-123v490h123v-186h150v186h124z" />
    <glyph glyph-name="afii10080" unicode="&#x43e;" horiz-adv-x="504" 
d="M244 -10q-83 2 -122.5 21t-58 71t-21.5 161q2 84 12.5 133t37 78t64 38.5t104.5 10.5q80 0 121.5 -19.5t61 -72.5t19.5 -158q0 -157 -45.5 -210t-172.5 -53zM248 93q58 0 73.5 27t15.5 125q0 101 -14.5 128t-66.5 27q-58 0 -74 -26.5t-16 -122.5q0 -102 14.5 -130
t67.5 -28z" />
    <glyph glyph-name="afii10081" unicode="&#x43f;" horiz-adv-x="500" 
d="M449 490v-490h-124v388h-150v-388h-123v490h397z" />
    <glyph glyph-name="afii10082" unicode="&#x440;" horiz-adv-x="526" 
d="M50 400l-16 90h111l18 -72q40 85 156 85q98 0 131.5 -49.5t33.5 -198.5q0 -107 -18.5 -164.5t-56 -79t-106.5 -21.5q-93 0 -121 51v-226h-123v481q0 56 -9 104zM271 93q25 1 37.5 4t24 11t15.5 27t7 45t4 73q0 94 -15.5 120.5t-66.5 26.5q-54 0 -75.5 -27.5t-21.5 -106.5
v-45q0 -78 17.5 -103t73.5 -25z" />
    <glyph glyph-name="afii10083" unicode="&#x441;" horiz-adv-x="431" 
d="M249 -10q-44 0 -74 5t-57 20.5t-42.5 43.5t-24.5 73.5t-9 110.5q0 71 10 120t26 76t44 42t53.5 18.5t66.5 3.5q82 0 157 -19v-102q-95 16 -138 16q-30 0 -44.5 -3t-28.5 -16.5t-19 -43.5t-5 -81q0 -104 16.5 -131.5t78.5 -27.5q54 0 141 17v-102q-98 -20 -151 -20z" />
    <glyph glyph-name="afii10084" unicode="&#x442;" horiz-adv-x="410" 
d="M267 382v-382h-124v382h-129v108h382v-108h-129z" />
    <glyph glyph-name="afii10085" unicode="&#x443;" horiz-adv-x="469" 
d="M137 0l-129 490h134l84 -388h11l91 388h134l-145 -523q-26 -97 -60 -130t-113 -33q-59 0 -117 16v99q64 -10 104 -10q38 0 52 10.5t22 42.5l9 38h-77z" />
    <glyph glyph-name="afii10086" unicode="&#x444;" horiz-adv-x="790" 
d="M455 48v-233h-123v238q-38 -63 -136 -63q-97 0 -127.5 47.5t-30.5 200.5q0 84 9 136t32 80.5t53.5 38.5t80.5 10q91 0 119 -61v212h123v-216q35 65 135 65q97 0 128 -48.5t31 -199.5q0 -109 -17 -165.5t-53.5 -78t-104.5 -21.5q-91 0 -119 58zM452 271v-50q0 -80 16 -104
t71 -24t70 28t15 132q0 97 -14 122t-65 25q-55 0 -74 -25t-19 -104zM334 222v50q0 79 -16 103.5t-71 24.5q-21 -1 -32 -3t-21.5 -8.5t-15 -15.5t-8.5 -28.5t-5 -42.5t-2 -62q0 -99 13 -123t65 -24q56 0 74.5 27t18.5 102z" />
    <glyph glyph-name="afii10087" unicode="&#x445;" horiz-adv-x="455" 
d="M300 259l150 -259h-141l-81 165h-4l-79 -165h-137l145 251l-139 239h142l71 -139h4l68 139h143z" />
    <glyph glyph-name="afii10088" unicode="&#x446;" horiz-adv-x="510" 
d="M496 108v-213h-90l-27 105h-327v490h123v-382h140v382h123v-382h58z" />
    <glyph glyph-name="afii10089" unicode="&#x447;" horiz-adv-x="457" 
d="M406 490v-490h-124v166q-50 -8 -93 -8q-94 0 -128.5 36t-34.5 137v159h123v-141q0 -57 12 -72.5t55 -15.5q34 0 66 3v226h124z" />
    <glyph glyph-name="afii10090" unicode="&#x448;" horiz-adv-x="737" 
d="M685 490v-490h-633v490h123v-382h132v382h123v-382h132v382h123z" />
    <glyph glyph-name="afii10091" unicode="&#x449;" horiz-adv-x="757" 
d="M743 108v-213h-90l-27 105h-574v490h123v-382h132v382h123v-382h132v382h123v-382h58z" />
    <glyph glyph-name="afii10092" unicode="&#x44a;" horiz-adv-x="505" 
d="M84 6v376h-68v108h191v-174q49 4 98 4q104 0 139 -30t35 -124q0 -104 -45.5 -138.5t-164.5 -34.5q-88 0 -185 13zM287 223q-34 0 -80 -2v-123q39 -3 71 -3q48 0 62.5 12.5t14.5 54.5q0 36 -13.5 48.5t-54.5 12.5z" />
    <glyph glyph-name="afii10093" unicode="&#x44b;" horiz-adv-x="698" 
d="M52 6v484h123v-174q73 4 98 4q104 0 139 -30t35 -124q0 -104 -46 -138.5t-165 -34.5q-87 0 -184 13zM255 223q-34 0 -80 -2v-123q39 -3 71 -3q48 0 62.5 12.5t14.5 54.5q0 36 -13.5 48.5t-54.5 12.5zM646 490v-490h-123v490h123z" />
    <glyph glyph-name="afii10094" unicode="&#x44c;" horiz-adv-x="473" 
d="M52 6v484h123v-174q73 4 98 4q104 0 139 -30t35 -124q0 -104 -46 -138.5t-165 -34.5q-87 0 -184 13zM255 223q-34 0 -80 -2v-123q39 -3 71 -3q48 0 62.5 12.5t14.5 54.5q0 36 -13.5 48.5t-54.5 12.5z" />
    <glyph glyph-name="afii10095" unicode="&#x44d;" horiz-adv-x="449" 
d="M296 207h-192v89h192q-4 67 -23 84.5t-78 17.5q-63 0 -155 -16v102q92 19 166 19q63 0 99.5 -9t63 -37t36 -78.5t9.5 -135.5q0 -104 -23 -159t-67 -74.5t-126 -19.5q-64 0 -161 20v102q93 -17 152 -17q64 0 84 21t23 91z" />
    <glyph glyph-name="afii10096" unicode="&#x44e;" horiz-adv-x="723" 
d="M175 205v-205h-123v493h123v-187h87q7 116 54 156.5t162 40.5q80 0 121.5 -19.5t61 -72.5t19.5 -158q0 -157 -45.5 -210t-172.5 -53q-114 0 -155.5 42.5t-45.5 172.5h-86zM466 93q58 0 73.5 27t15.5 125q0 101 -14.5 128t-66.5 27q-58 0 -74 -26.5t-16 -122.5
q0 -102 14.5 -130t67.5 -28z" />
    <glyph glyph-name="afii10097" unicode="&#x44f;" horiz-adv-x="488" 
d="M233 183l-86 -183h-135l111 195q-44 13 -63 45.5t-19 93.5q0 101 46 133.5t166 32.5q59 0 183 -11v-489h-123v183h-80zM166 332q0 -36 13.5 -46.5t55.5 -10.5h78v115q-49 3 -69 3q-47 0 -62.5 -12t-15.5 -49z" />
    <glyph glyph-name="afii10071" unicode="&#x451;" horiz-adv-x="477" 
d="M42 243q0 71 10 119.5t25.5 76t44.5 42t56.5 18.5t72.5 4q114 0 151 -50.5t37 -182.5v-56h-275q1 -76 19 -97t81 -21t167 17v-103q-91 -20 -174 -20q-60 0 -98 10t-66 37t-39.5 77t-11.5 129zM249 400q-49 0 -66.5 -20t-18.5 -90h159q0 68 -13 89t-61 21zM223 654v-102
h-121v102h121zM389 654v-102h-121v102h121z" />
    <glyph glyph-name="afii10099" unicode="&#x452;" horiz-adv-x="524" 
d="M191 0h-123v521h-52v72h52v61h123v-61h96v-69h-96v-114q39 65 145 65q77 0 107 -32t30 -108v-404q0 -67 -29 -97t-88 -30q-48 0 -113 17v95q45 -6 72 -6q21 0 27.5 8.5t6.5 38.5v349q0 36 -12 49.5t-47 13.5q-55 0 -77 -36.5t-22 -124.5v-208z" />
    <glyph glyph-name="afii10100" unicode="&#x453;" horiz-adv-x="354" 
d="M175 382v-382h-123v490h286v-108h-163zM315 706l-89 -171h-106l52 171h143z" />
    <glyph glyph-name="afii10101" unicode="&#x454;" horiz-adv-x="432" 
d="M249 -10q-44 0 -74 5t-57 20.5t-42.5 43.5t-24.5 73.5t-9 110.5q0 83 11.5 134.5t38.5 79t61 37t90 9.5q63 0 159 -19v-102q-108 16 -141 16q-58 0 -78 -18.5t-24 -83.5h186v-89h-187q3 -72 22 -92t79 -20q48 0 144 17v-102q-95 -20 -154 -20z" />
    <glyph glyph-name="afii10102" unicode="&#x455;" horiz-adv-x="439" 
d="M210 -10q-79 0 -169 21v102q91 -17 158 -17q47 0 62.5 10.5t15.5 40.5q0 28 -31 41l-115 49q-41 17 -58.5 44t-17.5 76q0 146 169 146q68 0 165 -18v-103q-95 19 -150 19q-34 0 -46.5 -10t-12.5 -33q0 -16 5 -23.5t20 -13.5l117 -47q44 -18 61.5 -46t17.5 -77
q0 -85 -47.5 -123t-143.5 -38z" />
    <glyph glyph-name="afii10103" unicode="&#x456;" horiz-adv-x="223" 
d="M173 490v-490h-123v490h123zM176 654v-102h-130v102h130z" />
    <glyph glyph-name="afii10104" unicode="&#x457;" horiz-adv-x="223" 
d="M107 654v-102h-121v102h121zM273 654v-102h-121v102h121zM173 490v-490h-123v490h123z" />
    <glyph glyph-name="afii10105" unicode="&#x458;" horiz-adv-x="225" 
d="M49 -43v533h123v-559q0 -67 -29 -97t-88 -30q-50 0 -113 10v100q41 -4 72 -4q21 0 28 9t7 38zM175 654v-102h-130v102h130z" />
    <glyph glyph-name="afii10106" unicode="&#x459;" horiz-adv-x="754" 
d="M11 1v100q40 -4 46 -4q16 0 22 8t11 34l45 351h320v-174q49 4 98 4q104 0 139 -30t35 -124q0 -104 -45.5 -138.5t-164.5 -34.5q-88 0 -185 13v380h-97l-38 -306q-6 -48 -27.5 -67.5t-68.5 -19.5q-28 0 -90 8zM535 223q-34 0 -80 -2v-123q41 -3 71 -3q48 0 63 12.5
t15 54.5q0 36 -13.5 48.5t-55.5 12.5z" />
    <glyph glyph-name="afii10107" unicode="&#x45a;" horiz-adv-x="745" 
d="M173 0h-123v490h123v-186h150v186h124v-174q73 4 97 4q104 0 139 -30t35 -124q0 -105 -46 -139t-164 -34q-85 0 -185 13v196h-150v-202zM527 223q-34 0 -80 -2v-123q39 -3 70 -3q48 0 63 12.5t15 54.5q0 36 -13.5 48.5t-54.5 12.5z" />
    <glyph glyph-name="afii10108" unicode="&#x45b;" horiz-adv-x="524" 
d="M191 593h96v-69h-96v-114q39 65 145 65q77 0 107 -32t30 -108v-335h-124v306q0 36 -12 49.5t-47 13.5q-55 0 -77 -36.5t-22 -124.5v-208h-123v521h-52v72h52v63h123v-63z" />
    <glyph glyph-name="afii10109" unicode="&#x45c;" horiz-adv-x="463" 
d="M175 219v-219h-123v490h123v-194h11l130 194h139l-160 -232l171 -258h-138l-142 219h-11zM360 706l-89 -171h-96l42 171h143z" />
    <glyph glyph-name="afii10110" unicode="&#x45e;" horiz-adv-x="469" 
d="M137 0l-129 490h134l84 -388h11l91 388h134l-145 -523q-26 -97 -60 -130t-113 -33q-59 0 -117 16v99q64 -10 104 -10q38 0 52 10.5t22 42.5l9 38h-77zM102 651v55h84v-46q0 -22 10 -30.5t39 -8.5t39 8.5t10 30.5v46h84v-55q0 -65 -30.5 -92.5t-102.5 -27.5t-102.5 27.5
t-30.5 92.5z" />
    <glyph glyph-name="afii10193" unicode="&#x45f;" horiz-adv-x="490" 
d="M52 0v490h123v-388h140v388h123v-490h-142l-7 -105h-89l-7 105h-141z" />
    <glyph glyph-name="afii10050" unicode="&#x490;" horiz-adv-x="406" 
d="M175 0h-123v622h224l26 105h90v-214h-217v-513z" />
    <glyph glyph-name="afii10098" unicode="&#x491;" horiz-adv-x="358" 
d="M175 0h-123v493h176l27 105h89v-213h-169v-385z" />
    <glyph glyph-name="Wgrave" unicode="&#x1e80;" horiz-adv-x="714" 
d="M698 622l-77 -622h-184l-78 380h-10l-79 -380h-177l-77 622h129l51 -490h10l85 434h133l88 -434h10l52 490h124zM362 833l52 -171h-107l-88 171h143z" />
    <glyph glyph-name="wgrave" unicode="&#x1e81;" horiz-adv-x="692" 
d="M342 294l-57 -294h-188l-89 490h133l56 -380h12l68 363h138l68 -363h12l56 380h133l-89 -490h-189l-56 294h-8zM355 706l52 -171h-107l-88 171h143z" />
    <glyph glyph-name="Wacute" unicode="&#x1e82;" horiz-adv-x="714" 
d="M698 622l-77 -622h-184l-78 380h-10l-79 -380h-177l-77 622h129l51 -490h10l85 434h133l88 -434h10l52 490h124zM501 833l-89 -171h-106l52 171h143z" />
    <glyph glyph-name="wacute" unicode="&#x1e83;" horiz-adv-x="692" 
d="M342 294l-57 -294h-188l-89 490h133l56 -380h12l68 363h138l68 -363h12l56 380h133l-89 -490h-189l-56 294h-8zM482 706l-89 -171h-106l52 171h143z" />
    <glyph glyph-name="Wdieresis" unicode="&#x1e84;" horiz-adv-x="714" 
d="M698 622l-77 -622h-184l-78 380h-10l-79 -380h-177l-77 622h129l51 -490h10l85 434h133l88 -434h10l52 490h124zM335 784v-102h-121v102h121zM501 784v-102h-121v102h121z" />
    <glyph glyph-name="wdieresis" unicode="&#x1e85;" horiz-adv-x="692" 
d="M342 294l-57 -294h-188l-89 490h133l56 -380h12l68 363h138l68 -363h12l56 380h133l-89 -490h-189l-56 294h-8zM324 654v-102h-121v102h121zM490 654v-102h-121v102h121z" />
    <glyph glyph-name="Eszett" unicode="&#x1e9e;" horiz-adv-x="508" 
d="M331 210l-64 68q-26 27 -26 54q0 21 20 55l77 127q-59 10 -95 10q-47 0 -62.5 -17t-15.5 -63v-444h-124v446q0 100 43.5 140.5t154.5 40.5q77 0 208 -25v-102l-89 -148l71 -80q33 -38 45 -64t12 -66q0 -149 -152 -149q-61 0 -124 19v101q63 -11 93 -11q31 0 43 12t12 40
q0 26 -27 56z" />
    <glyph glyph-name="Ygrave" unicode="&#x1ef2;" horiz-adv-x="479" 
d="M301 217v-217h-123v217l-175 405h137l97 -269h5l98 269h136zM251 833l52 -171h-107l-88 171h143z" />
    <glyph glyph-name="ygrave" unicode="&#x1ef3;" horiz-adv-x="469" 
d="M137 0l-129 490h134l84 -388h11l91 388h134l-145 -523q-26 -97 -60 -130t-113 -33q-59 0 -117 16v99q64 -10 104 -10q38 0 52 10.5t22 42.5l9 38h-77zM258 706l52 -171h-107l-88 171h143z" />
    <glyph glyph-name="endash" unicode="&#x2013;" horiz-adv-x="423" 
d="M388 193h-353v108h353v-108z" />
    <glyph glyph-name="emdash" unicode="&#x2014;" horiz-adv-x="671" 
d="M636 193h-601v108h601v-108z" />
    <glyph glyph-name="afii00208" unicode="&#x2015;" horiz-adv-x="671" 
d="M636 193h-601v108h601v-108z" />
    <glyph glyph-name="quoteleft" unicode="&#x2018;" horiz-adv-x="180" 
d="M145 506v-109h-125v72q0 45 18 94l32 91h89l-10 -73q-4 -25 -4 -75z" />
    <glyph glyph-name="quoteright" unicode="&#x2019;" horiz-adv-x="180" 
d="M36 545v109h124v-72q0 -44 -18 -94l-32 -91h-88l9 73q5 38 5 75z" />
    <glyph glyph-name="quotesinglbase" unicode="&#x201a;" horiz-adv-x="180" 
d="M30 19v109h124v-72q0 -42 -18 -94l-32 -92h-88l9 74q5 38 5 75z" />
    <glyph glyph-name="quotedblleft" unicode="&#x201c;" horiz-adv-x="356" 
d="M320 506v-109h-125v72q-1 39 19 94l32 91h88l-9 -73q-5 -38 -5 -75zM145 506v-109h-125v72q0 45 18 94l32 91h89l-10 -73q-4 -25 -4 -75z" />
    <glyph glyph-name="quotedblright" unicode="&#x201d;" horiz-adv-x="356" 
d="M36 545v109h124v-72q0 -44 -18 -94l-32 -91h-88l9 73q5 38 5 75zM211 545v109h125v-72q-2 -45 -18 -94l-32 -91h-89l10 73q4 25 4 75z" />
    <glyph glyph-name="quotedblbase" unicode="&#x201e;" horiz-adv-x="356" 
d="M30 19v109h124v-72q0 -42 -18 -94l-32 -92h-88l9 74q5 38 5 75zM205 19v109h125v-72q0 -42 -18 -94l-32 -92h-89l10 74q4 24 4 75z" />
    <glyph glyph-name="dagger" unicode="&#x2020;" horiz-adv-x="442" 
d="M161 314h-135v106h135v162h120v-162h135v-106h-135v-499h-120v499z" />
    <glyph glyph-name="daggerdbl" unicode="&#x2021;" horiz-adv-x="442" 
d="M161 420v162h120v-162h135v-106h-135v-235h135v-107h-135v-157h-120v157h-135v107h135v235h-135v106h135z" />
    <glyph glyph-name="bullet" unicode="&#x2022;" horiz-adv-x="340" 
d="M297 132h-254v275h254v-275z" />
    <glyph glyph-name="ellipsis" unicode="&#x2026;" horiz-adv-x="585" 
d="M160 128v-128h-127v128h127zM357 128v-128h-127v128h127zM554 128v-128h-127v128h127z" />
    <glyph glyph-name="perthousand" unicode="&#x2030;" horiz-adv-x="932" 
d="M643 144q0 87 25 115.5t99 28.5t99.5 -28.5t25.5 -115.5q0 -89 -24 -117.5t-101 -28.5t-100.5 28t-23.5 118zM734 84q7 -13 33 -13t33 12.5t7 59.5t-7 59.5t-33 12.5t-32.5 -12t-6.5 -60q0 -45 6 -59zM450 622h112l-361 -622h-113zM40 480q0 86 25.5 115t99.5 29
q73 0 98.5 -29t25.5 -115q0 -90 -23.5 -118t-100.5 -28q-76 0 -100.5 28t-24.5 118zM132 420q7 -13 33 -13q25 0 32 12.5t7 59.5t-7 59t-32 12t-32 -11.5t-7 -59.5q0 -45 6 -59zM359 144q0 87 25 115.5t99 28.5t99.5 -29t25.5 -115q0 -88 -24.5 -117t-100.5 -29
q-77 0 -100.5 28t-23.5 118zM522 143q0 48 -6.5 60t-32.5 12t-32.5 -12t-6.5 -60q0 -47 6.5 -59.5t32.5 -12.5t32.5 12.5t6.5 59.5z" />
    <glyph glyph-name="guilsinglleft" unicode="&#x2039;" horiz-adv-x="321" 
d="M28 178v131l265 163v-113l-146 -109v-8l146 -108v-116z" />
    <glyph glyph-name="guilsinglright" unicode="&#x203a;" horiz-adv-x="321" 
d="M293 312v-131l-265 -163v113l146 109v8l-146 108v116z" />
    <glyph glyph-name="fraction" unicode="&#x2044;" 
d="M164 0h-98l228 624h98z" />
    <glyph glyph-name="Euro" unicode="&#x20ac;" 
d="M71 348h-52l21 74h32q4 67 18.5 109t42.5 62.5t58 27t77 6.5q80 0 167 -22v-104q-79 17 -145 17q-58 0 -77.5 -17.5t-23.5 -78.5h169l-21 -74h-149v-71h148l-21 -75h-127q4 -65 23 -82.5t79 -17.5q72 0 144 18v-104q-83 -23 -168 -23q-48 0 -79 7t-58 28.5t-40.5 64
t-16.5 109.5h-53l21 75h31v71z" />
    <glyph glyph-name="hryvnia" unicode="&#x20b4;" 
d="M178 335h-131v77h197l16 18q29 34 29 59q0 16 -15.5 22t-57.5 6q-31 0 -158 -11v107q131 14 185 14q84 0 120.5 -24t36.5 -85q0 -49 -42 -106h53v-77h-116l-38 -46h154v-77h-219l-7 -9q-27 -33 -27 -61q0 -22 18.5 -30.5t63.5 -8.5q69 0 174 13v-110q-91 -13 -187 -13
q-97 0 -138 27.5t-41 97.5q0 47 30 94h-31v77h92z" />
    <glyph glyph-name="afii61352" unicode="&#x2116;" horiz-adv-x="905" 
d="M855 76h-285v108h285v-108zM708 246q-87 0 -119.5 37t-32.5 151q0 82 17 123.5t50 55.5t98 14q42 0 66.5 -5.5t46 -24t30.5 -56t9 -99.5q0 -119 -35 -157.5t-130 -38.5zM711 328q39 0 50.5 19t11.5 88q0 71 -11 91t-44 20q-39 0 -50.5 -18t-11.5 -87q0 -73 10.5 -93
t44.5 -20zM481 622v-622h-116l-198 403h-9v-403h-118v622h124l190 -393h9v393h118z" />
    <glyph glyph-name="trademark" unicode="&#x2122;" horiz-adv-x="841" 
d="M234 528v-269h-109v269h-101v94h311v-94h-101zM481 370v-111h-99v363h146l64 -183l64 183h146v-363h-109v110l7 104h-8l-65 -160h-73l-65 160h-8v-103z" />
    <glyph glyph-name="minus" unicode="&#x2212;" 
d="M406 199h-346v96h346v-96z" />
    <glyph glyph-name="commaaccent" unicode="&#xf6c3;" horiz-adv-x="184" 
d="M35 -117v71h125v-34q-2 -44 -20 -92l-25 -66h-91l7 46q4 24 4 75z" />
    <glyph glyph-name="NULL" horiz-adv-x="0" 
 />
    <glyph glyph-name="CR" horiz-adv-x="333" 
 />
    <glyph glyph-name="ruble" 
d="M74 141h-56v77h56v46h-56v77h56v274q118 12 185 12q111 0 146.5 -33.5t35.5 -143.5t-41 -148t-152 -38h-51v-46h175v-77h-175v-141h-123v141zM197 534v-193h45q50 0 65.5 21t15.5 88q0 58 -12.5 73t-59.5 15q-21 0 -54 -4z" />
    </font>
</defs>
</svg>
