<?xml version="1.0" encoding="utf-8"?>
<!-- Generator: Adobe Illustrator 24.0.1, SVG Export Plug-In . SVG Version: 6.00 Build 0)  -->
<svg version="1.1" id="Layer_1" xmlns="http://www.w3.org/2000/svg" xmlns:xlink="http://www.w3.org/1999/xlink" x="0px" y="0px"
	 viewBox="0 0 82.7 82.7" style="enable-background:new 0 0 82.7 82.7;" xml:space="preserve">
<style type="text/css">
	.st0{fill:url(#SVGID_1_);}
	.st1{fill:url(#SVGID_2_);}
	.st2{fill:#F9F9F9;}
</style>
<g>
	
		<linearGradient id="SVGID_1_" gradientUnits="userSpaceOnUse" x1="-1571.7299" y1="-250.2622" x2="-1493.3439" y2="-250.2622" gradientTransform="matrix(-4.371139e-08 -1 -1 4.371139e-08 -236.1507 -1491.2098)">
		<stop  offset="0" style="stop-color:#64BA46"/>
		<stop  offset="1" style="stop-color:#64BA46"/>
	</linearGradient>
	<path class="st0" d="M0,41.3C0,59.6,11.8,75,28.2,80.5V2.1C11.8,7.6,0,23.1,0,41.3z"/>
	
		<linearGradient id="SVGID_2_" gradientUnits="userSpaceOnUse" x1="-67.073" y1="164.173" x2="-38.848" y2="164.173" gradientTransform="matrix(1 0 0 -1 121.5 205.5)">
		<stop  offset="0" style="stop-color:#ED2224"/>
		<stop  offset="1" style="stop-color:#E61E25"/>
	</linearGradient>
	<path class="st1" d="M82.7,41.3c0-18.2-11.8-33.7-28.2-39.2v78.4C70.8,75,82.7,59.6,82.7,41.3z"/>
	<path class="st2" d="M41.3,0c-4.6,0-9,0.8-13.1,2.1v78.4c4.1,1.4,8.5,2.1,13.1,2.1c4.6,0,9-0.8,13.1-2.1V2.1
		C50.3,0.8,45.9,0,41.3,0z"/>
</g>
</svg>
