<?xml version="1.0" encoding="utf-8"?>
<!-- Generator: Adobe Illustrator 24.0.1, SVG Export Plug-In . SVG Version: 6.00 Build 0)  -->
<svg version="1.1" id="Layer_1" xmlns="http://www.w3.org/2000/svg" xmlns:xlink="http://www.w3.org/1999/xlink" x="0px" y="0px"
	 viewBox="0 0 32.4 29.7" style="enable-background:new 0 0 32.4 29.7;" xml:space="preserve">
<style type="text/css">
	.st0{fill:#E17726;}
	.st1{fill:#E27625;}
	.st2{fill:#D5BFB2;}
	.st3{fill:#233447;}
	.st4{fill:#CC6228;}
	.st5{fill:#E27525;}
	.st6{fill:#F5841F;}
	.st7{fill:#C0AC9D;}
	.st8{fill:#161616;}
	.st9{fill:#763E1A;}
</style>
<g>
	<g>
		<polygon class="st0" points="30.5,0.2 18.1,9.3 20.4,3.9 		"/>
		<path class="st0" d="M18.1,9.4C18.1,9.4,18.1,9.4,18.1,9.4C18,9.4,18,9.3,18.1,9.4l2.2-5.5c0,0,0,0,0,0l10.1-3.8c0,0,0.1,0,0.1,0
			c0,0,0,0.1,0,0.1L18.1,9.4C18.1,9.4,18.1,9.4,18.1,9.4z M20.4,4l-2.2,5.2l11.8-8.8L20.4,4z"/>
	</g>
	<g>
		<g>
			<polygon class="st1" points="1.9,0.2 14.2,9.4 12,3.9 			"/>
			<path class="st1" d="M14.2,9.5C14.2,9.5,14.2,9.5,14.2,9.5L1.9,0.2c0,0,0-0.1,0-0.1c0,0,0,0,0.1,0L12,3.9c0,0,0,0,0,0L14.2,9.5
				C14.3,9.4,14.3,9.5,14.2,9.5C14.2,9.5,14.2,9.5,14.2,9.5z M2.3,0.4l11.7,8.9L12,4L2.3,0.4z"/>
		</g>
		<g>
			<polygon class="st1" points="26,21.4 22.7,26.5 29.8,28.4 31.8,21.6 			"/>
			<path class="st1" d="M29.8,28.5C29.8,28.5,29.8,28.5,29.8,28.5l-7.1-1.9c0,0,0,0,0,0s0,0,0-0.1l3.3-5c0,0,0,0,0.1,0c0,0,0,0,0,0
				l5.8,0.1c0,0,0,0,0,0c0,0,0,0,0,0.1L29.8,28.5C29.8,28.5,29.8,28.5,29.8,28.5z M22.8,26.4l6.9,1.9l2-6.7L26,21.5L22.8,26.4z"/>
		</g>
		<g>
			<polygon class="st1" points="0.6,21.6 2.6,28.4 9.7,26.5 6.4,21.4 			"/>
			<path class="st1" d="M2.6,28.5C2.6,28.5,2.6,28.5,2.6,28.5l-2.1-6.9c0,0,0,0,0-0.1c0,0,0,0,0,0l5.8-0.1c0,0,0,0,0.1,0l3.3,5
				c0,0,0,0,0,0.1c0,0,0,0,0,0L2.6,28.5C2.6,28.5,2.6,28.5,2.6,28.5z M0.7,21.6l2,6.7l6.9-1.9l-3.2-4.9L0.7,21.6z"/>
		</g>
		<g>
			<polygon class="st1" points="9.3,12.9 7.3,15.9 14.3,16.2 14.1,8.7 			"/>
			<path class="st1" d="M14.3,16.3C14.3,16.3,14.3,16.3,14.3,16.3l-7-0.3c0,0,0,0-0.1,0c0,0,0,0,0-0.1l2-3c0,0,0,0,0,0L14,8.6
				c0,0,0,0,0.1,0c0,0,0,0,0,0.1L14.3,16.3C14.4,16.2,14.4,16.2,14.3,16.3C14.3,16.3,14.3,16.3,14.3,16.3z M7.4,15.8l6.8,0.3L14,8.8
				L9.3,13L7.4,15.8z"/>
		</g>
		<g>
			<polygon class="st1" points="23.1,12.9 18.3,8.6 18.1,16.2 25.1,15.9 			"/>
			<path class="st1" d="M18.1,16.3C18.1,16.3,18.1,16.3,18.1,16.3C18,16.2,18,16.2,18.1,16.3l0.1-7.7c0,0,0,0,0-0.1c0,0,0,0,0.1,0
				l4.9,4.3c0,0,0,0,0,0l2,3c0,0,0,0,0,0.1c0,0,0,0-0.1,0L18.1,16.3C18.1,16.3,18.1,16.3,18.1,16.3z M18.3,8.7l-0.2,7.4l6.8-0.3
				L23.1,13L18.3,8.7z"/>
		</g>
		<g>
			<polygon class="st1" points="9.7,26.5 13.9,24.4 10.3,21.6 			"/>
			<path class="st1" d="M9.7,26.5C9.7,26.5,9.6,26.5,9.7,26.5C9.6,26.5,9.6,26.5,9.7,26.5l0.5-4.9c0,0,0,0,0,0c0,0,0,0,0.1,0
				l3.6,2.8c0,0,0,0,0,0.1c0,0,0,0,0,0L9.7,26.5C9.7,26.5,9.7,26.5,9.7,26.5z M10.3,21.7l-0.6,4.7l4-2L10.3,21.7z"/>
		</g>
		<g>
			<polygon class="st1" points="18.5,24.4 22.7,26.5 22.1,21.6 			"/>
			<path class="st1" d="M22.7,26.5C22.7,26.5,22.7,26.5,22.7,26.5l-4.2-2c0,0,0,0,0,0c0,0,0,0,0-0.1l3.6-2.8c0,0,0,0,0.1,0
				c0,0,0,0,0,0L22.7,26.5C22.8,26.5,22.8,26.5,22.7,26.5C22.7,26.5,22.7,26.5,22.7,26.5z M18.6,24.4l4,2l-0.5-4.7L18.6,24.4z"/>
		</g>
	</g>
	<g>
		<g>
			<polygon class="st2" points="22.7,26.5 18.5,24.4 18.9,27.2 18.8,28.3 			"/>
			<path class="st2" d="M18.8,28.4C18.8,28.4,18.8,28.4,18.8,28.4C18.8,28.4,18.8,28.4,18.8,28.4l0-1.2l-0.3-2.7c0,0,0,0,0-0.1
				c0,0,0,0,0.1,0l4.2,2c0,0,0,0,0,0.1c0,0,0,0,0,0.1L18.8,28.4C18.8,28.4,18.8,28.4,18.8,28.4z M18.6,24.5l0.3,2.6l0,1.1l3.7-1.8
				L18.6,24.5z"/>
		</g>
		<g>
			<polygon class="st2" points="9.7,26.5 13.6,28.3 13.6,27.2 13.9,24.4 			"/>
			<path class="st2" d="M13.6,28.4C13.6,28.4,13.6,28.4,13.6,28.4l-3.9-1.9c0,0,0,0,0-0.1c0,0,0,0,0-0.1l4.2-2c0,0,0,0,0.1,0
				c0,0,0,0,0,0.1l-0.3,2.7L13.6,28.4C13.6,28.4,13.6,28.4,13.6,28.4C13.6,28.4,13.6,28.4,13.6,28.4z M9.8,26.5l3.7,1.8l0-1.1
				l0.3-2.6L9.8,26.5z"/>
		</g>
	</g>
	<g>
		<polygon class="st3" points="13.7,19.8 10.2,18.8 12.6,17.6 		"/>
		<path class="st3" d="M13.7,19.9C13.6,19.9,13.6,19.9,13.7,19.9l-3.5-1c0,0,0,0,0-0.1c0,0,0,0,0-0.1l2.5-1.1c0,0,0.1,0,0.1,0
			L13.7,19.9C13.7,19.8,13.7,19.8,13.7,19.9C13.7,19.8,13.7,19.9,13.7,19.9z M10.3,18.8l3.2,0.9l-0.9-2L10.3,18.8z"/>
	</g>
	<g>
		<polygon class="st3" points="18.7,19.8 19.8,17.6 22.3,18.8 		"/>
		<path class="st3" d="M18.7,19.9C18.7,19.9,18.7,19.8,18.7,19.9C18.7,19.8,18.7,19.8,18.7,19.9l1-2.3c0,0,0.1,0,0.1,0l2.5,1.1
			c0,0,0,0,0,0.1c0,0,0,0,0,0.1L18.7,19.9C18.8,19.9,18.8,19.9,18.7,19.9z M19.8,17.7l-0.9,2l3.2-0.9L19.8,17.7z"/>
	</g>
	<g>
		<g>
			<polygon class="st4" points="9.7,26.5 10.3,21.4 6.4,21.6 			"/>
			<path class="st4" d="M9.7,26.5C9.6,26.5,9.6,26.5,9.7,26.5l-3.3-5c0,0,0,0,0-0.1c0,0,0,0,0.1,0l3.9-0.1c0,0,0,0,0,0c0,0,0,0,0,0
				L9.7,26.5C9.7,26.5,9.7,26.5,9.7,26.5C9.7,26.5,9.7,26.5,9.7,26.5z M6.5,21.6l3.1,4.7l0.6-4.8L6.5,21.6z"/>
		</g>
		<g>
			<polygon class="st4" points="22.1,21.4 22.7,26.5 26,21.6 			"/>
			<path class="st4" d="M22.7,26.5C22.7,26.5,22.7,26.5,22.7,26.5C22.7,26.5,22.7,26.5,22.7,26.5l-0.7-5.1c0,0,0,0,0,0c0,0,0,0,0,0
				l3.9,0.1c0,0,0,0,0.1,0c0,0,0,0,0,0.1L22.7,26.5C22.8,26.5,22.7,26.5,22.7,26.5z M22.2,21.5l0.6,4.8l3.1-4.7L22.2,21.5z"/>
		</g>
		<g>
			<polygon class="st4" points="25.1,15.9 18.1,16.2 18.7,19.8 19.8,17.6 22.3,18.8 			"/>
			<path class="st4" d="M18.7,19.9C18.7,19.9,18.7,19.9,18.7,19.9C18.7,19.8,18.7,19.8,18.7,19.9L18,16.2c0,0,0,0,0,0c0,0,0,0,0,0
				l7-0.3c0,0,0,0,0.1,0c0,0,0,0,0,0.1l-2.8,2.9c0,0,0,0-0.1,0l-2.4-1.1L18.7,19.9C18.8,19.8,18.8,19.9,18.7,19.9z M18.2,16.3
				l0.6,3.3l0.9-2c0,0,0.1,0,0.1,0l2.4,1.1l2.7-2.7L18.2,16.3z"/>
		</g>
		<g>
			<polygon class="st4" points="10.2,18.8 12.6,17.6 13.7,19.8 14.3,16.2 7.3,15.9 			"/>
			<path class="st4" d="M13.7,19.9C13.6,19.9,13.6,19.8,13.7,19.9l-1.1-2.1l-2.4,1.1c0,0-0.1,0-0.1,0l-2.8-2.9c0,0,0,0,0-0.1
				c0,0,0,0,0.1,0l7,0.3c0,0,0,0,0,0c0,0,0,0,0,0L13.7,19.9C13.7,19.8,13.7,19.8,13.7,19.9C13.7,19.9,13.7,19.9,13.7,19.9z
				 M12.6,17.6C12.7,17.6,12.7,17.6,12.6,17.6l1,2l0.6-3.3L7.5,16l2.7,2.7L12.6,17.6C12.6,17.6,12.6,17.6,12.6,17.6z"/>
		</g>
	</g>
	<g>
		<g>
			<polygon class="st5" points="7.3,15.9 10.3,21.6 10.2,18.8 			"/>
			<path class="st5" d="M10.3,21.7C10.2,21.7,10.2,21.7,10.3,21.7l-3-5.7c0,0,0-0.1,0-0.1c0,0,0.1,0,0.1,0l2.8,2.9c0,0,0,0,0,0
				L10.3,21.7C10.3,21.6,10.3,21.7,10.3,21.7C10.3,21.7,10.3,21.7,10.3,21.7z M7.6,16.2l2.6,5.1l-0.1-2.5L7.6,16.2z"/>
		</g>
		<g>
			<polygon class="st5" points="22.3,18.8 22.1,21.6 25.1,15.9 			"/>
			<path class="st5" d="M22.1,21.7C22.1,21.7,22.1,21.7,22.1,21.7C22.1,21.7,22.1,21.6,22.1,21.7l0-2.9c0,0,0,0,0,0l2.8-2.9
				c0,0,0.1,0,0.1,0c0,0,0,0.1,0,0.1L22.1,21.7C22.2,21.7,22.2,21.7,22.1,21.7z M22.3,18.8l-0.1,2.5l2.6-5.1L22.3,18.8z"/>
		</g>
		<g>
			<polygon class="st5" points="14.3,16.2 13.7,19.8 14.5,24 14.7,18.4 			"/>
			<path class="st5" d="M14.5,24.1C14.4,24.1,14.4,24.1,14.5,24.1l-0.9-4.3c0,0,0,0,0,0l0.6-3.6c0,0,0,0,0.1-0.1c0,0,0.1,0,0.1,0.1
				l0.4,2.2L14.5,24.1C14.5,24.1,14.5,24.1,14.5,24.1C14.5,24.1,14.5,24.1,14.5,24.1z M13.7,19.8l0.7,3.7l0.2-5l-0.3-1.9L13.7,19.8z
				"/>
		</g>
		<g>
			<polygon class="st5" points="18.1,16.2 17.8,18.4 17.9,24 18.7,19.8 			"/>
			<path class="st5" d="M17.9,24.1C17.9,24.1,17.9,24.1,17.9,24.1C17.9,24.1,17.9,24.1,17.9,24.1l-0.2-5.7l0.3-2.2
				c0,0,0-0.1,0.1-0.1c0,0,0,0,0,0c0,0,0.1,0,0.1,0.1l0.6,3.6c0,0,0,0,0,0L17.9,24.1C18,24.1,18,24.1,17.9,24.1z M18.1,16.6
				l-0.3,1.9l0.2,5l0.7-3.7L18.1,16.6z"/>
		</g>
	</g>
	<g>
		<polygon class="st6" points="18.7,19.8 17.9,24 18.5,24.4 22.1,21.6 22.3,18.8 		"/>
		<path class="st6" d="M18.5,24.5C18.5,24.5,18.5,24.5,18.5,24.5l-0.6-0.4c0,0,0,0,0-0.1l0.8-4.2c0,0,0,0,0,0l3.5-1c0,0,0,0,0.1,0
			c0,0,0,0,0,0.1l-0.1,2.8c0,0,0,0,0,0L18.5,24.5C18.5,24.5,18.5,24.5,18.5,24.5z M18,24l0.5,0.4l3.6-2.8l0.1-2.7l-3.4,1L18,24z"/>
	</g>
	<g>
		<polygon class="st6" points="10.2,18.8 10.3,21.6 13.9,24.4 14.5,24 13.7,19.8 		"/>
		<path class="st6" d="M13.9,24.5C13.9,24.5,13.9,24.5,13.9,24.5l-3.7-2.9c0,0,0,0,0,0l-0.1-2.8c0,0,0,0,0-0.1c0,0,0,0,0.1,0l3.5,1
			c0,0,0,0,0,0l0.8,4.2c0,0,0,0,0,0.1L13.9,24.5C13.9,24.5,13.9,24.5,13.9,24.5z M10.3,21.6l3.6,2.8l0.5-0.4l-0.8-4.2l-3.4-1
			L10.3,21.6z"/>
	</g>
	<g>
		<polygon class="st7" points="18.8,28.3 18.9,27.2 18.5,26.9 13.9,26.9 13.6,27.2 13.6,28.3 9.7,26.5 11,27.6 13.8,29.5 18.6,29.5 
			21.4,27.6 22.7,26.5 		"/>
		<path class="st7" d="M18.6,29.6h-4.8c0,0,0,0,0,0L11,27.7l-1.4-1.1c0,0,0-0.1,0-0.1c0,0,0,0,0.1,0l3.8,1.8l0-1.1c0,0,0,0,0,0
			l0.3-0.3c0,0,0,0,0,0h4.7c0,0,0,0,0,0l0.3,0.3c0,0,0,0,0,0l0,1.1l3.8-1.8c0,0,0.1,0,0.1,0c0,0,0,0.1,0,0.1l-1.4,1.1L18.6,29.6
			C18.6,29.6,18.6,29.6,18.6,29.6z M13.8,29.5h4.7l2.8-1.9l1-0.8l-3.5,1.6c0,0,0,0-0.1,0c0,0,0,0,0-0.1l0-1.1L18.5,27h-4.6l-0.3,0.2
			l0,1.1c0,0,0,0,0,0.1c0,0,0,0-0.1,0l-3.5-1.6l1,0.8L13.8,29.5z"/>
	</g>
	<g>
		<polygon class="st8" points="18.5,24.4 17.9,24 14.5,24 13.9,24.4 13.6,27.2 13.9,26.9 18.5,26.9 18.9,27.2 		"/>
		<path class="st8" d="M13.6,27.2C13.5,27.2,13.5,27.2,13.6,27.2C13.5,27.2,13.5,27.2,13.6,27.2l0.3-2.8c0,0,0,0,0,0l0.6-0.4
			c0,0,0,0,0,0h3.4c0,0,0,0,0,0l0.6,0.4c0,0,0,0,0,0l0.3,2.7c0,0,0,0,0,0.1c0,0,0,0-0.1,0L18.5,27h-4.6L13.6,27.2
			C13.6,27.2,13.6,27.2,13.6,27.2z M13.9,26.9h4.7c0,0,0,0,0,0l0.2,0.2l-0.3-2.6l-0.5-0.4h-3.4l-0.5,0.4L13.6,27L13.9,26.9
			C13.8,26.9,13.8,26.9,13.9,26.9z"/>
	</g>
	<g>
		<g>
			<polygon class="st9" points="31,9.9 32,4.9 30.5,0.2 18.5,9 23.1,12.9 29.6,14.8 31,13.1 30.4,12.7 31.4,11.8 30.6,11.2 
				31.6,10.4 			"/>
			<path class="st9" d="M29.6,14.9C29.6,14.9,29.6,14.9,29.6,14.9L23.1,13c0,0,0,0,0,0l-4.6-3.9c0,0,0,0,0,0c0,0,0,0,0,0l12-8.9
				c0,0,0,0,0.1,0c0,0,0,0,0,0l1.6,4.7c0,0,0,0,0,0l-1,5l0.6,0.5c0,0,0,0,0,0c0,0,0,0,0,0l-0.9,0.7l0.7,0.5c0,0,0,0,0,0c0,0,0,0,0,0
				l-0.9,0.9l0.6,0.4c0,0,0,0,0,0c0,0,0,0,0,0L29.6,14.9C29.6,14.9,29.6,14.9,29.6,14.9z M23.1,12.9l6.4,1.9l1.4-1.6l-0.6-0.4
				c0,0,0,0,0,0c0,0,0,0,0,0l0.9-0.9l-0.7-0.5c0,0,0,0,0,0s0,0,0,0l0.9-0.7L31,10c0,0,0,0,0-0.1l1-5l-1.5-4.6L18.6,9L23.1,12.9z"/>
		</g>
		<g>
			<polygon class="st9" points="0.4,4.9 1.4,9.9 0.7,10.4 1.8,11.2 1,11.8 2,12.7 1.4,13.1 2.8,14.8 9.3,12.9 13.9,9 1.9,0.2 			"/>
			<path class="st9" d="M2.8,14.9C2.8,14.9,2.8,14.9,2.8,14.9l-1.5-1.7c0,0,0,0,0,0c0,0,0,0,0,0l0.6-0.4L1,11.8c0,0,0,0,0,0
				c0,0,0,0,0,0l0.7-0.5l-0.9-0.7c0,0,0,0,0,0c0,0,0,0,0,0l0.6-0.5l-1-5c0,0,0,0,0,0l1.6-4.7c0,0,0,0,0,0c0,0,0,0,0.1,0l12,8.9
				c0,0,0,0,0,0c0,0,0,0,0,0L9.3,13c0,0,0,0,0,0L2.8,14.9C2.8,14.9,2.8,14.9,2.8,14.9z M1.4,13.2l1.4,1.6l6.4-1.9L13.8,9L2,0.3
				L0.4,4.9l1,5c0,0,0,0,0,0.1l-0.6,0.5l0.9,0.7c0,0,0,0,0,0c0,0,0,0,0,0l-0.7,0.5L2,12.7c0,0,0,0,0,0c0,0,0,0,0,0L1.4,13.2z"/>
		</g>
	</g>
	<g>
		<polygon class="st6" points="29.6,14.8 23.1,12.9 25.1,15.9 22.1,21.6 26,21.6 31.8,21.6 		"/>
		<path class="st6" d="M22.1,21.7C22.1,21.7,22.1,21.7,22.1,21.7C22.1,21.6,22.1,21.6,22.1,21.7l2.9-5.8L23.1,13c0,0,0,0,0-0.1
			c0,0,0,0,0.1,0l6.5,1.9c0,0,0,0,0,0l2.2,6.7c0,0,0,0,0,0.1c0,0,0,0,0,0H26L22.1,21.7C22.1,21.7,22.1,21.7,22.1,21.7z M23.3,13
			l1.9,2.8c0,0,0,0,0,0.1l-2.9,5.6l3.8,0h5.7l-2.1-6.6L23.3,13z"/>
	</g>
	<g>
		<polygon class="st6" points="9.3,12.9 2.8,14.8 0.6,21.6 6.4,21.6 10.3,21.6 7.3,15.9 		"/>
		<path class="st6" d="M10.3,21.7C10.3,21.7,10.3,21.7,10.3,21.7l-3.9,0H0.6c0,0,0,0,0,0c0,0,0,0,0-0.1l2.2-6.7c0,0,0,0,0,0l6.5-1.9
			c0,0,0.1,0,0.1,0c0,0,0,0,0,0.1l-1.9,2.9L10.3,21.7C10.3,21.6,10.3,21.6,10.3,21.7C10.3,21.7,10.3,21.7,10.3,21.7z M0.7,21.5h5.7
			l3.8,0l-2.9-5.6c0,0,0,0,0-0.1L9.1,13l-6.3,1.8L0.7,21.5z"/>
	</g>
	<g>
		<polygon class="st6" points="18.1,16.2 18.5,9 20.4,3.9 12,3.9 13.9,9 14.3,16.2 14.5,18.5 14.5,24 17.9,24 17.9,18.5 		"/>
		<path class="st6" d="M17.9,24.1h-3.4c0,0-0.1,0-0.1-0.1l0-5.6l-0.2-2.2l-0.4-7.2L11.9,4c0,0,0,0,0-0.1c0,0,0,0,0.1,0h8.4
			c0,0,0,0,0.1,0c0,0,0,0,0,0.1l-1.9,5.1l-0.4,7.2c0,0,0,0,0,0L18,18.5L17.9,24.1C18,24.1,18,24.1,17.9,24.1z M14.5,24h3.3l0-5.5
			l0.2-2.3L18.5,9c0,0,0,0,0,0l1.9-5h-8.2l1.9,5c0,0,0,0,0,0l0.4,7.2l0.2,2.3L14.5,24z M18.1,16.2L18.1,16.2L18.1,16.2z"/>
	</g>
</g>
</svg>
