<?xml version="1.0" encoding="utf-8"?>
<!-- Generator: Adobe Illustrator 24.0.1, SVG Export Plug-In . SVG Version: 6.00 Build 0)  -->
<svg version="1.1" id="Layer_1" xmlns="http://www.w3.org/2000/svg" xmlns:xlink="http://www.w3.org/1999/xlink" x="0px" y="0px"
	 viewBox="0 0 56.2 32.8" style="enable-background:new 0 0 56.2 32.8;" xml:space="preserve">
<style type="text/css">
	.st0{fill:#201D35;}
	.st1{fill:#656475;}
	.st2{fill:#FFFFFF;}
</style>
<g>
	<g>
		<path class="st0" d="M40.4,31.3H15.8C4.5,31.3,1,24.7,1,16.5v0C1,5.2,7.6,1.7,15.8,1.7h24.6c8.2,0,14.8,3.4,14.8,14.8v0
			C55.2,27.6,48.6,31.3,40.4,31.3z"/>
		<path class="st1" d="M42.9,31.7H13.3C6.3,31.7,0.6,26,0.6,19v-4.9c0-7,5.7-12.7,12.7-12.7h29.5c7,0,12.7,5.7,12.7,12.7V19
			C55.6,26,49.9,31.7,42.9,31.7z M13.3,2.1C6.7,2.1,1.4,7.5,1.4,14.1V19c0,6.6,5.3,11.9,11.9,11.9h29.5c6.6,0,11.9-5.3,11.9-11.9
			v-4.9c0-6.6-5.3-11.9-11.9-11.9H13.3z"/>
	</g>
	<g>
		<path class="st2" d="M13.5,22V11.1c0-0.4,0.2-0.6,0.6-0.6c1-0.1,2.2-0.2,3.1-0.2c2.8,0,3.9,0.4,3.9,3.3c0,2-0.6,3.1-2,3.5l2.1,4.6
			c0.1,0.3,0.2,0.4,0.2,0.5c0,0.2-0.1,0.4-0.7,0.4c-0.8,0-0.9-0.1-1-0.4l-2-4.8c-0.2,0-0.5,0-0.7,0h-1.8V22c0,0.4-0.2,0.5-0.8,0.5
			C13.6,22.5,13.5,22.4,13.5,22z M15.1,16.1h1.8c1.9,0,2.4-0.5,2.4-2.4c0-1.6-0.4-2-2.4-2c-0.7,0-1.4,0.1-1.9,0.1V16.1z"/>
		<path class="st2" d="M23.3,19v-8.1c0-0.4,0.2-0.5,0.8-0.5c0.7,0,0.8,0.1,0.8,0.5v8.2c0,1.5,0.5,2.1,2.3,2.1c1.8,0,2.3-0.6,2.3-2.1
			v-8.2c0-0.4,0.2-0.5,0.8-0.5c0.7,0,0.8,0.1,0.8,0.5V19c0,2.7-1.1,3.7-3.9,3.7C24.5,22.7,23.3,21.7,23.3,19z"/>
		<path class="st2" d="M34.3,22.5c-0.6-0.1-0.7-0.2-0.7-0.6V11.1c0-0.5,0.2-0.6,0.6-0.7c0.9-0.1,2.1-0.2,2.8-0.2
			c2.8,0,4.1,0.2,4.1,3c0,1.5-0.3,2.5-1.4,2.8c1.3,0.3,1.9,1.2,1.9,3.2c0,2.6-0.8,3.5-4.1,3.5C36.2,22.7,35.3,22.6,34.3,22.5z
			 M35.2,15.5h1.9c1.9,0,2.3-0.3,2.3-2.1c0-1.5-0.2-1.7-2.2-1.7c-0.8,0-1.5,0-2,0.1V15.5z M35.2,21.2c0.6,0.1,1.4,0.1,2.3,0.1
			c2.1,0,2.3-0.3,2.3-2.2c0-1.9-0.4-2.3-2.3-2.3h-2.3V21.2z"/>
	</g>
</g>
</svg>
