<?xml version="1.0" encoding="utf-8"?>
<!-- Generator: Adobe Illustrator 24.0.1, SVG Export Plug-In . SVG Version: 6.00 Build 0)  -->
<svg version="1.1"
	 id="svg20" inkscape:version="0.92.2 5c3e80d, 2017-08-06" sodipodi:docname="noun_618753_cc.svg" xmlns:cc="http://creativecommons.org/ns#" xmlns:dc="http://purl.org/dc/elements/1.1/" xmlns:inkscape="http://www.inkscape.org/namespaces/inkscape" xmlns:rdf="http://www.w3.org/1999/02/22-rdf-syntax-ns#" xmlns:sodipodi="http://sodipodi.sourceforge.net/DTD/sodipodi-0.dtd" xmlns:svg="http://www.w3.org/2000/svg"
	 xmlns="http://www.w3.org/2000/svg" xmlns:xlink="http://www.w3.org/1999/xlink" x="0px" y="0px" viewBox="0 0 118.9 117.6"
	 style="enable-background:new 0 0 118.9 117.6;" xml:space="preserve">
<g id="g14" transform="matrix(1.5959637,0,0,1.5959637,8.4040363,7.7273477)">
	<path id="path2" inkscape:connector-curvature="0" d="M32.3-3.8c-0.8,0-1.5,0.7-1.5,1.5v22.8c0,0.8,0.7,1.5,1.5,1.5
		c0.8,0,1.5-0.7,1.5-1.5V-2.3C33.7-3.1,33.1-3.8,32.3-3.8z"/>
	<path id="path4" inkscape:connector-curvature="0" d="M66.8,30.8H44c-0.8,0-1.5,0.7-1.5,1.5c0,0.8,0.7,1.5,1.5,1.5h22.8
		c0.8,0,1.5-0.7,1.5-1.5C68.3,31.5,67.6,30.8,66.8,30.8z"/>
	<path id="path6" inkscape:connector-curvature="0" d="M32.3,42c-0.8,0-1.5,0.7-1.5,1.5v22.8c0,0.8,0.7,1.5,1.5,1.5
		c0.8,0,1.5-0.7,1.5-1.5V43.5C33.7,42.7,33.1,42,32.3,42z"/>
	<path id="path8" inkscape:connector-curvature="0" d="M20,30.8H-2.8c-0.8,0-1.5,0.7-1.5,1.5c0,0.8,0.7,1.5,1.5,1.5H20
		c0.8,0,1.5-0.7,1.5-1.5C21.5,31.5,20.8,30.8,20,30.8z"/>
	<path id="path10" inkscape:connector-curvature="0" d="M54.1,10.4c-4.9-5-11.2-8.1-18.1-9v3c6,0.9,11.6,3.7,15.9,8.1
		c4.3,4.4,7,10,7.8,16.1h3C62,21.7,59,15.4,54.1,10.4z M4.3,36.1h-3c1.9,14,13.1,25,27.1,26.6v-3C16.1,58.2,6.2,48.4,4.3,36.1z
		 M10.4,9.9c-5.1,5-8.3,11.6-9.1,18.6h3c0.8-6.3,3.6-12,8.2-16.5c4.4-4.3,10-7,16-7.8v-3C21.7,2,15.3,5.1,10.4,9.9z M59.7,36.1
		C57.9,48.3,48.2,57.9,36,59.7v3c13.8-1.8,24.8-12.8,26.6-26.6L59.7,36.1L59.7,36.1z"/>
	<path id="path12" inkscape:connector-curvature="0" d="M36,14v1.2c6.5,1.5,11.6,6.8,12.9,13.4h1.2C48.7,21.4,43.2,15.6,36,14z
		 M15.2,36.1h-1.2c1.6,7.1,7.3,12.6,14.4,14v-1.2C22,47.6,16.8,42.5,15.2,36.1z M13.9,28.6h1.2c1.4-6.7,6.7-12.1,13.4-13.5v-1.2
		C21.1,15.3,15.3,21.2,13.9,28.6z M48.8,36.1c-1.5,6.3-6.5,11.2-12.8,12.7V50c6.9-1.5,12.4-7,13.9-13.9L48.8,36.1z"/>
</g>
</svg>
