<?xml version="1.0" encoding="utf-8"?>
<!-- Generator: Adobe Illustrator 24.0.1, SVG Export Plug-In . SVG Version: 6.00 Build 0)  -->
<svg version="1.1" id="Layer_1" xmlns="http://www.w3.org/2000/svg" xmlns:xlink="http://www.w3.org/1999/xlink" x="0px" y="0px"
	 viewBox="0 0 56.2 32.8" style="enable-background:new 0 0 56.2 32.8;" xml:space="preserve">
<style type="text/css">
	.st0{fill:#393552;}
	.st1{fill:#656475;}
	.st2{fill:#FFFFFF;}
</style>
<g>
	<g>
		<path class="st0" d="M40.4,31.3H15.8C4.5,31.3,1,24.7,1,16.5v0C1,5.2,7.6,1.7,15.8,1.7h24.6c8.2,0,14.8,3.4,14.8,14.8v0
			C55.2,27.6,48.6,31.3,40.4,31.3z"/>
		<path class="st1" d="M42.9,31.7H13.3C6.3,31.7,0.6,26,0.6,19v-4.9c0-7,5.7-12.7,12.7-12.7h29.5c7,0,12.7,5.7,12.7,12.7V19
			C55.6,26,49.9,31.7,42.9,31.7z M13.3,2.1C6.7,2.1,1.4,7.5,1.4,14.1V19c0,6.6,5.3,11.9,11.9,11.9h29.5c6.6,0,11.9-5.3,11.9-11.9
			v-4.9c0-6.6-5.3-11.9-11.9-11.9H13.3z"/>
	</g>
	<g>
		<g>
			<path class="st2" d="M14.3,19v-8.1c0-0.4,0.2-0.5,0.8-0.5c0.7,0,0.8,0.1,0.8,0.5v8.2c0,1.5,0.5,2.1,2.3,2.1
				c1.8,0,2.3-0.6,2.3-2.1v-8.2c0-0.4,0.2-0.5,0.8-0.5c0.7,0,0.8,0.1,0.8,0.5V19c0,2.7-1.1,3.7-3.9,3.7C15.4,22.7,14.3,21.7,14.3,19
				z"/>
		</g>
		<g>
			<path class="st2" d="M24.7,22.4c-0.3-0.1-0.5-0.2-0.5-0.8c0-0.6,0.1-0.7,0.3-0.7c0.4,0,1.3,0.4,2.8,0.4c1.8,0,2.6-0.5,2.6-1.9
				c0-1-0.2-1.5-1-1.8l-2.6-1.1c-1.4-0.6-1.9-1.2-1.9-3c0-2.8,1.6-3.1,3.3-3.1c0.9,0,2.2,0.1,3,0.4c0.3,0.1,0.5,0.2,0.5,0.8
				c0,0.6-0.1,0.7-0.3,0.7c-0.3,0-1.3-0.4-2.7-0.4c-1.6,0-2.1,0.2-2.1,1.7c0,0.9,0.3,1.2,1.1,1.6l2.6,1.1c1.4,0.6,1.8,1.4,1.8,3.1
				c0,2.7-1.7,3.5-3.9,3.5C26.7,22.7,25.5,22.6,24.7,22.4z"/>
		</g>
		<g>
			<path class="st2" d="M34.4,22.6c-0.6-0.1-0.7-0.2-0.7-0.6V11.1c0-0.4,0.2-0.6,0.6-0.7c1-0.1,2.1-0.2,2.9-0.2
				c3.2,0,4.7,0.4,4.7,5.5V17c0,5.3-1.7,5.7-4.4,5.7C36.1,22.7,35.4,22.7,34.4,22.6z M40.2,17v-1.1c0-3.8-0.7-4.2-3-4.2
				c-0.8,0-1.4,0.1-1.9,0.1v9.4c0.5,0.1,1.2,0.1,2.1,0.1C39.6,21.3,40.2,21,40.2,17z"/>
		</g>
	</g>
</g>
</svg>
