<?xml version="1.0" encoding="utf-8"?>
<!-- Generator: Adobe Illustrator 24.0.1, SVG Export Plug-In . SVG Version: 6.00 Build 0)  -->
<svg version="1.1" id="Layer_1" focusable="false" xmlns="http://www.w3.org/2000/svg" xmlns:xlink="http://www.w3.org/1999/xlink"
	 x="0px" y="0px" viewBox="0 0 640 512" enable-background="new 0 0 640 512" xml:space="preserve">
<path fill="#0800F5" d="M208,96C93.1,96,0,189.1,0,304s93.1,208,208,208s208-93.1,208-208S322.9,96,208,96z M272,229.2
	c14.8,0,26.8,12,26.8,26.8c0,14.8-12,26.8-26.8,26.8s-26.8-12-26.8-26.8S257.2,229.2,272,229.2L272,229.2z M144,229.2
	c14.8,0,26.8,12,26.8,26.8c0,14.8-12,26.8-26.8,26.8s-26.8-12-26.8-26.8S129.2,229.2,144,229.2L144,229.2z M308.2,370.1
	C283.3,399.3,246.8,416,208,416s-75.3-16.7-100.2-45.9c-5.8-6.7-5-16.8,1.8-22.5s16.8-5,22.5,1.8c18.8,22,46.5,34.6,75.8,34.6
	c29.4,0,57-12.6,75.8-34.7c5.8-6.8,15.9-7.5,22.6-1.8C313.1,353.3,313.9,363.4,308.2,370.1L308.2,370.1z M624,80h-64V16
	c0-8.8-7.2-16-16-16h-32c-8.8,0-16,7.2-16,16v64h-64c-8.8,0-16,7.2-16,16v32c0,8.8,7.2,16,16,16h64v64c0,8.8,7.2,16,16,16h32
	c8.8,0,16-7.2,16-16v-64h64c8.8,0,16-7.2,16-16V96C640,87.2,632.8,80,624,80z"/>
</svg>
