<?xml version="1.0" encoding="utf-8"?>
<!-- Generator: Adobe Illustrator 24.0.1, SVG Export Plug-In . SVG Version: 6.00 Build 0)  -->
<svg version="1.1" id="Layer_1" xmlns="http://www.w3.org/2000/svg" xmlns:xlink="http://www.w3.org/1999/xlink" x="0px" y="0px"
	 viewBox="0 0 28.2 30" style="enable-background:new 0 0 28.2 30;" xml:space="preserve">
<style type="text/css">
	.st0{fill:#4B4678;}
</style>
<path class="st0" d="M14.1,1.4C6.6,1.4,0.5,7.5,0.5,15s6.1,13.6,13.6,13.6c7.5,0,13.6-6.1,13.6-13.6S21.6,1.4,14.1,1.4z M14,7.1
	c2,0,3.7,1.7,3.7,3.7S16,14.5,14,14.5s-3.7-1.7-3.7-3.7S11.9,7.1,14,7.1z M8,20.1c0-3.8,2.5-4.9,6-4.9s6,1.1,6.1,4.9
	C20.2,23.2,8,23.2,8,20.1z"/>
</svg>
